<?xml version="1.0" encoding="UTF-8" standalone="no"?>
<!-- Created with Inkscape (http://www.inkscape.org/) -->

<svg
   version="1.1"
   id="svg2"
   width="513.33331"
   height="318.66666"
   viewBox="0 0 513.33331 318.66666"
   sodipodi:docname="mechanism.eps"
   xmlns:inkscape="http://www.inkscape.org/namespaces/inkscape"
   xmlns:sodipodi="http://sodipodi.sourceforge.net/DTD/sodipodi-0.dtd"
   xmlns="http://www.w3.org/2000/svg"
   xmlns:svg="http://www.w3.org/2000/svg">
  <defs
     id="defs6" />
  <sodipodi:namedview
     id="namedview4"
     pagecolor="#ffffff"
     bordercolor="#000000"
     borderopacity="0.25"
     inkscape:showpageshadow="2"
     inkscape:pageopacity="0.0"
     inkscape:pagecheckerboard="0"
     inkscape:deskcolor="#d1d1d1" />
  <g
     id="g8"
     inkscape:groupmode="layer"
     inkscape:label="ink_ext_XXXXXX"
     transform="matrix(1.3333333,0,0,-1.3333333,0,318.66667)">
    <g
       id="g10"
       transform="scale(0.1)">
      <path
         d="M 265,1677.54 V 1248.12"
         style="fill:none;stroke:#000000;stroke-width:113.386;stroke-linecap:butt;stroke-linejoin:miter;stroke-miterlimit:4;stroke-dasharray:none;stroke-opacity:1"
         id="path12" />
      <path
         d="M 2234.02,791.52 293.121,1460.9 1997.42,2325.23"
         style="fill:none;stroke:#000000;stroke-width:7.49999;stroke-linecap:butt;stroke-linejoin:miter;stroke-miterlimit:4;stroke-dasharray:none;stroke-opacity:1"
         id="path14" />
      <path
         d="m 2163.12,815.98 -38.16,-18.601 109.06,-5.859 -89.49,62.582 z"
         style="fill:#000000;fill-opacity:1;fill-rule:evenodd;stroke:none"
         id="path16" />
      <path
         d="m 2163.13,815.973 -38.17,-18.594 109.07,-5.859 -89.5,62.578 z"
         style="fill:none;stroke:#000000;stroke-width:7.99999;stroke-linecap:butt;stroke-linejoin:miter;stroke-miterlimit:4;stroke-dasharray:none;stroke-opacity:1"
         id="path18" />
      <path
         d="m 1930.55,2291.29 -13.21,-40.31 80.08,74.25 -107.22,-20.74 z"
         style="fill:#000000;fill-opacity:1;fill-rule:evenodd;stroke:none"
         id="path20" />
      <path
         d="m 1930.55,2291.29 -13.21,-40.31 80.09,74.25 -107.23,-20.73 z"
         style="fill:none;stroke:#000000;stroke-width:7.99999;stroke-linecap:butt;stroke-linejoin:miter;stroke-miterlimit:4;stroke-dasharray:none;stroke-opacity:1"
         id="path22" />
      <path
         d="M 265,780.16 V 2367.03"
         style="fill:none;stroke:#000000;stroke-width:7.49999;stroke-linecap:butt;stroke-linejoin:miter;stroke-miterlimit:4;stroke-dasharray:none;stroke-opacity:1"
         id="path24" />
      <path
         d="m 265,2292.03 30,-30 -30,105 -30,-105 z"
         style="fill:#000000;fill-opacity:1;fill-rule:evenodd;stroke:none"
         id="path26" />
      <path
         d="m 265,2292.03 30,-30 -30,105 -30,-105 z"
         style="fill:none;stroke:#000000;stroke-width:7.99999;stroke-linecap:butt;stroke-linejoin:miter;stroke-miterlimit:4;stroke-dasharray:none;stroke-opacity:1"
         id="path28" />
      <path
         d="M 293.121,1460.9 2715.35,1256.52"
         style="fill:none;stroke:#000000;stroke-width:113.386;stroke-linecap:butt;stroke-linejoin:miter;stroke-miterlimit:4;stroke-dasharray:none;stroke-opacity:1"
         id="path30" />
      <path
         d="m 2715.35,1256.52 1011.56,-73.43"
         style="fill:#000000;fill-opacity:1;fill-rule:nonzero;stroke:none"
         id="path32" />
      <path
         d="m 2715.35,1256.52 1011.56,-73.43"
         style="fill:none;stroke:#000000;stroke-width:7.49999;stroke-linecap:butt;stroke-linejoin:miter;stroke-miterlimit:4;stroke-dasharray:none;stroke-opacity:1"
         id="path34" />
      <path
         d="m 3652.11,1188.52 -32.07,-27.74 106.87,22.31 -102.53,37.53 z"
         style="fill:#000000;fill-opacity:1;fill-rule:evenodd;stroke:none"
         id="path36" />
      <path
         d="m 3652.11,1188.52 -32.07,-27.74 106.88,22.31 -102.54,37.54 z"
         style="fill:none;stroke:#000000;stroke-width:7.99999;stroke-linecap:butt;stroke-linejoin:miter;stroke-miterlimit:4;stroke-dasharray:none;stroke-opacity:1"
         id="path38" />
      <path
         d="m 1636.09,998.16 c 105.2,78.17 146.92,112.39 249.46,264.57"
         style="fill:none;stroke:#000000;stroke-width:7.49999;stroke-linecap:butt;stroke-linejoin:miter;stroke-miterlimit:4;stroke-dasharray:none;stroke-opacity:1"
         id="path40" />
      <path
         d="m 1843.63,1200.55 8.13,-41.64 33.79,103.82 -83.56,-70.31 z"
         style="fill:#000000;fill-opacity:1;fill-rule:evenodd;stroke:none"
         id="path42" />
      <path
         d="m 1843.63,1200.55 8.12,-41.64 33.8,103.83 -83.55,-70.32 z"
         style="fill:none;stroke:#000000;stroke-width:7.99999;stroke-linecap:butt;stroke-linejoin:miter;stroke-miterlimit:4;stroke-dasharray:none;stroke-opacity:1"
         id="path44" />
      <g
         id="g46"
         transform="scale(10)">
        <text
           xml:space="preserve"
           transform="matrix(1,0,0,-1,196.079,105.907)"
           style="font-variant:normal;font-weight:normal;font-size:12px;font-family:Verdana;-inkscape-font-specification:Verdana;writing-mode:lr-tb;fill:#000000;fill-opacity:1;fill-rule:nonzero;stroke:none"
           id="text50"><tspan
             x="0"
             y="0"
             id="tspan48">q</tspan></text>
        <text
           xml:space="preserve"
           transform="matrix(1,0,0,-1,203.55556,103.507)"
           style="font-variant:normal;font-weight:normal;font-size:7.79999px;font-family:Verdana;-inkscape-font-specification:Verdana;writing-mode:lr-tb;fill:#000000;fill-opacity:1;fill-rule:nonzero;stroke:none"
           id="text54"><tspan
             x="0"
             y="0"
             id="tspan52">1</tspan></text>
        <text
           xml:space="preserve"
           transform="matrix(1,0,0,-1,34.78556,230.142)"
           style="font-variant:normal;font-weight:normal;font-size:12px;font-family:Verdana;-inkscape-font-specification:Verdana;writing-mode:lr-tb;fill:#000000;fill-opacity:1;fill-rule:nonzero;stroke:none"
           id="text58"><tspan
             x="0"
             y="0"
             id="tspan56">z</tspan></text>
        <text
           xml:space="preserve"
           transform="matrix(1,0,0,-1,41.09025,227.742)"
           style="font-variant:normal;font-weight:normal;font-size:7.79999px;font-family:Verdana;-inkscape-font-specification:Verdana;writing-mode:lr-tb;fill:#000000;fill-opacity:1;fill-rule:nonzero;stroke:none"
           id="text62"><tspan
             x="0"
             y="0"
             id="tspan60">0</tspan></text>
        <text
           xml:space="preserve"
           transform="matrix(1,0,0,-1,211.57825,67.591)"
           style="font-variant:normal;font-weight:normal;font-size:12px;font-family:Verdana;-inkscape-font-specification:Verdana;writing-mode:lr-tb;fill:#000000;fill-opacity:1;fill-rule:nonzero;stroke:none"
           id="text66"><tspan
             x="0"
             y="0"
             id="tspan64">x</tspan></text>
        <text
           xml:space="preserve"
           transform="matrix(1,0,0,-1,218.67981,65.191)"
           style="font-variant:normal;font-weight:normal;font-size:7.79999px;font-family:Verdana;-inkscape-font-specification:Verdana;writing-mode:lr-tb;fill:#000000;fill-opacity:1;fill-rule:nonzero;stroke:none"
           id="text70"><tspan
             x="0"
             y="0"
             id="tspan68">0</tspan></text>
        <text
           xml:space="preserve"
           transform="matrix(1,0,0,-1,202.96771,217.842)"
           style="font-variant:normal;font-weight:normal;font-size:12px;font-family:Verdana;-inkscape-font-specification:Verdana;writing-mode:lr-tb;fill:#000000;fill-opacity:1;fill-rule:nonzero;stroke:none"
           id="text74"><tspan
             x="0"
             y="0"
             id="tspan72">y</tspan></text>
        <text
           xml:space="preserve"
           transform="matrix(1,0,0,-1,210.06927,215.442)"
           style="font-variant:normal;font-weight:normal;font-size:7.79999px;font-family:Verdana;-inkscape-font-specification:Verdana;writing-mode:lr-tb;fill:#000000;fill-opacity:1;fill-rule:nonzero;stroke:none"
           id="text78"><tspan
             x="0"
             y="0"
             id="tspan76">0</tspan></text>
        <text
           xml:space="preserve"
           transform="matrix(1,0,0,-1,367.40527,130.6908)"
           style="font-variant:normal;font-weight:normal;font-size:12px;font-family:Verdana;-inkscape-font-specification:Verdana;writing-mode:lr-tb;fill:#000000;fill-opacity:1;fill-rule:nonzero;stroke:none"
           id="text82"><tspan
             x="0"
             y="0"
             id="tspan80">x</tspan></text>
        <text
           xml:space="preserve"
           transform="matrix(1,0,0,-1,374.50683,128.2908)"
           style="font-variant:normal;font-weight:normal;font-size:7.79999px;font-family:Verdana;-inkscape-font-specification:Verdana;writing-mode:lr-tb;fill:#000000;fill-opacity:1;fill-rule:nonzero;stroke:none"
           id="text86"><tspan
             x="0"
             y="0"
             id="tspan84">1</tspan></text>
      </g>
      <path
         d="m 2774.45,1267.38 c 0,-18.86 -13.24,-34.14 -29.57,-34.14 -16.33,0 -29.53,15.28 -29.53,34.14 0,18.87 13.2,34.14 29.53,34.14 16.33,0 29.57,-15.27 29.57,-34.14 z"
         style="fill:#000000;fill-opacity:1;fill-rule:nonzero;stroke:none"
         id="path88" />
      <path
         d="m 2774.45,1267.38 c 0,-18.86 -13.24,-34.14 -29.57,-34.14 -16.33,0 -29.53,15.28 -29.53,34.14 0,18.87 13.2,34.14 29.53,34.14 16.33,0 29.57,-15.27 29.57,-34.14 z"
         style="fill:none;stroke:#000000;stroke-width:113.386;stroke-linecap:butt;stroke-linejoin:miter;stroke-miterlimit:4;stroke-dasharray:none;stroke-opacity:1"
         id="path90" />
      <path
         d="M 2748.63,1261.41 3304.02,396.09"
         style="fill:none;stroke:#000000;stroke-width:113.386;stroke-linecap:butt;stroke-linejoin:miter;stroke-miterlimit:4;stroke-dasharray:none;stroke-opacity:1"
         id="path92" />
      <path
         d="M 3299.26,390.23 3536.48,21.5195"
         style="fill:none;stroke:#000000;stroke-width:7.49999;stroke-linecap:butt;stroke-linejoin:miter;stroke-miterlimit:4;stroke-dasharray:none;stroke-opacity:1"
         id="path94" />
      <path
         d="m 3495.9,84.6094 -41.45,8.9804 82.03,-72.0703 -31.56,104.5315 z"
         style="fill:#000000;fill-opacity:1;fill-rule:evenodd;stroke:none"
         id="path96" />
      <path
         d="m 3495.9,84.6094 -41.45,8.9765 82.03,-72.0586 -31.56,104.5317 z"
         style="fill:none;stroke:#000000;stroke-width:7.99999;stroke-linecap:butt;stroke-linejoin:miter;stroke-miterlimit:4;stroke-dasharray:none;stroke-opacity:1"
         id="path98" />
      <path
         d="M 3445.31,1202.03 C 3397.3,990.59 3276.09,880.621 3128.75,806.84"
         style="fill:none;stroke:#000000;stroke-width:7.49999;stroke-linecap:butt;stroke-linejoin:miter;stroke-miterlimit:4;stroke-dasharray:none;stroke-opacity:1"
         id="path100" />
      <path
         d="m 3195.82,840.391 13.4,40.269 -80.47,-73.82 107.3,20.191 z"
         style="fill:#000000;fill-opacity:1;fill-rule:evenodd;stroke:none"
         id="path102" />
      <path
         d="m 3195.82,840.391 13.4,40.273 -80.47,-73.824 107.3,20.195 z"
         style="fill:none;stroke:#000000;stroke-width:7.99999;stroke-linecap:butt;stroke-linejoin:miter;stroke-miterlimit:4;stroke-dasharray:none;stroke-opacity:1"
         id="path104" />
      <g
         id="g106"
         transform="scale(10)">
        <text
           xml:space="preserve"
           transform="matrix(1,0,0,-1,339.57,94.2734)"
           style="font-variant:normal;font-weight:normal;font-size:12px;font-family:Verdana;-inkscape-font-specification:Verdana;writing-mode:lr-tb;fill:#000000;fill-opacity:1;fill-rule:nonzero;stroke:none"
           id="text110"><tspan
             x="0"
             y="0"
             id="tspan108">q</tspan></text>
        <text
           xml:space="preserve"
           transform="matrix(1,0,0,-1,347.04617,91.8734)"
           style="font-variant:normal;font-weight:normal;font-size:7.79999px;font-family:Verdana;-inkscape-font-specification:Verdana;writing-mode:lr-tb;fill:#000000;fill-opacity:1;fill-rule:nonzero;stroke:none"
           id="text114"><tspan
             x="0"
             y="0"
             id="tspan112">2</tspan></text>
        <text
           xml:space="preserve"
           transform="matrix(1,0,0,-1,341.42234,186.7312)"
           style="font-variant:normal;font-weight:normal;font-size:12px;font-family:Verdana;-inkscape-font-specification:Verdana;writing-mode:lr-tb;fill:#000000;fill-opacity:1;fill-rule:nonzero;stroke:none"
           id="text118"><tspan
             x="0"
             y="0"
             id="tspan116">q</tspan></text>
        <text
           xml:space="preserve"
           transform="matrix(1,0,0,-1,348.8989,184.3312)"
           style="font-variant:normal;font-weight:normal;font-size:7.79999px;font-family:Verdana;-inkscape-font-specification:Verdana;writing-mode:lr-tb;fill:#000000;fill-opacity:1;fill-rule:nonzero;stroke:none"
           id="text122"><tspan
             x="0"
             y="0"
             id="tspan120">2</tspan></text>
        <text
           xml:space="preserve"
           transform="matrix(1,0,0,-1,356.17703,16.4402)"
           style="font-variant:normal;font-weight:normal;font-size:12px;font-family:Verdana;-inkscape-font-specification:Verdana;writing-mode:lr-tb;fill:#000000;fill-opacity:1;fill-rule:nonzero;stroke:none"
           id="text126"><tspan
             x="0"
             y="0"
             id="tspan124">x</tspan></text>
        <text
           xml:space="preserve"
           transform="matrix(1,0,0,-1,363.27859,14.0402)"
           style="font-variant:normal;font-weight:normal;font-size:7.79999px;font-family:Verdana;-inkscape-font-specification:Verdana;writing-mode:lr-tb;fill:#000000;fill-opacity:1;fill-rule:nonzero;stroke:none"
           id="text130"><tspan
             x="0"
             y="0"
             id="tspan128">2</tspan></text>
        <text
           xml:space="preserve"
           transform="matrix(1,0,0,-1,373.11218,160.9572)"
           style="font-variant:normal;font-weight:normal;font-size:12px;font-family:Verdana;-inkscape-font-specification:Verdana;writing-mode:lr-tb;fill:#000000;fill-opacity:1;fill-rule:nonzero;stroke:none"
           id="text134"><tspan
             x="0"
             y="0"
             id="tspan132">y</tspan></text>
        <text
           xml:space="preserve"
           transform="matrix(1,0,0,-1,380.21374,158.5572)"
           style="font-variant:normal;font-weight:normal;font-size:7.79999px;font-family:Verdana;-inkscape-font-specification:Verdana;writing-mode:lr-tb;fill:#000000;fill-opacity:1;fill-rule:nonzero;stroke:none"
           id="text138"><tspan
             x="0"
             y="0"
             id="tspan136">2</tspan></text>
        <text
           xml:space="preserve"
           transform="matrix(1,0,0,-1,2.34574,138.1967)"
           style="font-variant:normal;font-weight:normal;font-size:12px;font-family:Verdana;-inkscape-font-specification:Verdana;writing-mode:lr-tb;fill:#000000;fill-opacity:1;fill-rule:nonzero;stroke:none"
           id="text148"><tspan
             x="0"
             y="0"
             id="tspan140">A</tspan><tspan
             x="251.853"
             y="37.4547"
             id="tspan142">B</tspan><tspan
             x="341.83109"
             y="102.0324"
             id="tspan144">C</tspan><tspan
             x="145.9451"
             y="-14.2076"
             id="tspan146">L</tspan></text>
        <text
           xml:space="preserve"
           transform="matrix(1,0,0,-1,154.97053,150.0043)"
           style="font-variant:normal;font-weight:normal;font-size:7.79999px;font-family:Verdana;-inkscape-font-specification:Verdana;writing-mode:lr-tb;fill:#000000;fill-opacity:1;fill-rule:nonzero;stroke:none"
           id="text152"><tspan
             x="0"
             y="0"
             id="tspan150">1</tspan></text>
        <text
           xml:space="preserve"
           transform="matrix(1,0,0,-1,282.52753,77.1457)"
           style="font-variant:normal;font-weight:normal;font-size:12px;font-family:Verdana;-inkscape-font-specification:Verdana;writing-mode:lr-tb;fill:#000000;fill-opacity:1;fill-rule:nonzero;stroke:none"
           id="text156"><tspan
             x="0"
             y="0"
             id="tspan154">L</tspan></text>
        <text
           xml:space="preserve"
           transform="matrix(1,0,0,-1,289.20722,74.7457)"
           style="font-variant:normal;font-weight:normal;font-size:7.79999px;font-family:Verdana;-inkscape-font-specification:Verdana;writing-mode:lr-tb;fill:#000000;fill-opacity:1;fill-rule:nonzero;stroke:none"
           id="text160"><tspan
             x="0"
             y="0"
             id="tspan158">2</tspan></text>
      </g>
      <path
         d="m 2725.43,1269.49 1030.86,509.69"
         style="fill:none;stroke:#000000;stroke-width:7.49999;stroke-linecap:butt;stroke-linejoin:miter;stroke-miterlimit:4;stroke-dasharray:none;stroke-opacity:1"
         id="path162" />
      <path
         d="m 3689.06,1745.94 -13.59,-40.2 80.82,73.44 -107.42,-19.65 z"
         style="fill:#000000;fill-opacity:1;fill-rule:evenodd;stroke:none"
         id="path164" />
      <path
         d="m 3689.07,1745.94 -13.6,-40.2 80.83,73.44 -107.43,-19.64 z"
         style="fill:none;stroke:#000000;stroke-width:7.99999;stroke-linecap:butt;stroke-linejoin:miter;stroke-miterlimit:4;stroke-dasharray:none;stroke-opacity:1"
         id="path166" />
      <path
         d="m 305.621,1951.99 c -468.199,14.73 -50.422,-178.04 276.961,-80.35"
         style="fill:none;stroke:#000000;stroke-width:7.49999;stroke-linecap:butt;stroke-linejoin:miter;stroke-miterlimit:4;stroke-dasharray:none;stroke-opacity:1"
         id="path168" />
      <path
         d="m 539.801,1877.81 52.269,-3.24 -41.91,-31.41 c 4.449,12.5 0.231,26.49 -10.359,34.65 z"
         style="fill:#000000;fill-opacity:1;fill-rule:evenodd;stroke:none"
         id="path170" />
      <path
         d="m 539.805,1877.81 52.261,-3.24 -41.914,-31.41 c 4.461,12.51 0.231,26.49 -10.347,34.65 z"
         style="fill:none;stroke:#000000;stroke-width:2.8125;stroke-linecap:butt;stroke-linejoin:round;stroke-miterlimit:4;stroke-dasharray:none;stroke-opacity:1"
         id="path172" />
      <path
         d="m 3459.61,1958.24 c 0,-4.76 -4.49,-8.67 -10.04,-8.67 -5.51,0 -10,3.91 -10,8.67 0,4.81 4.49,8.71 10,8.71 5.55,0 10.04,-3.9 10.04,-8.71 z"
         style="fill:#000000;fill-opacity:1;fill-rule:nonzero;stroke:none"
         id="path174" />
      <path
         d="m 3459.61,1958.24 c 0,-4.76 -4.49,-8.67 -10.04,-8.67 -5.51,0 -10,3.91 -10,8.67 0,4.81 4.49,8.71 10,8.71 5.55,0 10.04,-3.9 10.04,-8.71 z"
         style="fill:none;stroke:#000000;stroke-width:7.49999;stroke-linecap:butt;stroke-linejoin:miter;stroke-miterlimit:4;stroke-dasharray:none;stroke-opacity:1"
         id="path176" />
      <g
         id="g178"
         transform="scale(10)">
        <text
           xml:space="preserve"
           transform="matrix(1,0,0,-1,-0.2,199.596)"
           style="font-variant:normal;font-weight:normal;font-size:12px;font-family:Verdana;-inkscape-font-specification:Verdana;writing-mode:lr-tb;fill:#000000;fill-opacity:1;fill-rule:nonzero;stroke:none"
           id="text182"><tspan
             x="0"
             y="0"
             id="tspan180">q</tspan></text>
        <text
           xml:space="preserve"
           transform="matrix(1,0,0,-1,7.27656,197.196)"
           style="font-variant:normal;font-weight:normal;font-size:7.79999px;font-family:Verdana;-inkscape-font-specification:Verdana;writing-mode:lr-tb;fill:#000000;fill-opacity:1;fill-rule:nonzero;stroke:none"
           id="text186"><tspan
             x="0"
             y="0"
             id="tspan184">1</tspan></text>
      </g>
      <path
         d="m 43.3594,2086.91 c 0,-4.8 -4.4883,-8.67 -10,-8.67 -5.5508,0 -10.0391,3.87 -10.0391,8.67 0,4.77 4.4883,8.68 10.0391,8.68 5.5117,0 10,-3.91 10,-8.68 z"
         style="fill:#000000;fill-opacity:1;fill-rule:nonzero;stroke:none"
         id="path188" />
      <path
         d="m 43.3594,2086.91 c 0,-4.8 -4.4883,-8.67 -10,-8.67 -5.5508,0 -10.0391,3.87 -10.0391,8.67 0,4.77 4.4883,8.68 10.0391,8.68 5.5117,0 10,-3.91 10,-8.68 z"
         style="fill:none;stroke:#000000;stroke-width:7.49999;stroke-linecap:butt;stroke-linejoin:miter;stroke-miterlimit:4;stroke-dasharray:none;stroke-opacity:1"
         id="path190" />
      <path
         d="m 3312.89,1272.19 c -298.01,172.93 -171.05,732.81 92.46,397.65"
         style="fill:none;stroke:#000000;stroke-width:7.49999;stroke-linecap:butt;stroke-linejoin:miter;stroke-miterlimit:4;stroke-dasharray:none;stroke-opacity:1"
         id="path192" />
      <path
         d="m 3395.35,1711.91 16.21,-49.84 -44.61,27.5 c 13.25,0.39 24.69,9.45 28.4,22.34 z"
         style="fill:#000000;fill-opacity:1;fill-rule:evenodd;stroke:none"
         id="path194" />
      <path
         d="m 3395.36,1711.91 16.2,-49.83 -44.61,27.49 c 13.24,0.38 24.69,9.45 28.41,22.34 z"
         style="fill:none;stroke:#000000;stroke-width:2.81249;stroke-linecap:butt;stroke-linejoin:round;stroke-miterlimit:4;stroke-dasharray:none;stroke-opacity:1"
         id="path196" />
    </g>
  </g>
</svg>
