<?xml version="1.0" encoding="UTF-8" standalone="no"?>
<!-- Created with Inkscape (http://www.inkscape.org/) -->

<svg
   version="1.1"
   id="svg2"
   width="190.66667"
   height="324"
   viewBox="0 0 190.66667 324"
   sodipodi:docname="pendulum_osc.eps"
   xmlns:inkscape="http://www.inkscape.org/namespaces/inkscape"
   xmlns:sodipodi="http://sodipodi.sourceforge.net/DTD/sodipodi-0.dtd"
   xmlns="http://www.w3.org/2000/svg"
   xmlns:svg="http://www.w3.org/2000/svg">
  <defs
     id="defs6" />
  <sodipodi:namedview
     id="namedview4"
     pagecolor="#ffffff"
     bordercolor="#000000"
     borderopacity="0.25"
     inkscape:showpageshadow="2"
     inkscape:pageopacity="0.0"
     inkscape:pagecheckerboard="0"
     inkscape:deskcolor="#d1d1d1" />
  <g
     id="g8"
     inkscape:groupmode="layer"
     inkscape:label="ink_ext_XXXXXX"
     transform="matrix(1.3333333,0,0,-1.3333333,0,324)">
    <g
       id="g10"
       transform="scale(0.1)">
      <path
         d="m 454.77,1550.78 c 6.32,3.05 13.859,0.35 16.871,-5.98 L 1124.34,176.051 c 3,-6.36 0.35,-13.903 -5.98,-16.91 -6.37,-3.012 -13.91,-0.352 -16.91,5.98 L 448.75,1533.91 c -3.012,6.32 -0.352,13.86 6.02,16.87 z"
         style="fill:#000000;fill-opacity:1;fill-rule:nonzero;stroke:none"
         id="path12" />
      <path
         d="m 454.762,1550.78 c 6.328,3.04 13.871,0.36 16.879,-5.98 L 1124.34,176.051 c 3,-6.36 0.34,-13.903 -5.98,-16.914 -6.38,-3.004 -13.91,-0.352 -16.92,5.984 L 448.75,1533.91 c -3.012,6.32 -0.348,13.86 6.012,16.87 z"
         style="fill:none;stroke:#000000;stroke-width:1.84252;stroke-linecap:square;stroke-linejoin:round;stroke-miterlimit:4;stroke-dasharray:none;stroke-opacity:1"
         id="path14" />
      <path
         d="M 1157.23,79.4102 186.289,2115.62"
         style="fill:none;stroke:#000000;stroke-width:7.49999;stroke-linecap:butt;stroke-linejoin:miter;stroke-miterlimit:4;stroke-dasharray:none;stroke-opacity:1"
         id="path16" />
      <path
         d="m 199.18,2088.55 20,-7.1 -36.129,40.93 9.058,-53.83 z"
         style="fill:#000000;fill-opacity:1;fill-rule:evenodd;stroke:none"
         id="path18" />
      <path
         d="m 199.18,2088.55 19.996,-7.11 -36.129,40.94 9.058,-53.82 z"
         style="fill:none;stroke:#000000;stroke-width:3.99999;stroke-linecap:butt;stroke-linejoin:miter;stroke-miterlimit:4;stroke-dasharray:none;stroke-opacity:1"
         id="path20" />
      <path
         d="m 457.191,1543.87 750.969,358.08"
         style="fill:none;stroke:#000000;stroke-width:7.50002;stroke-linecap:butt;stroke-linejoin:miter;stroke-miterlimit:4;stroke-dasharray:none;stroke-opacity:1"
         id="path22" />
      <path
         d="m 1181.09,1889.06 -7.07,-20 40.94,36.14 -53.87,-9.07 z"
         style="fill:#000000;fill-opacity:1;fill-rule:evenodd;stroke:none"
         id="path24" />
      <path
         d="m 1181.09,1889.06 -7.07,-20 40.94,36.14 -53.87,-9.07 z"
         style="fill:none;stroke:#000000;stroke-width:4.00001;stroke-linecap:butt;stroke-linejoin:miter;stroke-miterlimit:4;stroke-dasharray:none;stroke-opacity:1"
         id="path26" />
      <path
         d="m 1150.12,249.02 c 16.05,-33.629 1.79,-73.86 -31.8,-89.879 -33.55,-16.02 -73.79,-1.762 -89.84,31.879 -16.02,33.628 -1.8,73.859 31.79,89.878 33.6,16.012 73.83,1.762 89.85,-31.878 z"
         style="fill:#000000;fill-opacity:1;fill-rule:nonzero;stroke:none"
         id="path28" />
      <path
         d="m 1150.11,249.023 c 16.06,-33.632 1.8,-73.863 -31.79,-89.882 -33.55,-16.012 -73.78,-1.762 -89.84,31.871 -16.02,33.636 -1.8,73.879 31.8,89.886 33.59,16.016 73.82,1.754 89.83,-31.875 z"
         style="fill:none;stroke:#000000;stroke-width:6.96384;stroke-linecap:square;stroke-linejoin:round;stroke-miterlimit:4;stroke-dasharray:none;stroke-opacity:1"
         id="path30" />
      <path
         d="m 392.379,1705.51 h 137.152 c 13.52,0 24.379,-10.9 24.379,-24.38 v -289.22 c 0,-13.47 -10.859,-24.33 -24.379,-24.33 H 392.379 c -13.469,0 -24.328,10.86 -24.328,24.33 v 289.22 c 0,13.48 10.859,24.38 24.328,24.38 z"
         style="fill:none;stroke:#000000;stroke-width:18.8504;stroke-linecap:square;stroke-linejoin:round;stroke-miterlimit:4;stroke-dasharray:none;stroke-opacity:1"
         id="path32" />
      <path
         d="M 460.98,2356.91 V 4.73047"
         style="fill:none;stroke:#000000;stroke-width:7.51181;stroke-linecap:butt;stroke-linejoin:miter;stroke-miterlimit:4;stroke-dasharray:none;stroke-opacity:1"
         id="path34" />
      <path
         d="m 460.98,2326.88 15,-15.04 -15,52.61 -15.039,-52.61 z"
         style="fill:#000000;fill-opacity:1;fill-rule:evenodd;stroke:none"
         id="path36" />
      <path
         d="m 460.98,2326.88 15,-15.04 -15,52.61 -15.039,-52.61 z"
         style="fill:none;stroke:#000000;stroke-width:4.0063;stroke-linecap:butt;stroke-linejoin:miter;stroke-miterlimit:4;stroke-dasharray:none;stroke-opacity:1"
         id="path38" />
      <g
         id="g40"
         transform="scale(10)">
        <text
           xml:space="preserve"
           transform="matrix(1,0,0,-1,85.0152,94.7207)"
           style="font-variant:normal;font-weight:normal;font-size:9px;font-family:Verdana;-inkscape-font-specification:Verdana;writing-mode:lr-tb;fill:#000000;fill-opacity:1;fill-rule:nonzero;stroke:none"
           id="text46"><tspan
             x="0"
             y="0"
             id="tspan42">L</tspan><tspan
             x="43.389801"
             y="-85.667198"
             id="tspan44">y</tspan></text>
        <text
           xml:space="preserve"
           transform="matrix(1,0,0,-1,133.73117,178.5879)"
           style="font-variant:normal;font-weight:normal;font-size:5.85px;font-family:Verdana;-inkscape-font-specification:Verdana;writing-mode:lr-tb;fill:#000000;fill-opacity:1;fill-rule:nonzero;stroke:none"
           id="text50"><tspan
             x="0"
             y="0"
             id="tspan48">1</tspan></text>
        <text
           xml:space="preserve"
           transform="matrix(1,0,0,-1,-0.09583,212.6524)"
           style="font-variant:normal;font-weight:normal;font-size:9px;font-family:Verdana;-inkscape-font-specification:Verdana;writing-mode:lr-tb;fill:#000000;fill-opacity:1;fill-rule:nonzero;stroke:none"
           id="text54"><tspan
             x="0"
             y="0"
             id="tspan52">z</tspan></text>
        <text
           xml:space="preserve"
           transform="matrix(1,0,0,-1,4.63269,210.8524)"
           style="font-variant:normal;font-weight:normal;font-size:5.85px;font-family:Verdana;-inkscape-font-specification:Verdana;writing-mode:lr-tb;fill:#000000;fill-opacity:1;fill-rule:nonzero;stroke:none"
           id="text58"><tspan
             x="0"
             y="0"
             id="tspan56">1</tspan></text>
      </g>
      <path
         d="m 330.23,68.4805 h 261.449 v 2113.67 H 330.23 Z"
         style="fill:none;stroke:#000000;stroke-width:7.49999;stroke-linecap:butt;stroke-linejoin:miter;stroke-miterlimit:4;stroke-dasharray:none;stroke-opacity:1"
         id="path60" />
      <path
         d="M 62.7695,919.379 H 1191.68"
         style="fill:none;stroke:#000000;stroke-width:7.51181;stroke-linecap:butt;stroke-linejoin:miter;stroke-miterlimit:4;stroke-dasharray:none;stroke-opacity:1"
         id="path62" />
      <path
         d="m 1161.64,919.379 -15.04,-15 52.58,15 -52.58,15.031 z"
         style="fill:#000000;fill-opacity:1;fill-rule:evenodd;stroke:none"
         id="path64" />
      <path
         d="m 1161.64,919.379 -15.04,-15 52.58,15 -52.58,15.031 z"
         style="fill:none;stroke:#000000;stroke-width:4.0063;stroke-linecap:butt;stroke-linejoin:miter;stroke-miterlimit:4;stroke-dasharray:none;stroke-opacity:1"
         id="path66" />
      <path
         d="m 462.422,2182.23 v -152.35 l -99.531,-43.28 189.918,-43.24 -189.918,-43.28 189.918,-43.24 -189.918,-43.29 97.808,-43.24 v -60.19"
         style="fill:none;stroke:#000000;stroke-width:16.0158;stroke-linecap:round;stroke-linejoin:round;stroke-miterlimit:4;stroke-dasharray:none;stroke-opacity:1"
         id="path68" />
      <path
         d="M 458.16,1540.2 H 135.039"
         style="fill:none;stroke:#000000;stroke-width:7.49999;stroke-linecap:butt;stroke-linejoin:miter;stroke-miterlimit:4;stroke-dasharray:22.5, 22.5;stroke-dashoffset:0;stroke-opacity:1"
         id="path70" />
      <path
         d="m 227.621,924.84 v 609.93"
         style="fill:none;stroke:#000000;stroke-width:7.49999;stroke-linecap:butt;stroke-linejoin:miter;stroke-miterlimit:4;stroke-dasharray:none;stroke-opacity:1"
         id="path72" />
      <path
         d="m 227.621,1504.77 15,-15 -15,52.5 -15,-52.5 z"
         style="fill:#000000;fill-opacity:1;fill-rule:evenodd;stroke:none"
         id="path74" />
      <path
         d="m 227.621,1504.77 15,-15 -15,52.5 -15,-52.5 z"
         style="fill:none;stroke:#000000;stroke-width:3.99999;stroke-linecap:butt;stroke-linejoin:miter;stroke-miterlimit:4;stroke-dasharray:none;stroke-opacity:1"
         id="path76" />
      <g
         id="g78"
         transform="scale(10)">
        <text
           xml:space="preserve"
           transform="matrix(1,0,0,-1,13.6859,123.162)"
           style="font-variant:normal;font-weight:normal;font-size:9px;font-family:Verdana;-inkscape-font-specification:Verdana;writing-mode:lr-tb;fill:#000000;fill-opacity:1;fill-rule:nonzero;stroke:none"
           id="text82"><tspan
             x="0"
             y="0"
             id="tspan80">z</tspan></text>
      </g>
      <path
         d="m 463.59,688.871 c 122.39,-14.57 242.031,30.039 348.558,74.41"
         style="fill:none;stroke:#000000;stroke-width:7.49999;stroke-linecap:butt;stroke-linejoin:miter;stroke-miterlimit:4;stroke-dasharray:none;stroke-opacity:1"
         id="path84" />
      <path
         d="m 784.449,751.762 -8.078,-19.653 42.688,34.063 -54.219,-6.371 z"
         style="fill:#000000;fill-opacity:1;fill-rule:evenodd;stroke:none"
         id="path86" />
      <path
         d="m 784.457,751.754 -8.09,-19.649 42.692,34.067 -54.211,-6.367 z"
         style="fill:none;stroke:#000000;stroke-width:3.99999;stroke-linecap:butt;stroke-linejoin:miter;stroke-miterlimit:4;stroke-dasharray:none;stroke-opacity:1"
         id="path88" />
      <g
         id="g90"
         transform="scale(10)">
        <text
           xml:space="preserve"
           transform="matrix(1,0,0,-1,55.223,237.402)"
           style="font-variant:normal;font-weight:normal;font-size:9px;font-family:Verdana;-inkscape-font-specification:Verdana;writing-mode:lr-tb;fill:#000000;fill-opacity:1;fill-rule:nonzero;stroke:none"
           id="text94"><tspan
             x="0"
             y="0"
             id="tspan92">z</tspan></text>
        <text
           xml:space="preserve"
           transform="matrix(1,0,0,-1,59.95152,235.602)"
           style="font-variant:normal;font-weight:normal;font-size:5.85px;font-family:Verdana;-inkscape-font-specification:Verdana;writing-mode:lr-tb;fill:#000000;fill-opacity:1;fill-rule:nonzero;stroke:none"
           id="text98"><tspan
             x="0"
             y="0"
             id="tspan96">0</tspan></text>
        <text
           xml:space="preserve"
           transform="matrix(1,0,0,-1,126.02852,84.422)"
           style="font-variant:normal;font-weight:normal;font-size:9px;font-family:Verdana;-inkscape-font-specification:Verdana;writing-mode:lr-tb;fill:#000000;fill-opacity:1;fill-rule:nonzero;stroke:none"
           id="text102"><tspan
             x="0"
             y="0"
             id="tspan100">y</tspan></text>
        <text
           xml:space="preserve"
           transform="matrix(1,0,0,-1,131.35469,82.622)"
           style="font-variant:normal;font-weight:normal;font-size:5.85px;font-family:Verdana;-inkscape-font-specification:Verdana;writing-mode:lr-tb;fill:#000000;fill-opacity:1;fill-rule:nonzero;stroke:none"
           id="text106"><tspan
             x="0"
             y="0"
             id="tspan104">0</tspan></text>
        <text
           xml:space="preserve"
           transform="matrix(1,0,0,-1,130.67969,18.7853)"
           style="font-variant:normal;font-weight:normal;font-size:9px;font-family:Verdana;-inkscape-font-specification:Verdana;writing-mode:lr-tb;fill:#000000;fill-opacity:1;fill-rule:nonzero;stroke:none"
           id="text110"><tspan
             x="0"
             y="0"
             id="tspan108">m</tspan></text>
        <text
           xml:space="preserve"
           transform="matrix(1,0,0,-1,139.4336,16.9853)"
           style="font-variant:normal;font-weight:normal;font-size:5.85px;font-family:Verdana;-inkscape-font-specification:Verdana;writing-mode:lr-tb;fill:#000000;fill-opacity:1;fill-rule:nonzero;stroke:none"
           id="text114"><tspan
             x="0"
             y="0"
             id="tspan112">2</tspan></text>
        <text
           xml:space="preserve"
           transform="matrix(1,0,0,-1,83.1316,145.9243)"
           style="font-variant:normal;font-weight:normal;font-size:9px;font-family:Verdana;-inkscape-font-specification:Verdana;writing-mode:lr-tb;fill:#000000;fill-opacity:1;fill-rule:nonzero;stroke:none"
           id="text118"><tspan
             x="0"
             y="0"
             id="tspan116">m</tspan></text>
        <text
           xml:space="preserve"
           transform="matrix(1,0,0,-1,91.88551,144.1243)"
           style="font-variant:normal;font-weight:normal;font-size:5.85px;font-family:Verdana;-inkscape-font-specification:Verdana;writing-mode:lr-tb;fill:#000000;fill-opacity:1;fill-rule:nonzero;stroke:none"
           id="text122"><tspan
             x="0"
             y="0"
             id="tspan120">1</tspan></text>
      </g>
      <path
         d="m 799.219,1494.92 c -55.348,44.92 -107.809,9.65 -169.297,9.65 -40.863,0 -73.512,9.69 -113.672,9.69"
         style="fill:none;stroke:#000000;stroke-width:7.49999;stroke-linecap:butt;stroke-linejoin:miter;stroke-miterlimit:4;stroke-dasharray:none;stroke-opacity:1"
         id="path124" />
    </g>
  </g>
</svg>
