<svg xmlns="http://www.w3.org/2000/svg" xmlns:xlink="http://www.w3.org/1999/xlink" xmlns:inkscape="http://www.inkscape.org/namespaces/inkscape" version="1.1" width="545.568" height="266.886" viewBox="0 0 545.568 266.886">
<defs>
<clipPath id="clip_0">
<path transform="matrix(1,0,0,-1,-48.765,727.034)" d="M48.765 460.148H594.333V727.034H48.765Z" clip-rule="evenodd"/>
</clipPath>
</defs>
<g clip-path="url(#clip_0)">
<path transform="matrix(1,0,0,-1,77.161,184.69599)" stroke-width=".398" stroke-linecap="butt" stroke-miterlimit="10" stroke-linejoin="miter" fill="none" stroke="#000000" d="M0 0 53.608-31.758"/>
<path transform="matrix(.86032,.50966,.50966,-.86032,133.85454,218.28168)" d="M0 0C-1.063 .199-2.79 .797-3.985 1.494V-1.494C-2.79-.797-1.063-.199 0 0"/>
<path transform="matrix(1,0,0,-1,77.161,184.69599)" stroke-width=".398" stroke-linecap="butt" stroke-miterlimit="10" stroke-linejoin="miter" fill="none" stroke="#000000" d="M0 0 94.678 18.695"/>
<path transform="matrix(.98102,-.19371,-.19371,-.98102,175.35747,165.30622)" d="M0 0C-1.063 .199-2.79 .797-3.985 1.494V-1.494C-2.79-.797-1.063-.199 0 0"/>
<path transform="matrix(1,0,0,-1,77.161,184.69599)" stroke-width=".398" stroke-linecap="butt" stroke-miterlimit="10" stroke-linejoin="miter" fill="none" stroke="#000000" d="M0 0V102.963"/>
<path transform="matrix(0,-1,-1,-0,77.161,78.14636)" d="M0 0C-1.063 .199-2.79 .797-3.985 1.494V-1.494C-2.79-.797-1.063-.199 0 0"/>
<path transform="matrix(1,0,0,-1,133.8464,218.27649)" stroke-width=".398" stroke-linecap="butt" stroke-miterlimit="10" stroke-linejoin="miter" fill="none" stroke="#000000" d="M0 0C17.23 3.402 31.549 8.3 36.712 11.358"/>
<path transform="matrix(.86034,-.50961,-.50961,-.86034,174.80123,204.40534)" d="M0 0-7.178 2.399-4.832 0-7.178-2.399Z"/>
<path transform="matrix(.86034,-.50961,-.50961,-.86034,174.80123,204.40534)" stroke-width=".398" stroke-linecap="butt" stroke-miterlimit="10" stroke-linejoin="miter" fill="none" stroke="#000000" d="M0 0-7.178 2.399-4.832 0-7.178-2.399Z"/>
<path transform="matrix(1,0,0,-1,175.3432,165.3092)" stroke-width=".398" stroke-linecap="butt" stroke-miterlimit="10" stroke-linejoin="miter" fill="none" stroke="#000000" d="M0 0C-9.948 5.893-24.267 10.79-36.04 13.115"/>
<path transform="matrix(-.98102,-.19374,-.19374,.98102,134.46488,151.23834)" d="M0 0-7.178 2.399-4.832 0-7.178-2.399Z"/>
<path transform="matrix(-.98102,-.19374,-.19374,.98102,134.46488,151.23834)" stroke-width=".398" stroke-linecap="butt" stroke-miterlimit="10" stroke-linejoin="miter" fill="none" stroke="#000000" d="M0 0-7.178 2.399-4.832 0-7.178-2.399Z"/>
<path transform="matrix(1,0,0,-1,77.161,184.69599)" stroke-width=".398" stroke-linecap="butt" stroke-miterlimit="10" stroke-linejoin="miter" fill="none" stroke="#ff0000" d="M0 0 94.678-18.696"/>
<path transform="matrix(.98102,.19373,.19373,-.98102,175.3574,204.08716)" d="M0 0C-1.063 .199-2.79 .797-3.985 1.494V-1.494C-2.79-.797-1.063-.199 0 0" fill="#ff0000"/>
<path transform="matrix(1,0,0,-1,77.161,184.69599)" stroke-width=".398" stroke-linecap="butt" stroke-miterlimit="10" stroke-linejoin="miter" fill="none" stroke="#ff0000" d="M0 0 53.609 31.757"/>
<path transform="matrix(.86032,-.50966,-.50966,-.86032,133.85509,151.11109)" d="M0 0C-1.063 .199-2.79 .797-3.985 1.494V-1.494C-2.79-.797-1.063-.199 0 0" fill="#ff0000"/>
<path transform="matrix(1,0,0,-1,77.161,184.69599)" stroke-width=".398" stroke-linecap="butt" stroke-miterlimit="10" stroke-linejoin="miter" fill="none" stroke="#000000" d="M0 0V102.963"/>
<path transform="matrix(0,-1,-1,-0,77.161,78.14636)" d="M0 0C-1.063 .199-2.79 .797-3.985 1.494V-1.494C-2.79-.797-1.063-.199 0 0"/>
<path transform="matrix(1,0,0,-1,256.49079,184.69599)" stroke-width=".398" stroke-linecap="butt" stroke-miterlimit="10" stroke-linejoin="miter" fill="none" stroke="#ff0000" d="M0 0 94.678-18.696"/>
<path transform="matrix(.98102,.19373,.19373,-.98102,354.68727,204.08716)" d="M0 0C-1.063 .199-2.79 .797-3.985 1.494V-1.494C-2.79-.797-1.063-.199 0 0" fill="#ff0000"/>
<path transform="matrix(1,0,0,-1,256.49079,184.69599)" stroke-width=".398" stroke-linecap="butt" stroke-miterlimit="10" stroke-linejoin="miter" fill="none" stroke="#ff0000" d="M0 0 53.609 31.757"/>
<path transform="matrix(.86032,-.50966,-.50966,-.86032,313.18495,151.11109)" d="M0 0C-1.063 .199-2.79 .797-3.985 1.494V-1.494C-2.79-.797-1.063-.199 0 0" fill="#ff0000"/>
<path transform="matrix(1,0,0,-1,256.49079,184.69599)" stroke-width=".398" stroke-linecap="butt" stroke-miterlimit="10" stroke-linejoin="miter" fill="none" stroke="#ff0000" d="M0 0V102.963"/>
<path transform="matrix(0,-1,-1,-0,256.49085,78.14636)" d="M0 0C-1.063 .199-2.79 .797-3.985 1.494V-1.494C-2.79-.797-1.063-.199 0 0" fill="#ff0000"/>
<path transform="matrix(1,0,0,-1,256.49079,78.16193)" stroke-width=".398" stroke-linecap="butt" stroke-miterlimit="10" stroke-linejoin="miter" fill="none" stroke="#000000" d="M0 0C11.45-2.261 22.821-6.682 28.796-10.221"/>
<path transform="matrix(.86032,.50966,.50966,-.86032,289.5296,90.89636)" d="M0 0-7.178 2.399-4.832 0-7.178-2.399Z"/>
<path transform="matrix(.86032,.50966,.50966,-.86032,289.5296,90.89636)" stroke-width=".398" stroke-linecap="butt" stroke-miterlimit="10" stroke-linejoin="miter" fill="none" stroke="#000000" d="M0 0-7.178 2.399-4.832 0-7.178-2.399Z"/>
<path transform="matrix(1,0,0,-1,354.6731,204.0841)" stroke-width=".398" stroke-linecap="butt" stroke-miterlimit="10" stroke-linejoin="miter" fill="none" stroke="#000000" d="M0 0C0-12.424-2.005-24.367-4.041-30.034"/>
<path transform="matrix(-.33806,.94109,.94109,.33806,348.96534,238.75943)" d="M0 0-7.178 2.399-4.832 0-7.178-2.399Z"/>
<path transform="matrix(-.33806,.94109,.94109,.33806,348.96534,238.75943)" stroke-width=".398" stroke-linecap="butt" stroke-miterlimit="10" stroke-linejoin="miter" fill="none" stroke="#000000" d="M0 0-7.178 2.399-4.832 0-7.178-2.399Z"/>
<path transform="matrix(1,0,0,-1,256.49079,184.69599)" stroke-width=".398" stroke-linecap="butt" stroke-miterlimit="10" stroke-linejoin="miter" fill="none" stroke="#00ff00" d="M0 0 89.189-52.837"/>
<path transform="matrix(.86032,.50966,.50966,-.86032,348.7657,239.36048)" d="M0 0C-1.063 .199-2.79 .797-3.985 1.494V-1.494C-2.79-.797-1.063-.199 0 0" fill="#00ff00"/>
<path transform="matrix(1,0,0,-1,256.49079,184.69599)" stroke-width=".398" stroke-linecap="butt" stroke-miterlimit="10" stroke-linejoin="miter" fill="none" stroke="#ff0000" d="M0 0 53.609 31.757"/>
<path transform="matrix(.86032,-.50966,-.50966,-.86032,313.18495,151.11109)" d="M0 0C-1.063 .199-2.79 .797-3.985 1.494V-1.494C-2.79-.797-1.063-.199 0 0" fill="#ff0000"/>
<path transform="matrix(1,0,0,-1,256.49079,184.69599)" stroke-width=".398" stroke-linecap="butt" stroke-miterlimit="10" stroke-linejoin="miter" fill="none" stroke="#00ff00" d="M0 0 32.373 90.117"/>
<path transform="matrix(.33807,-.94109,-.94109,-.33807,290.07649,91.20386)" d="M0 0C-1.063 .199-2.79 .797-3.985 1.494V-1.494C-2.79-.797-1.063-.199 0 0" fill="#00ff00"/>
<path transform="matrix(1,0,0,-1,395.9696,184.69599)" stroke-width=".398" stroke-linecap="butt" stroke-miterlimit="10" stroke-linejoin="miter" fill="none" stroke="#00ff00" d="M0 0 89.189-52.837"/>
<path transform="matrix(.86032,.50966,.50966,-.86032,488.24446,239.36048)" d="M0 0C-1.063 .199-2.79 .797-3.985 1.494V-1.494C-2.79-.797-1.063-.199 0 0" fill="#00ff00"/>
<path transform="matrix(1,0,0,-1,395.9696,184.69599)" stroke-width=".398" stroke-linecap="butt" stroke-miterlimit="10" stroke-linejoin="miter" fill="none" stroke="#00ff00" d="M0 0 53.609 31.757"/>
<path transform="matrix(.86032,-.50966,-.50966,-.86032,452.6637,151.11109)" d="M0 0C-1.063 .199-2.79 .797-3.985 1.494V-1.494C-2.79-.797-1.063-.199 0 0" fill="#00ff00"/>
<path transform="matrix(1,0,0,-1,395.9696,184.69599)" stroke-width=".398" stroke-linecap="butt" stroke-miterlimit="10" stroke-linejoin="miter" fill="none" stroke="#00ff00" d="M0 0 32.373 90.117"/>
<path transform="matrix(.33807,-.94109,-.94109,-.33807,429.55525,91.20386)" d="M0 0C-1.063 .199-2.79 .797-3.985 1.494V-1.494C-2.79-.797-1.063-.199 0 0" fill="#00ff00"/>
<path transform="matrix(1,0,0,-1,452.6554,151.1159)" stroke-width=".398" stroke-linecap="butt" stroke-miterlimit="10" stroke-linejoin="miter" fill="none" stroke="#000000" d="M0 0C2.933 8.166 5.208 15.922 5.577 17.616"/>
<path transform="matrix(.21274,-.97707,-.97707,-.21274,459.28126,128.68152)" d="M0 0-7.178 2.399-4.832 0-7.178-2.399Z"/>
<path transform="matrix(.21274,-.97707,-.97707,-.21274,459.28126,128.68152)" stroke-width=".398" stroke-linecap="butt" stroke-miterlimit="10" stroke-linejoin="miter" fill="none" stroke="#000000" d="M0 0-7.178 2.399-4.832 0-7.178-2.399Z"/>
<path transform="matrix(1,0,0,-1,429.5501,91.217227)" stroke-width=".398" stroke-linecap="butt" stroke-miterlimit="10" stroke-linejoin="miter" fill="none" stroke="#000000" d="M0 0C-4.952-2.933-10.274-6.931-11.666-8.173"/>
<path transform="matrix(-.74603,.66583,.66583,.74603,414.20454,102.67395)" d="M0 0-7.178 2.399-4.832 0-7.178-2.399Z"/>
<path transform="matrix(-.74603,.66583,.66583,.74603,414.20454,102.67395)" stroke-width=".398" stroke-linecap="butt" stroke-miterlimit="10" stroke-linejoin="miter" fill="none" stroke="#000000" d="M0 0-7.178 2.399-4.832 0-7.178-2.399Z"/>
<path transform="matrix(1,0,0,-1,395.9696,184.69599)" stroke-width=".398" stroke-linecap="butt" stroke-miterlimit="10" stroke-linejoin="miter" fill="none" stroke="#0000ff" d="M0 0 89.189-52.837"/>
<path transform="matrix(.86032,.50966,.50966,-.86032,488.24446,239.36048)" d="M0 0C-1.063 .199-2.79 .797-3.985 1.494V-1.494C-2.79-.797-1.063-.199 0 0" fill="#0000ff"/>
<path transform="matrix(1,0,0,-1,395.9696,184.69599)" stroke-width=".398" stroke-linecap="butt" stroke-miterlimit="10" stroke-linejoin="miter" fill="none" stroke="#0000ff" d="M0 0 60.779 54.25"/>
<path transform="matrix(.746,-.66586,-.66586,-.746,459.42457,128.05786)" d="M0 0C-1.063 .199-2.79 .797-3.985 1.494V-1.494C-2.79-.797-1.063-.199 0 0" fill="#0000ff"/>
<path transform="matrix(1,0,0,-1,395.9696,184.69599)" stroke-width=".398" stroke-linecap="butt" stroke-miterlimit="10" stroke-linejoin="miter" fill="none" stroke="#0000ff" d="M0 0 17.005 78.11"/>
<path transform="matrix(.2127,-.97707,-.97707,-.2127,413.7373,103.08191)" d="M0 0C-1.063 .199-2.79 .797-3.985 1.494V-1.494C-2.79-.797-1.063-.199 0 0" fill="#0000ff"/>
<text xml:space="preserve" transform="matrix(1 0 -0 1 -48.765 727.034)" font-size="10.381" font-family="CMMI10" font-style="italic"><tspan y="-498.232" x="172.938">&#x20d7;</tspan></text>
<text xml:space="preserve" transform="matrix(1 0 -0 1 -48.765 727.034)" font-size="9.963" font-family="URWPalladioL" font-style="italic"><tspan y="-495.945" x="174.871">i</tspan></text>
<text xml:space="preserve" transform="matrix(1 0 -0 1 -48.765 727.034)" font-size="7.89" font-family="CMSY10" font-style="italic"><tspan y="-493.993" x="177.85901">A</tspan></text>
<text xml:space="preserve" transform="matrix(1 0 -0 1 -48.765 727.034)" font-size="10.381" font-family="CMMI10" font-style="italic"><tspan y="-563.83" x="229.97">&#x20d7;</tspan></text>
<text xml:space="preserve" transform="matrix(1 0 -0 1 -48.765 727.034)" font-size="9.963" font-family="URWPalladioL" font-style="italic"><tspan y="-561.543" x="231.897">j</tspan></text>
<text xml:space="preserve" transform="matrix(1 0 -0 1 -48.765 727.034)" font-size="7.89" font-family="CMSY10" font-style="italic"><tspan y="-559.591" x="234.63701">A</tspan></text>
<text xml:space="preserve" transform="matrix(1 0 -0 1 -48.765 727.034)" font-size="10.381" font-family="CMMI10" font-style="italic"><tspan y="-660.401" x="114.06101">&#x20d7;</tspan></text>
<text xml:space="preserve" transform="matrix(1 0 -0 1 -48.765 727.034)" font-size="9.963" font-family="URWPalladioL" font-style="italic"><tspan y="-657.951" x="115.959018">k</tspan></text>
<text xml:space="preserve" transform="matrix(1 0 -0 1 -48.765 727.034)" font-size="7.89" font-family="CMSY10" font-style="italic"><tspan y="-655.862" x="120.751018">A</tspan></text>
<text xml:space="preserve" transform="matrix(1 0 -0 1 -48.765 727.034)" font-size="7.572" font-family="URWPalladioL"><tspan y="-655.862" x="127.14501 131.73365">/1</tspan></text>
<text xml:space="preserve" transform="matrix(1 0 -0 1 -48.765 727.034)" font-size="10.381" font-family="CMMI10" font-style="italic"><tspan y="-523.719" x="228.14801">&#x20d7;</tspan></text>
<text xml:space="preserve" transform="matrix(1 0 -0 1 -48.765 727.034)" font-size="9.963" font-family="URWPalladioL" font-style="italic"><tspan y="-521.432" x="230.08101">i</tspan></text>
<text xml:space="preserve" transform="matrix(1 0 -0 1 -48.765 727.034)" font-size="7.572" font-family="URWPalladioL"><tspan y="-519.57406" x="232.975">1</tspan></text>
<text xml:space="preserve" transform="matrix(1 0 -0 1 -48.765 727.034)" font-size="10.381" font-family="CMMI10" font-style="italic"><tspan y="-589.34109" x="183.132">&#x20d7;</tspan></text>
<text xml:space="preserve" transform="matrix(1 0 -0 1 -48.765 727.034)" font-size="9.963" font-family="URWPalladioL" font-style="italic"><tspan y="-587.05508" x="185.06">j</tspan></text>
<text xml:space="preserve" transform="matrix(1 0 -0 1 -48.765 727.034)" font-size="7.572" font-family="URWPalladioL"><tspan y="-585.1971" x="187.705">1</tspan></text>
<text xml:space="preserve" transform="matrix(1 0 -0 1 -48.765 727.034)" font-size="9.963" font-family="PazoMath" font-style="italic"><tspan y="-503.6471" x="207.727">&#x03c8;</tspan><tspan y="-577.3481" x="207.727">&#x03c8;</tspan></text>
<path transform="matrix(1,0,0,-1,199.0524,156.34918)" stroke-width=".398" stroke-linecap="butt" stroke-miterlimit="10" stroke-linejoin="miter" fill="none" stroke="#000000" d="M0 0H36.959"/>
<path transform="matrix(1,0,0,-1,240.94252,156.34918)" d="M0 0-7.178 2.399-4.832 0-7.178-2.399Z"/>
<path transform="matrix(1,0,0,-1,240.94252,156.34918)" stroke-width=".398" stroke-linecap="butt" stroke-miterlimit="10" stroke-linejoin="miter" fill="none" stroke="#000000" d="M0 0-7.178 2.399-4.832 0-7.178-2.399Z"/>
<text xml:space="preserve" transform="matrix(1 0 -0 1 -48.765 727.034)" font-size="10.381" font-family="CMMI10" font-style="italic"><tspan y="-523.719" x="409.565">&#x20d7;</tspan></text>
<text xml:space="preserve" transform="matrix(1 0 -0 1 -48.765 727.034)" font-size="9.963" font-family="URWPalladioL" font-style="italic"><tspan y="-521.432" x="411.49803">i</tspan></text>
<text xml:space="preserve" transform="matrix(1 0 -0 1 -48.765 727.034)" font-size="7.572" font-family="URWPalladioL"><tspan y="-519.57406" x="414.39204">1</tspan></text>
<text xml:space="preserve" transform="matrix(1 0 -0 1 -48.765 727.034)" font-size="10.381" font-family="CMMI10" font-style="italic"><tspan y="-580.94906" x="357.528">&#x20d7;</tspan></text>
<text xml:space="preserve" transform="matrix(1 0 -0 1 -48.765 727.034)" font-size="9.963" font-family="URWPalladioL" font-style="italic"><tspan y="-578.663" x="359.45603">j</tspan></text>
<text xml:space="preserve" transform="matrix(1 0 -0 1 -48.765 727.034)" font-size="7.572" font-family="URWPalladioL"><tspan y="-576.57406" x="362.101 365.88703 370.47566">1/2</tspan></text>
<text xml:space="preserve" transform="matrix(1 0 -0 1 -48.765 727.034)" font-size="10.381" font-family="CMMI10" font-style="italic"><tspan y="-659.864" x="303.851">&#x20d7;</tspan></text>
<text xml:space="preserve" transform="matrix(1 0 -0 1 -48.765 727.034)" font-size="9.963" font-family="URWPalladioL" font-style="italic"><tspan y="-657.413" x="305.74903">k</tspan></text>
<text xml:space="preserve" transform="matrix(1 0 -0 1 -48.765 727.034)" font-size="7.572" font-family="URWPalladioL"><tspan y="-655.55508" x="310.44703">1</tspan></text>
<text xml:space="preserve" transform="matrix(1 0 -0 1 -48.765 727.034)" font-size="10.381" font-family="CMMI10" font-style="italic"><tspan y="-481.14207" x="398.22703">&#x20d7;</tspan></text>
<text xml:space="preserve" transform="matrix(1 0 -0 1 -48.765 727.034)" font-size="9.963" font-family="URWPalladioL" font-style="italic"><tspan y="-478.85606" x="400.15904">i</tspan></text>
<text xml:space="preserve" transform="matrix(1 0 -0 1 -48.765 727.034)" font-size="7.572" font-family="URWPalladioL"><tspan y="-477.11207" x="403.05403">2</tspan></text>
<text xml:space="preserve" transform="matrix(1 0 -0 1 -48.765 727.034)" font-size="10.381" font-family="CMMI10" font-style="italic"><tspan y="-645.63406" x="337.867">&#x20d7;</tspan></text>
<text xml:space="preserve" transform="matrix(1 0 -0 1 -48.765 727.034)" font-size="9.963" font-family="URWPalladioL" font-style="italic"><tspan y="-643.18307" x="339.765">k</tspan></text>
<text xml:space="preserve" transform="matrix(1 0 -0 1 -48.765 727.034)" font-size="7.572" font-family="URWPalladioL"><tspan y="-641.439" x="344.462">2</tspan></text>
<text xml:space="preserve" transform="matrix(1 0 -0 1 -48.765 727.034)" font-size="9.963" font-family="PazoMath" font-style="italic"><tspan y="-502.23005" x="406.456">&#x03d5;</tspan><tspan y="-648.21408" x="324.25199">&#x03d5;</tspan></text>
<path transform="matrix(1,0,0,-1,346.4557,156.34918)" stroke-width=".398" stroke-linecap="butt" stroke-miterlimit="10" stroke-linejoin="miter" fill="none" stroke="#000000" d="M0 0H36.959"/>
<path transform="matrix(1,0,0,-1,388.34584,156.34918)" d="M0 0-7.178 2.399-4.832 0-7.178-2.399Z"/>
<path transform="matrix(1,0,0,-1,388.34584,156.34918)" stroke-width=".398" stroke-linecap="butt" stroke-miterlimit="10" stroke-linejoin="miter" fill="none" stroke="#000000" d="M0 0-7.178 2.399-4.832 0-7.178-2.399Z"/>
<text xml:space="preserve" transform="matrix(1 0 -0 1 -48.765 727.034)" font-size="10.381" font-family="CMMI10" font-style="italic"><tspan y="-563.83" x="494.943">&#x20d7;</tspan></text>
<text xml:space="preserve" transform="matrix(1 0 -0 1 -48.765 727.034)" font-size="9.963" font-family="URWPalladioL" font-style="italic"><tspan y="-561.543" x="496.871">j</tspan></text>
<text xml:space="preserve" transform="matrix(1 0 -0 1 -48.765 727.034)" font-size="7.572" font-family="URWPalladioL"><tspan y="-559.799" x="499.516">2</tspan></text>
<text xml:space="preserve" transform="matrix(1 0 -0 1 -48.765 727.034)" font-size="10.381" font-family="CMMI10" font-style="italic"><tspan y="-487.406" x="537.698">&#x20d7;</tspan></text>
<text xml:space="preserve" transform="matrix(1 0 -0 1 -48.765 727.034)" font-size="9.963" font-family="URWPalladioL" font-style="italic"><tspan y="-485.12" x="539.63">i</tspan></text>
<text xml:space="preserve" transform="matrix(1 0 -0 1 -48.765 727.034)" font-size="7.572" font-family="URWPalladioL"><tspan y="-483.031" x="542.524 546.31">2/</tspan></text>
<text xml:space="preserve" transform="matrix(1 0 -0 1 -48.765 727.034)" font-size="7.89" font-family="CMSY10" font-style="italic"><tspan y="-483.031" x="550.993">B</tspan></text>
<text xml:space="preserve" transform="matrix(1 0 -0 1 -48.765 727.034)" font-size="10.381" font-family="CMMI10" font-style="italic"><tspan y="-644.786" x="473.63099">&#x20d7;</tspan></text>
<text xml:space="preserve" transform="matrix(1 0 -0 1 -48.765 727.034)" font-size="9.963" font-family="URWPalladioL" font-style="italic"><tspan y="-642.336" x="475.529">k</tspan></text>
<text xml:space="preserve" transform="matrix(1 0 -0 1 -48.765 727.034)" font-size="9.963" font-family="URWPalladioL"><tspan y="-642.336" x="480.12699">2</tspan></text>
<text xml:space="preserve" transform="matrix(1 0 -0 1 -48.765 727.034)" font-size="10.381" font-family="CMMI10" font-style="italic"><tspan y="-606.349" x="505.373">&#x20d7;</tspan></text>
<text xml:space="preserve" transform="matrix(1 0 -0 1 -48.765 727.034)" font-size="9.963" font-family="URWPalladioL" font-style="italic"><tspan y="-604.063" x="507.301">j</tspan></text>
<text xml:space="preserve" transform="matrix(1 0 -0 1 -48.765 727.034)" font-size="7.89" font-family="CMSY10" font-style="italic"><tspan y="-602.11" x="510.041">B</tspan></text>
<text xml:space="preserve" transform="matrix(1 0 -0 1 -48.765 727.034)" font-size="10.381" font-family="CMMI10" font-style="italic"><tspan y="-617.36898" x="441.84">&#x20d7;</tspan></text>
<text xml:space="preserve" transform="matrix(1 0 -0 1 -48.765 727.034)" font-size="9.963" font-family="URWPalladioL" font-style="italic"><tspan y="-614.91799" x="443.738">k</tspan></text>
<text xml:space="preserve" transform="matrix(1 0 -0 1 -48.765 727.034)" font-size="7.89" font-family="CMSY10" font-style="italic"><tspan y="-612.96597" x="448.53">B</tspan></text>
<text xml:space="preserve" transform="matrix(1 0 -0 1 -48.765 727.034)" font-size="9.963" font-family="PazoMath" font-style="italic"><tspan y="-581.36099" x="511.911">&#x03b8;</tspan><tspan y="-635.219" x="463.72203">&#x03b8;</tspan></text>
<text xml:space="preserve" transform="matrix(1 0 -0 1 -48.765 727.034)" font-size="9.963" font-family="URWPalladioL"><tspan y="-694.694" x="75.321018 81.976299 87.41609 90.66403 95.64553 98.89347 101.7927 107.2325 115.93018 120.91168 124.75746 130.19727 136.20496 142.00342 150.99002 155.97153 159.2892 164.2707 169.41162 172.31085">Rotationaroundz-axis</tspan><tspan y="-696.019" x="245.12001 251.7753 257.2151 260.463 265.44453 268.69245 271.59169 277.03147 285.72914 290.71064 294.55644 299.99623 306.0039 311.80238 320.78898 326.3284 329.6461 334.6276 339.7685 342.66773">Rotationaroundy-axis</tspan><tspan y="-694.694" x="443.745 450.40028 455.84007 459.08799 464.0695 467.3174 470.21665 475.65644 484.3541 489.3356 493.1814 498.6212 504.62889 510.42735 519.41397 524.5549 527.87258 532.85409 537.995 540.8942">Rotationaroundx-axis</tspan><tspan y="-441.563" x="91.99298 97.53241 100.43164 105.97107 111.97876 115.86434 123.535839 128.51734 134.6048 141.25012 147.89545 157.43997 163.52736 169.53505 172.43428 177.20656 184.04114 191.79236 197.59082 203.13025 207.90253 210.80176 217.92539 222.90689 230.03041 233.27835 239.07682 242.96239 247.73467 255.40616 259.63047 265.63816 270.06175 274.48533 279.2576 283.4819 287.7062 290.60545 295.816 303.48759 307.33329 312.77308 316.021 321.0025 324.25044 327.14967 332.58946 338.3879 345.5114 350.49293 354.3387 359.7785 365.7862 371.58467 380.57127 383.81919 389.61766 397.28913 400.18836 405.98683 409.23475 414.00703 418.1119 426.90925 431.68153 437.76893 440.66816 445.64967 448.89759 456.56907 461.55058 464.04133 472.47996 477.46147 483.25993 492.24653 500.28663 505.26814 510.40904 513.3083 517.5326">Figure1:ZYXEulerAngelsasthreesuccessiverotationsaroundtheintermediatez,yandxaxis.</tspan></text>
</g>
</svg>
