<?xml version="1.0" encoding="UTF-8"?>
<svg id="svg4068" xmlns="http://www.w3.org/2000/svg" xmlns:xlink="http://www.w3.org/1999/xlink" xmlns:svg="http://www.w3.org/2000/svg" xmlns:sodipodi="http://sodipodi.sourceforge.net/DTD/sodipodi-0.dtd" xmlns:rdf="http://www.w3.org/1999/02/22-rdf-syntax-ns#" xmlns:inkscape="https://www.inkscape.org/namespaces/inkscape" xmlns:dc="http://purl.org/dc/elements/1.1/" xmlns:cc="http://creativecommons.org/ns#" version="1.1" viewBox="0 0 304.9 290">
  <!-- Generator: Adobe Illustrator 29.2.1, SVG Export Plug-In . SVG Version: 2.1.0 Build 116)  -->
  <defs>
    <style>
      .st0 {
        fill: none;
      }

      .st1, .st2, .st3, .st4, .st5, .st6, .st7 {
        isolation: isolate;
      }

      .st1, .st2, .st6 {
        font-family: Arial-BoldMT, Arial;
        font-weight: 700;
      }

      .st1, .st8 {
        fill: blue;
      }

      .st1, .st6 {
        font-size: 25px;
      }

      .st2, .st7 {
        font-size: 20px;
      }

      .st9 {
        fill: lime;
      }

      .st4 {
        font-size: 15px;
      }

      .st4, .st5, .st7 {
        font-family: ArialMT, Arial;
      }

      .st10, .st6 {
        fill: red;
      }

      .st5 {
        font-size: 8.7px;
      }

      .st11 {
        clip-path: url(#clippath);
      }
    </style>
    <clipPath id="clippath">
      <rect class="st0" x="130.9" y="242.3" width="17.9" height="17.9"/>
    </clipPath>
  </defs>
  <g id="_x3C_defs">
    <inkscape:perspective id="perspective4076" inkscape:persp3d-origin="415.75945 : 10.139493 : 1" inkscape:vp_x="-137.4627 : 248.70217 : 1" inkscape:vp_y="0 : 1779.6316 : 0" inkscape:vp_z="912.24086 : 280.91964 : 1" sodipodi:type="inkscape:persp3d"/>
  </g>
  <sodipodi:namedview id="base" bordercolor="#666666" borderopacity="1.0" inkscape:current-layer="layer1" inkscape:cx="225" inkscape:cy="150" inkscape:document-units="px" inkscape:pageopacity="0.0" inkscape:pageshadow="2" inkscape:window-height="756" inkscape:window-maximized="0" inkscape:window-width="1031" inkscape:window-x="0" inkscape:window-y="0" inkscape:zoom="1.8033333" pagecolor="#ffffff" showgrid="false"/>
  <g class="st3">
    <text class="st4" transform="translate(93.2 110.6)"><tspan x="0" y="0">θ</tspan></text>
  </g>
  <g>
    <polygon points="68.8 119.6 68.5 120.6 137.5 143.5 242 126.9 242 124.8 156.9 108.1 68.7 118.6 68.5 120.6 68.8 119.6 68.9 120.7 156.9 110.2 235.9 125.7 137.6 141.4 69.1 118.7 68.8 119.6 68.9 120.7 68.8 119.6"/>
    <polygon points="137.6 142.4 136.5 142.4 136.5 235.5 242.9 206 242.9 124.6 136.5 141.5 136.5 142.4 137.6 142.4 137.7 143.5 240.8 127 240.8 204.4 138.6 232.8 138.6 142.4 137.6 142.4 137.7 143.5 137.6 142.4"/>
    <polygon points="68.8 119.6 68.5 120.6 136.5 143.2 136.5 232.2 69.8 187.9 69.8 119.6 68.8 119.6 68.5 120.6 68.8 119.6 67.8 119.6 67.8 189 138.6 236.1 138.6 141.7 67.8 118.2 67.8 119.6 68.8 119.6"/>
    <polygon points="70 119.5 71 119.9 98 66.6 96.1 65.7 69.1 119 71 119.9 70 119.5 71 119.9 98 66.6 96.1 65.7 69.1 119 71 119.9 70 119.5"/>
    <polygon points="156.6 107.6 157.5 108.1 184.5 54.8 182.7 53.9 155.6 107.1 157.5 108.1 156.6 107.6 157.5 108.1 184.5 54.8 182.7 53.9 155.6 107.1 157.5 108.1 156.6 107.6"/>
    <polyline points="95.8 66.2 183.7 55.4 183.5 53.3 95.6 64.2"/>
    <polygon class="st8" points="69.5 119.5 122.6 113.3 122.6 112.3 109.4 108.4 109.1 109.4 120 112.6 69.4 118.5 69.5 119.5"/>
    <polygon class="st8" points="54 140.8 54.4 152.6 55.3 152.8 70.4 118.5 69.5 118.1 55.3 150.4 55 140.7 54 140.8"/>
    <path d="M90.9,125.4c.2-3.3.4-6.4.4-9.3,0-7.7-1.2-14.2-6-20.5l-.4.3-.2.5,6.1,2.8.4-.9-6.1-2.8-.6.8c4.7,6,5.8,12.2,5.8,19.8s-.2,5.9-.4,9.2h1,0Z"/>
    <g class="st11">
      <g class="st3">
        <text class="st6" transform="translate(130.9 260.2)"><tspan x="0" y="0">A</tspan></text>
      </g>
    </g>
    <g class="st3">
      <text class="st1" transform="translate(18.4 122.6)"><tspan x="0" y="0">B</tspan></text>
    </g>
    <g class="st3">
      <text class="st7" transform="translate(196.9 237.8)"><tspan x="0" y="0">d</tspan></text>
    </g>
    <g class="st3">
      <text class="st7" transform="translate(83.6 225.9)"><tspan x="0" y="0">d</tspan></text>
    </g>
    <polygon class="st10" points="137.7 234.2 198.5 218 183.2 211.8 182.8 212.7 195.3 217.8 137.4 233.2 137.7 234.2"/>
    <polygon class="st10" points="138 234.1 138.1 171.1 128.2 184.3 128.9 184.9 137.1 174.1 137 234.1 138 234.1"/>
    <polygon class="st10" points="101.4 198.7 85 199.6 137.3 234.5 137.9 233.7 88 200.4 101.5 199.7 101.4 198.7"/>
    <polygon class="st8" points="69.3 119.4 50.6 87 49.6 87.3 50.5 99.1 51.5 99 50.8 89.4 68.4 119.9 69.3 119.4"/>
    <g class="st3">
      <text class="st4" transform="translate(153.2 219.2)"><tspan x="0" y="0">a</tspan></text>
    </g>
    <g class="st3">
      <text class="st5" transform="translate(160.4 224.2)"><tspan x="0" y="0">x</tspan></text>
    </g>
    <g class="st3">
      <text class="st4" transform="translate(112 212.9)"><tspan x="0" y="0">a</tspan></text>
    </g>
    <g class="st3">
      <text class="st5" transform="translate(119.3 217.9)"><tspan x="0" y="0">y</tspan></text>
    </g>
    <g class="st3">
      <text class="st4" transform="translate(124.4 198.7)"><tspan x="0" y="0">a</tspan></text>
    </g>
    <g class="st3">
      <text class="st5" transform="translate(131.6 203.7)"><tspan x="0" y="0">z</tspan></text>
    </g>
    <g class="st3">
      <text class="st4" transform="translate(59.5 95.5)"><tspan x="0" y="0">b</tspan></text>
    </g>
    <g class="st3">
      <text class="st5" transform="translate(68 100.5)"><tspan x="0" y="0">z</tspan></text>
    </g>
    <g class="st3">
      <text class="st4" transform="translate(36.8 147.3)"><tspan x="0" y="0">b</tspan></text>
    </g>
    <g class="st3">
      <text class="st5" transform="translate(45.4 152.3)"><tspan x="0" y="0">y</tspan></text>
    </g>
    <g class="st3">
      <text class="st4" transform="translate(112 128.1)"><tspan x="0" y="0">b</tspan></text>
    </g>
    <g class="st3">
      <text class="st5" transform="translate(120.6 133.1)"><tspan x="0" y="0">x</tspan></text>
    </g>
    <g class="st3">
      <text class="st7" transform="translate(246.6 176.6)"><tspan x="0" y="0">d</tspan></text>
    </g>
    <g class="st3">
      <text class="st2" transform="translate(192.4 54.3)"><tspan x="0" y="0">p</tspan></text>
    </g>
    <path class="st9" d="M138.5,234.4l45.4-177.3c.1-.5-.2-1.1-.7-1.2-.5,0-1.1.2-1.2.7l-45.4,177.3c-.1.5.2,1.1.7,1.2.5.1,1.1-.2,1.2-.7"/>
    <path class="st9" d="M188.9,72.5c-.5.2-1.1,0-1.3-.6l-4.8-14.5-11.2,10.5c-.4.4-1,.4-1.4,0s-.4-1,0-1.4l12.3-11.5c.2-.2.6-.3.9-.2s.6.3.7.7l5.2,16v.6c0,.3-.3.6-.7.7l.3-.3Z"/>
  </g>
</svg>