<?xml version="1.0" encoding="UTF-8"?>
<svg id="Layer_1" data-name="Layer 1" xmlns="http://www.w3.org/2000/svg" xmlns:xlink="http://www.w3.org/1999/xlink" viewBox="0 0 464 459">
  <defs>
    <style>
      .cls-1 {
        fill: none;
      }

      .cls-2, .cls-3 {
        fill: #231f20;
      }

      .cls-4 {
        clip-path: url(#clippath-1);
      }

      .cls-3 {
        fill-rule: evenodd;
      }

      .cls-5 {
        clip-path: url(#clippath);
      }
    </style>
    <clipPath id="clippath">
      <rect class="cls-1" width="464" height="459"/>
    </clipPath>
    <clipPath id="clippath-1">
      <rect class="cls-1" width="464" height="459"/>
    </clipPath>
  </defs>
  <path class="cls-2" d="M162.17,431.62l-48.88-31.75.34-.53v-15.17l-.12-.07.63-.3,49.3-23.76.33.68-48.67,23.45,47.32,28.04,128.74-74.41-27.38-16.9.39-.64,28.45,17.56-.36.21v12.3l-.18.11-129.91,81.18ZM162.55,413v17.5l128.96-80.59v-11.45l-128.96,74.54ZM114.39,399.69l47.41,30.8v-17.77l-47.41-28.1v15.07ZM206.29,364.42c-.55,0-1.1-.01-1.65-.04-6.15-.27-11.34-2.09-13.22-4.64l.6-.45.08.1.11-.12-79.47-.62.58-31.7h0l.02-1.03h.03s.76-14.83.76-14.83l.32-.03c.29-.03,28.92-2.74,31.25-3.32l.18.73c-2.27.57-27.7,2.99-31.04,3.31l-.73,14.31,23.03-3.09,7.99-1.28.17-.72,54.05,12.48,1.29,1.18.18-4.28.75.03-.2,4.62-.35-.02,25.1,23.01.31-3.99-21.81-19.46.5-.56,9.93,8.86,28.96-134.64.73.16-22.97,106.8,32.95.25,7.85,18.77.44,9.64v-22.61l-7.66-17.5-.5,11.51-.75-.03.55-12.67-30.02.17v-.75s30.05-.17,30.05-.17v-.24s.76.03.76.03l-.02.45,8.34,19.13v26.14h-.59l.02.38-34.85-.6v-.75s34.06.59,34.06.59l-.57-12.6-7.6-18.12-32.61-.25-2.78,12.92.43.03-.19,3.03,14.39.4.2-14.4h-12.21v-.75h12.97l-.22,15.92-15.92-.45.11-1.73-1.54,7.16,10.46,9.29.23-2.07-10.01-9.1.5-.55,10.29,9.36-.42,3.89-.26-.23-.08.69-6.02-.69,5.67,5.06-.41,5.27-.46-.04v.58s-3.94-.03-3.94-.03l.33.51c-4.31,2.82-10.23,4.39-16.45,4.39ZM192.31,359.64c3.86,4.31,18.47,6.02,28.38.73-7.48,2.98-22.59,3.86-28.38-.73ZM193.09,359.29c4.94,3.4,18.96,4.11,27.74.22l-27.74-.22ZM221.68,359.51l.11.23c.12-.07.24-.15.36-.22h-.47ZM225.98,358.8h.09s0-.1,0-.1l-.1.1ZM113.5,357.91l112.34.88-26.86-24.62-53.13-12.27.07.45-8.68,1.39-23.18,3.11-.57,31.06ZM220.8,347.84l6.77.78-10.89-9.68-.9,4.17-.63-.14,5.63,5.02.02-.16ZM261.89,345.83l-25.64-.58v-28.07l17.7.12,7.39,17.1.56,11.43ZM236.99,344.52l24.11.54-.52-10.55-7.13-16.46-16.46-.11v.26l16.4.14,6.39,15.34-22.67-.56-.12-12.45v23.86ZM237.85,332.38l20.79.52-5.75-13.81-15.16-.13.12,13.43ZM208.41,336.43l-.73-.17,1.16-5.12-.28.31-3.33-2.94.5-.56,3.19,2.82,3.37-14.9-34.9-.44,25,6,7.12,6.47-.5.55-7.07-6.37-.15,3.33-.75-.03.15-3.47-28.77-6.9.17-.73,1.46.35.33-1.6.71.15v-.24s36.59.13,36.59.13l2.02-10.89v-.14s1.63,0,1.63,0v.27s18.57-82.17,18.57-82.17l.73.17-26.24,116.13ZM174.83,314.65l37.62.48v.03s.3-1.33.3-1.33l-37.64-.13v-.4s-.28,1.36-.28,1.36ZM212.46,313.07h.46s2.33-10.29,2.33-10.29h-.87s-1.91,10.29-1.91,10.29ZM261.46,331.37l-6.44-15.23v-.08s.43-10.04.43-10.04l.72-.13,6.22,14.59-.21,10.76-.72.14ZM255.78,316l5.69,13.46.17-8.83-5.51-12.92-.36,8.3ZM148.24,318l-.64-.4,95.19-152.42.16.1,63.62-96.54.07.05c1.31-1.63,5.17-4.67,9.25-7.89,2.08-1.64,4.22-3.33,5.92-4.76,4.24-2.97,7.03-3.74,8.54-2.34-.09-1.15-.48-1.89-1.16-2.22-.94-.45-2.97-.35-7.26,2.65l-15.31,12.86-.48-.57,15.33-12.88c.94-.66,1.82-1.22,2.64-1.66l.03-4.83c.62-1.48,1.31-2.26,2.12-2.39.67-.1,1.34.26,2.02,1.07l-.28.24h.35v4.57c.28,0,.55.05.79.12.97-3.27,1.92-7.03,1.4-8.9l-.14.12c-.81-.93-3.05.64-7.5,3.76l-15.31,12.86-.48-.57,15.33-12.88c4.05-2.84,6.23-4.36,7.58-4.18l-.08-.06c-.74-.53-2.6-.49-7.23,2.75l-15.03,12.6-.48-.58,15.06-12.62c4.15-2.9,6.72-3.77,8.13-2.77,1.91,1.38.88,5.96-.53,10.7l-.42-.12.08.04c.94.45,1.49,1.44,1.59,2.87l-.73.05.13.13c3.84,4.17-4.82,22.97-5.39,23.66l-.58-.48c.61-.74,8.79-19.01,5.42-22.67-1.14-1.24-3.8-.45-7.69,2.27-1.68,1.42-3.83,3.11-5.91,4.75-4.12,3.25-8.38,6.61-9.32,8.03l-.05-.04-63.54,96.43-.15-.1-95.04,152.19ZM324.86,47.37v4.22c1.03-.5,1.95-.81,2.74-.92v-4.49c-.46-.51-.87-.74-1.23-.69-.5.08-1.02.72-1.51,1.86ZM253.37,314.5l-27.55-.42,2.04-10.19,25.65-.28-.15,10.88ZM226.74,313.35l25.89.39.13-9.36-24.28.26-1.74,8.71ZM243.95,155.42l-.83-.26.23-.71.83.26-.23.71Z"/>
  <path class="cls-2" d="M326.45,61.2c-.45,0-.89-.11-1.29-.33-.69-.37-1.22-1.04-1.44-1.83l-.04-.22-.04-.19c-.24-1.6.74-3.11,2.22-3.45.7-.16,1.43-.04,2.06.36.67.42,1.15,1.13,1.33,1.93.33,1.56-.53,3.13-1.96,3.59-.27.09-.55.13-.82.13ZM326.45,58.26h0s0-.18,0-.18v-.02s-.02.16-.02.16v.04Z"/>
  <rect class="cls-2" x="-3.79" y="410.1" width="123.94" height=".75" transform="translate(-169.03 63.7) rotate(-25.17)"/>
  <polygon class="cls-3" points="8.88 433.63 10.32 429.64 2.09 436.82 12.87 435.07 8.88 433.63"/>
  <g class="cls-5">
    <path class="cls-2" d="M.77,437.44l10.45-9.12-1.83,5.07,5.07,1.83-13.69,2.22ZM9.42,430.96l-6.01,5.24,7.87-1.28-2.91-1.05,1.05-2.92Z"/>
  </g>
  <rect class="cls-2" x="323.8" y="320.08" width=".75" height="77.11" transform="translate(-151.66 444.01) rotate(-58.06)"/>
  <polygon class="cls-3" points="350.53 375.06 346.4 376.02 356.9 379.03 349.57 370.93 350.53 375.06"/>
  <path class="cls-2" d="M358.13,379.8l-13.33-3.82,5.25-1.22-1.22-5.25,9.3,10.29ZM347.99,376.06l7.67,2.2-5.35-5.92.7,3.02-3.02.7Z"/>
  <rect class="cls-2" x="244.92" y="243.54" width=".75" height="56.65"/>
  <polygon class="cls-3" points="245.29 251.03 248.29 254.03 245.29 243.53 242.29 254.03 245.29 251.03"/>
  <path class="cls-2" d="M249.1,255.41l-3.81-3.81-3.81,3.81,3.81-13.33,3.81,13.33ZM245.29,250.47l2.19,2.19-2.19-7.67-2.19,7.67,2.19-2.19Z"/>
  <g class="cls-4">
    <path class="cls-2" d="M207.24,458.35h-.75v-54h.75v54ZM207.06,336.24h-.75s.19-75.05.19-75.05h.75s-.19,75.05-.19,75.05ZM206.72,216.3h-.75s.52-86.7.52-86.7h.75s-.52,86.7-.52,86.7Z"/>
  </g>
  <polygon class="cls-3" points="206.82 137.1 209.8 140.12 206.87 129.6 203.8 140.09 206.82 137.1"/>
  <path class="cls-2" d="M210.6,141.5l-3.79-3.83-3.83,3.79,3.89-13.31,3.73,13.35ZM206.82,136.54l2.18,2.21-2.15-7.68-2.24,7.66,2.2-2.18Z"/>
  <rect class="cls-2" x="341.87" y="233.37" width=".75" height="239.49" transform="translate(-13 693.15) rotate(-89.64)"/>
  <polygon class="cls-3" points="454.48 353.82 451.47 356.8 461.98 353.86 451.5 350.8 454.48 353.82"/>
  <path class="cls-2" d="M450.08,357.6l3.83-3.78-3.79-3.83,13.31,3.89-13.36,3.72ZM452.87,351.61l2.18,2.21-2.21,2.18,7.68-2.14-7.66-2.24Z"/>
  <path class="cls-2" d="M205.01,334.76l-4.16-3.71-56.7-13.12.09-.38h-.22s.45-7.11.45-7.11h.22s.09-.34.09-.34l2.69.7-.19.73-2.1-.55-.4,6.32,56.5,13.12,4.23,3.78-.5.56ZM205.2,328.29l-4.03-2.68-30.56-7.99.19-.73,30.73,8.05,4.08,2.72-.42.62ZM148.07,309.62l-3.17-.75.17-.73,3.17.75-.17.73Z"/>
  <path class="cls-2" d="M150.09,344.61c-3.15,0-6.04-1.51-7.06-3.88-.08-.19,0-.41.2-.5.19-.08.41,0,.5.2,1.1,2.55,4.71,3.97,8.22,3.23,1.96-.41,3.54-1.43,4.33-2.8.55-.96.67-1.99.34-3-.84-2.59-4.29-4.2-7.86-3.66-2.02.3-3.71,1.25-4.64,2.61-.63.92-.84,1.93-.62,2.94.05.2-.08.41-.29.45-.2.04-.41-.08-.45-.29-.27-1.22-.02-2.44.73-3.53,1.04-1.52,2.92-2.59,5.15-2.93,3.93-.6,7.74,1.24,8.69,4.17.4,1.22.25,2.47-.41,3.61-.9,1.56-2.67,2.71-4.83,3.16-.67.14-1.34.21-2,.21Z"/>
  <path class="cls-2" d="M149.95,345.6c-3.72,0-7.13-1.78-8.33-4.58-.07-.16,0-.34.17-.41s.35,0,.41.17c1.34,3.11,5.72,4.86,9.99,3.96,2.38-.5,4.3-1.75,5.27-3.42.69-1.18.84-2.47.43-3.72-1.03-3.17-5.23-5.14-9.56-4.48-2.45.37-4.51,1.53-5.64,3.18-.78,1.13-1.04,2.39-.76,3.64.04.17-.07.34-.24.38-.16.04-.34-.07-.38-.24-.32-1.43-.02-2.86.86-4.14,1.23-1.79,3.44-3.05,6.06-3.45,4.63-.7,9.14,1.46,10.25,4.91.46,1.43.29,2.89-.48,4.23-1.06,1.83-3.14,3.19-5.69,3.72-.79.17-1.58.24-2.36.24Z"/>
  <path class="cls-2" d="M208.19,353.91c-2.03,0-3.9-.98-4.56-2.5-.04-.1-.04-.2,0-.29-.08-.05-.15-.13-.17-.24-.18-.8-.01-1.59.48-2.3.68-.98,1.89-1.67,3.33-1.89,2.53-.38,4.99.81,5.61,2.69.26.79.16,1.62-.27,2.36-.59,1.01-1.73,1.75-3.13,2.04-.43.09-.86.13-1.28.13ZM204.17,350.93l.15.17c.65,1.5,2.89,2.38,5,1.93,1.19-.25,2.15-.86,2.63-1.68.32-.56.39-1.16.2-1.75-.5-1.52-2.64-2.5-4.78-2.18-1.23.19-2.26.76-2.82,1.57-.37.54-.49,1.13-.36,1.72l-.02.22Z"/>
  <path class="cls-2" d="M208.1,354.5c-2.38,0-4.56-1.14-5.33-2.92-.06-.13-.02-.28.09-.37-.14,0-.25-.11-.29-.25-.2-.92-.01-1.84.55-2.66.79-1.15,2.21-1.95,3.89-2.21,2.96-.44,5.84.93,6.56,3.14.3.92.19,1.86-.31,2.72-.68,1.17-2.01,2.04-3.65,2.38-.5.1-1.01.15-1.5.15ZM203.07,351.14c.11,0,.22.08.27.19.8,1.86,3.56,2.93,6.14,2.4,1.47-.3,2.65-1.06,3.24-2.08.41-.7.5-1.47.25-2.21-.62-1.89-3.25-3.11-5.87-2.71-1.51.23-2.78.93-3.47,1.94-.46.68-.62,1.43-.45,2.17.03.12-.02.24-.11.31Z"/>
  <rect class="cls-2" x="314.26" y="25.65" width="56.06" height=".75" transform="translate(136.68 300.91) rotate(-57.55)"/>
  <polygon class="cls-3" points="353.3 8.69 354.22 12.83 357.32 2.36 349.16 9.62 353.3 8.69"/>
  <path class="cls-2" d="M354.17,14.43l-1.17-5.26-5.26,1.18,10.36-9.21-3.93,13.29ZM353.6,8.21l.68,3.03,2.26-7.65-5.96,5.3,3.02-.68Z"/>
  <rect class="cls-2" x="88.55" y="251.37" width=".75" height="88.13" transform="translate(-205.38 202.84) rotate(-55.78)"/>
  <polygon class="cls-3" points="58.69 274.88 62.86 274.08 52.49 270.66 59.48 279.04 58.69 274.88"/>
  <path class="cls-2" d="M60.17,280.48l-8.88-10.65,13.16,4.34-5.29,1.01,1.01,5.29ZM53.69,271.47l5.11,6.13-.58-3.04,3.05-.58-7.58-2.5Z"/>
  <polygon class="cls-2" points="7.96 448.12 11.38 443.82 9.67 443.82 7.2 447.12 4.74 443.82 2.88 443.82 6.26 448.2 2.85 452.55 4.56 452.55 7.06 449.2 9.53 452.55 11.38 452.55 7.96 448.12"/>
  <path class="cls-2" d="M17.15,449.01c-.42-.65-1.08-.98-1.99-.98s-1.56.32-1.98.96c-.42.64-.63,1.63-.63,2.98s.21,2.32.63,2.97c.42.64,1.08.96,1.99.96s1.55-.32,1.98-.95.64-1.63.64-2.99-.21-2.3-.63-2.95ZM15.96,454.87c-.21.13-.47.2-.79.2-.34,0-.61-.07-.82-.21-.2-.14-.36-.34-.47-.6-.12-.28-.2-.6-.24-.95-.04-.36-.06-.8-.06-1.33,0-.48.02-.92.06-1.33.04-.4.12-.73.24-.98.12-.27.29-.47.5-.6.21-.13.47-.2.79-.2s.58.07.79.2c.2.13.37.33.48.59.12.26.2.59.25.96.04.38.06.83.06,1.34s-.02.97-.06,1.34c-.04.37-.12.69-.24.97-.12.27-.28.47-.49.6Z"/>
  <polygon class="cls-2" points="361.26 385.08 358.56 391.55 355.88 385.08 354.29 385.08 357.76 393.39 356.14 397.03 357.71 397.03 362.8 385.08 361.26 385.08"/>
  <path class="cls-2" d="M368.58,390.27c-.42-.65-1.08-.98-1.99-.98s-1.56.32-1.98.96c-.42.64-.63,1.63-.63,2.98s.21,2.32.63,2.97c.42.64,1.08.96,1.99.96s1.55-.32,1.98-.95c.42-.63.64-1.63.64-2.99s-.21-2.3-.63-2.95ZM367.38,396.13c-.21.13-.47.2-.79.2-.34,0-.61-.07-.82-.21-.2-.14-.36-.34-.47-.6-.12-.28-.2-.6-.24-.95s-.06-.8-.06-1.33c0-.48.02-.92.06-1.33.04-.4.12-.73.24-.98.12-.27.29-.47.5-.6.21-.13.47-.2.79-.2s.58.07.79.2c.2.13.37.33.48.59.12.26.2.59.25.96.04.38.06.83.06,1.34s-.02.97-.06,1.34c-.04.37-.12.69-.24.97-.12.27-.28.47-.49.6Z"/>
  <polygon class="cls-2" points="259.77 255.19 254.53 255.19 259.64 248.75 259.64 247.7 252.83 247.7 252.83 248.93 257.81 248.93 252.72 255.34 252.72 256.43 259.77 256.43 259.77 255.19"/>
  <path class="cls-2" d="M265.7,252.89c-.42-.65-1.08-.98-1.99-.98s-1.56.32-1.98.96c-.42.64-.63,1.63-.63,2.98s.21,2.32.63,2.97c.42.64,1.08.96,1.99.96s1.55-.32,1.98-.95c.42-.63.64-1.63.64-2.99s-.21-2.3-.63-2.95ZM264.51,258.75c-.21.13-.47.2-.79.2-.34,0-.61-.07-.82-.21-.2-.14-.36-.34-.47-.6-.12-.28-.2-.6-.24-.95-.04-.36-.06-.8-.06-1.33,0-.48.02-.92.06-1.33.04-.4.12-.73.24-.98.12-.27.29-.47.5-.6.21-.13.47-.2.79-.2s.58.07.79.2c.2.13.37.33.48.59.12.26.2.59.25.96.04.38.06.83.06,1.34s-.02.97-.06,1.34c-.04.37-.12.69-.24.97-.12.27-.28.47-.49.6Z"/>
  <polygon class="cls-2" points="294.06 365.82 297.49 361.52 295.77 361.52 293.3 364.82 290.84 361.52 288.99 361.52 292.36 365.9 288.96 370.25 290.67 370.25 293.16 366.9 295.64 370.25 297.49 370.25 294.06 365.82"/>
  <path class="cls-2" d="M303.46,372.68h-1.54v-6.81h-.79c-.01.22-.07.4-.15.53-.09.13-.21.24-.37.32-.13.07-.31.12-.55.15-.24.04-.47.05-.69.05v.69h1.57v5.07h-1.57v.77h4.09v-.77Z"/>
  <polygon class="cls-2" points="223.64 139.11 218.4 139.11 223.51 132.67 223.51 131.62 216.71 131.62 216.71 132.85 221.68 132.85 216.6 139.26 216.6 140.35 223.64 140.35 223.64 139.11"/>
  <path class="cls-2" d="M229.78,142.78h-1.54v-6.81h-.79c-.01.22-.07.4-.15.53-.09.13-.21.24-.37.32-.13.07-.31.12-.55.15-.24.04-.47.05-.69.05v.69h1.57v5.07h-1.57v.77h4.09v-.77Z"/>
  <polygon class="cls-2" points="129.68 433.37 124.44 433.37 129.55 426.93 129.55 425.88 122.75 425.88 122.75 427.11 127.72 427.11 122.64 433.52 122.64 434.61 129.68 434.61 129.68 433.37"/>
  <path class="cls-2" d="M136.25,436.94h-4.07c.34-.28.7-.59,1.08-.93.39-.33.76-.68,1.12-1.03.25-.25.47-.47.65-.68s.33-.41.46-.62c.14-.22.25-.46.32-.71.07-.25.11-.52.11-.8,0-.64-.22-1.15-.66-1.52-.44-.37-1.05-.56-1.82-.56-.38,0-.76.05-1.17.15-.4.1-.72.21-.96.32v1.07h.05c.34-.22.69-.39,1.05-.5.36-.11.69-.16,1-.16.46,0,.83.11,1.08.33.26.22.39.53.39.92,0,.43-.12.83-.36,1.2-.24.37-.69.87-1.34,1.5-.31.3-.64.6-1,.91-.36.3-.71.61-1.07.91v1.06h5.12v-.87Z"/>
  <polygon class="cls-2" points="64.22 254.05 61.52 260.52 58.84 254.05 57.25 254.05 60.72 262.35 59.1 265.99 60.67 265.99 65.76 254.05 64.22 254.05"/>
  <path class="cls-2" d="M72.18,265.11h-4.07c.34-.28.7-.59,1.08-.93.39-.33.76-.68,1.12-1.03.25-.25.47-.47.65-.68s.33-.41.46-.62c.14-.22.25-.46.32-.71.07-.25.11-.52.11-.8,0-.64-.22-1.15-.66-1.52-.44-.37-1.05-.56-1.82-.56-.38,0-.76.05-1.17.15-.4.1-.72.21-.96.32v1.07h.05c.34-.22.69-.39,1.05-.5.36-.11.69-.16,1-.16.46,0,.83.11,1.08.33.26.22.39.53.39.92,0,.43-.12.83-.36,1.2-.24.37-.69.87-1.34,1.5-.31.3-.64.6-1,.91s-.71.61-1.07.91v1.06h5.12v-.87Z"/>
  <polygon class="cls-2" points="360.83 20.45 364.26 16.16 362.54 16.16 360.07 19.45 357.61 16.16 355.76 16.16 359.13 20.53 355.73 24.88 357.44 24.88 359.93 21.53 362.41 24.88 364.26 24.88 360.83 20.45"/>
  <path class="cls-2" d="M370.66,27.21h-4.07c.34-.28.7-.59,1.08-.93.39-.33.76-.68,1.12-1.03.25-.25.47-.47.65-.68s.33-.41.46-.62c.14-.22.25-.46.32-.71.07-.25.11-.52.11-.8,0-.64-.22-1.15-.66-1.52s-1.05-.56-1.82-.56c-.38,0-.76.05-1.17.15-.4.1-.72.21-.96.33v1.07h.05c.34-.22.69-.39,1.05-.5.36-.11.69-.16,1-.16.46,0,.83.11,1.08.33.26.22.39.53.39.92,0,.43-.12.83-.36,1.2s-.69.87-1.34,1.5c-.31.3-.64.6-1,.91s-.71.61-1.07.91v1.06h5.12v-.87Z"/>
  <path class="cls-2" d="M171.85,386.27h-1.38l-.09.38c-.38-.2-.74-.36-1.11-.46-.36-.1-.78-.16-1.25-.16-.52,0-1.01.1-1.47.31-.46.21-.87.5-1.21.88-.35.39-.64.87-.86,1.45-.22.58-.32,1.24-.32,1.99,0,1.41.31,2.51.93,3.31.62.8,1.44,1.2,2.48,1.2.52,0,1.01-.1,1.45-.29.45-.19.9-.48,1.35-.87v4.2h1.47v-11.95ZM169.19,393.49c-.43.18-.85.28-1.28.28-.77,0-1.33-.27-1.68-.82-.36-.55-.54-1.33-.54-2.36s.22-1.8.66-2.38c.44-.58,1.09-.86,1.94-.86.36,0,.7.04,1.02.11.31.07.67.2,1.08.38v4.94c-.37.29-.77.53-1.2.71Z"/>
  <path class="cls-2" d="M178.8,397.43h-1.54v-6.81h-.79c-.01.22-.07.4-.15.53-.09.13-.21.24-.37.32-.13.07-.31.12-.55.15-.24.04-.47.05-.69.05v.69h1.57v5.07h-1.57v.77h4.09v-.77Z"/>
  <path class="cls-2" d="M385.25,226.19h-1.38l-.09.38c-.38-.2-.74-.36-1.11-.46-.36-.1-.78-.16-1.25-.16-.52,0-1.01.1-1.47.31-.46.21-.87.5-1.21.88-.35.39-.64.87-.86,1.45-.22.58-.32,1.24-.32,1.99,0,1.41.31,2.51.93,3.31.62.8,1.44,1.2,2.48,1.2.52,0,1.01-.1,1.45-.29.45-.19.9-.48,1.35-.87v4.2h1.47v-11.95ZM382.58,233.41c-.43.18-.85.28-1.28.28-.77,0-1.33-.27-1.68-.82-.36-.55-.54-1.33-.54-2.36s.22-1.8.66-2.38c.44-.58,1.09-.86,1.94-.86.36,0,.7.04,1.02.11.31.07.67.2,1.08.38v4.94c-.37.29-.77.53-1.2.71Z"/>
  <path class="cls-2" d="M392.63,237.25h-4.07c.34-.28.7-.59,1.08-.93.39-.33.76-.68,1.12-1.03.25-.25.47-.47.65-.68s.33-.41.46-.62c.14-.22.25-.46.32-.71.07-.25.11-.52.11-.8,0-.64-.22-1.15-.66-1.52-.44-.37-1.05-.56-1.82-.56-.38,0-.76.05-1.17.15-.4.1-.72.21-.96.33v1.07h.05c.34-.22.69-.39,1.05-.5.36-.11.69-.16,1-.16.46,0,.83.11,1.08.33.26.22.39.53.39.92,0,.43-.12.83-.36,1.2s-.69.87-1.34,1.5c-.31.3-.64.6-1,.91s-.71.61-1.07.91v1.06h5.12v-.87Z"/>
  <path class="cls-2" d="M169.51,382.6c-11.85,0-25.53-1.15-41.6-3.82l.12-.74c66.84,11.11,92.2-4.2,116.74-19.01,3.35-2.02,6.81-4.11,10.33-6.1l.37.65c-3.51,1.99-6.96,4.07-10.31,6.09-18.75,11.32-37.99,22.93-75.65,22.93ZM167.38,321.76l-.63-.41,157.91-244.41.63.41-157.92,244.41ZM145.7,314.31l-.63-.4L307.27,55.61l.63.4-162.21,258.3ZM306.85,66.58l-.75-.08.84-8.29.75.08-.03.25.16-.35,5.41,2.46-.31.68-5.3-2.41-.78,7.66Z"/>
  <polygon class="cls-3" points="248.76 356.95 247.63 361.04 255.28 353.25 244.67 355.82 248.76 356.95"/>
  <path class="cls-2" d="M246.83,362.42l1.43-5.19-5.2-1.43,13.48-3.26-9.72,9.88ZM246.26,355.85l2.99.82-.83,2.99,5.59-5.69-7.75,1.87Z"/>
  <path class="cls-2" d="M400.52,352.53l-.04-.34c-4.54-40.72-9.24-82.83-112.71-215.22l.59-.46c103.61,132.56,108.31,174.77,112.86,215.6l.04.34-.75.08Z"/>
  <polygon class="cls-3" points="292.68 142.66 296.9 143.17 288.07 136.75 292.17 146.87 292.68 142.66"/>
  <path class="cls-2" d="M292.38,148.45l-5.21-12.85,11.21,8.16-5.34-.65-.65,5.35ZM288.96,137.89l3,7.39.38-3.07,3.08.38-6.45-4.69Z"/>
  <path class="cls-2" d="M348.66,45.03c-.24-.44-.58-.81-1.03-1.11-.38-.25-.8-.43-1.29-.55s-1.08-.18-1.77-.18h-3.16v11.63h1.55v-4.34h1.55c.83,0,1.52-.1,2.07-.3.55-.2,1.02-.5,1.42-.9.32-.32.57-.7.75-1.14.18-.44.27-.92.27-1.43,0-.68-.12-1.24-.36-1.68ZM347.26,47.68c-.1.28-.27.54-.52.79-.24.24-.56.42-.95.54-.39.11-.9.17-1.52.17h-1.3v-4.65h1.53c.49,0,.89.04,1.21.11s.61.19.86.35c.29.19.5.43.64.73s.21.65.21,1.05c0,.34-.05.65-.15.93Z"/>
  <polygon class="cls-2" points="142.74 440.04 141.99 439.99 149.48 339.04 150.23 339.09 142.74 440.04"/>
  <polygon class="cls-3" points="142.92 432.54 140.15 429.32 142.36 440.02 146.13 429.77 142.92 432.54"/>
  <path class="cls-2" d="M142.25,441.47l-2.81-13.57,3.52,4.08,4.08-3.52-4.78,13.01ZM140.85,430.75l1.62,7.81,2.75-7.48-2.34,2.02-2.02-2.35Z"/>
</svg>