<?xml version="1.0" encoding="UTF-8"?>
<svg id="Layer_1" data-name="Layer 1" xmlns="http://www.w3.org/2000/svg" xmlns:xlink="http://www.w3.org/1999/xlink" viewBox="0 0 247 344">
  <defs>
    <style>
      .cls-1 {
        fill: none;
      }

      .cls-2, .cls-3 {
        fill: #231f20;
      }

      .cls-4 {
        clip-path: url(#clippath-1);
      }

      .cls-5 {
        clip-path: url(#clippath-2);
      }

      .cls-3 {
        fill-rule: evenodd;
      }

      .cls-6 {
        clip-path: url(#clippath);
      }
    </style>
    <clipPath id="clippath">
      <rect class="cls-1" width="247" height="344"/>
    </clipPath>
    <clipPath id="clippath-1">
      <rect class="cls-1" width="247" height="344"/>
    </clipPath>
    <clipPath id="clippath-2">
      <rect class="cls-1" width="247" height="344"/>
    </clipPath>
  </defs>
  <rect class="cls-2" x="52.07" y="6.34" width=".75" height="314.16"/>
  <polygon class="cls-3" points="52.44 13.84 55.44 16.84 52.44 6.34 49.44 16.84 52.44 13.84"/>
  <path class="cls-2" d="M56.25,18.21l-3.81-3.81-3.81,3.81,3.81-13.33,3.81,13.33ZM52.44,13.27l2.19,2.19-2.19-7.67-2.19,7.67,2.19-2.19Z"/>
  <g class="cls-6">
    <rect class="cls-2" x="122.13" y="69.41" width=".75" height="267.12" transform="translate(-112.72 232.48) rotate(-66.04)"/>
  </g>
  <polygon class="cls-3" points="237.69 254.16 233.74 255.69 244.55 257.21 236.17 250.2 237.69 254.16"/>
  <path class="cls-2" d="M245.88,257.8l-13.73-1.93,5.02-1.93-1.93-5.03,10.64,8.89ZM235.32,255.51l7.9,1.11-6.12-5.12,1.11,2.89-2.89,1.11Z"/>
  <rect class="cls-2" x="-1.06" y="157.95" width="220.34" height=".75" transform="translate(-33.53 29.38) rotate(-13.31)"/>
  <polygon class="cls-3" points="209 134.63 206.77 138.25 216.3 132.9 205.39 132.41 209 134.63"/>
  <path class="cls-2" d="M205.62,139.35l2.83-4.59-4.58-2.83,13.85.63-12.09,6.78ZM206.91,132.88l2.64,1.63-1.63,2.64,6.96-3.9-7.97-.36Z"/>
  <rect class="cls-2" x="50.03" y="44.9" width="4.44" height="126.55"/>
  <rect class="cls-2" x="94.04" y="157.55" width="3.02" height="148.78" transform="translate(-117.14 98.95) rotate(-35.59)"/>
  <path class="cls-2" d="M123.51,329.45c-.21,0-.41-.06-.6-.18-6.17-4.05-6.12-12.6.11-22.31,5.99-9.31,16.77-18.24,28.13-23.29,11.59-5.15,21.91-5.4,26.93-.65.44.42.46,1.11.04,1.55-.41.44-1.11.46-1.55.04-4.31-4.07-13.94-3.65-24.54,1.06-10.99,4.89-21.41,13.5-27.18,22.47-5.52,8.58-5.8,15.98-.75,19.3.5.33.65,1.01.31,1.51-.21.32-.56.49-.92.49Z"/>
  <g class="cls-4">
    <path class="cls-2" d="M142.66,343.26c-5.69,0-9.95-1.87-12.15-5.38-2.86-4.58-1.9-11.19,2.71-18.62,8.68-14,28.02-26.65,43.12-28.19,7.18-.73,12.55,1.12,15.11,5.22,2.86,4.58,1.9,11.19-2.7,18.61-8.67,13.99-28,26.64-43.09,28.19h-.05c-1.02.11-2.01.16-2.95.16ZM179.32,293.06c-.88,0-1.8.05-2.76.15-14.51,1.48-33.13,13.68-41.5,27.18-4.09,6.6-5.08,12.55-2.72,16.34,2.1,3.36,6.72,4.86,13.03,4.23h.05c14.51-1.49,33.13-13.69,41.5-27.19,4.09-6.59,5.08-12.55,2.71-16.33-1.79-2.86-5.39-4.37-10.3-4.37Z"/>
  </g>
  <rect class="cls-2" x="182.33" y="279.39" width="1.52" height="19.16" transform="translate(-153.7 228.95) rotate(-47.54)"/>
  <rect class="cls-2" x="125.9" y="323.77" width="2.33" height="17.52" transform="translate(-189.13 169) rotate(-41.74)"/>
  <path class="cls-2" d="M113.22,257.57l-.39-.64c16.52-10.08,23.99-25.03,31.23-39.49.62-1.23,1.24-2.47,1.86-3.7l.67.34c-.62,1.23-1.24,2.46-1.86,3.7-7.28,14.55-14.81,29.6-31.51,39.79Z"/>
  <polygon class="cls-3" points="119.42 253.34 120.42 249.21 113.02 257.25 123.54 254.34 119.42 253.34"/>
  <path class="cls-2" d="M111.78,258l9.39-10.2-1.27,5.24,5.24,1.26-13.36,3.7ZM119.67,250.62l-5.4,5.87,7.69-2.12-3.01-.73.73-3.01Z"/>
  <path class="cls-2" d="M148.35,237.16h-1.19v.33c-.32-.17-.62-.29-.91-.39-.29-.09-.62-.14-.99-.14-.41,0-.81.08-1.19.25-.38.17-.72.41-1.01.74-.29.33-.52.73-.7,1.2s-.26,1.01-.26,1.61c0,1.16.25,2.06.75,2.71.5.65,1.17.98,2.02.98.44,0,.84-.08,1.21-.25.37-.17.73-.4,1.07-.69v.74h1.19v-7.09ZM146.19,243.08c-.35.15-.69.23-1.03.23-.63,0-1.1-.22-1.38-.66-.29-.44-.43-1.08-.43-1.92s.19-1.51.56-1.98c.37-.47.89-.7,1.56-.7.3,0,.58.03.83.1.25.07.54.17.86.31v4.04c-.3.24-.62.43-.97.58Z"/>
  <polygon class="cls-2" points="239.45 266.3 242.88 262 241.16 262 238.69 265.3 236.23 262 234.38 262 237.75 266.38 234.35 270.73 236.06 270.73 238.55 267.38 241.03 270.73 242.88 270.73 239.45 266.3"/>
  <polygon class="cls-2" points="221.59 142.59 218.88 149.06 216.21 142.59 214.61 142.59 218.09 150.89 216.46 154.53 218.03 154.53 223.13 142.59 221.59 142.59"/>
  <polygon class="cls-2" points="72.16 7.55 66.92 7.55 72.03 1.11 72.03 .06 65.22 .06 65.22 1.29 70.2 1.29 65.11 7.7 65.11 8.79 72.16 8.79 72.16 7.55"/>
  <g class="cls-5">
    <path class="cls-2" d="M85.79,114.35c-68.65-1.16-68.75-3.42-68.79-4.51-.03-.78-.09-2.23,26.39-4.9l.08.75c-22.53,2.28-25.49,3.67-25.72,4.16.65,1.17,13,2.83,68.06,3.76v.75Z"/>
  </g>
  <polygon class="cls-3" points="78.29 113.85 75.25 116.8 85.79 113.98 75.34 110.8 78.29 113.85"/>
  <path class="cls-2" d="M73.86,117.59l3.87-3.74-3.74-3.87,13.27,4.03-13.39,3.59ZM76.7,111.63l2.15,2.23-2.23,2.15,7.71-2.06-7.63-2.32Z"/>
  <polygon class="cls-2" points="87.73 120.92 85.03 127.39 82.35 120.92 80.75 120.92 84.23 129.22 82.6 132.87 84.17 132.87 89.27 120.92 87.73 120.92"/>
  <path class="cls-2" d="M98.81,132.07h-1.54v-6.81h-.79c-.01.22-.07.4-.15.53-.09.13-.21.24-.37.32-.13.07-.31.12-.55.15-.24.04-.47.05-.69.05v.69h1.57v5.07h-1.57v.77h4.09v-.77Z"/>
  <polygon class="cls-2" points="79.94 243.1 77.24 249.57 74.56 243.1 72.97 243.1 76.44 251.4 74.82 255.04 76.39 255.04 81.48 243.1 79.94 243.1"/>
  <path class="cls-2" d="M91.46,254.16h-4.07c.34-.28.7-.59,1.08-.93.39-.33.76-.68,1.12-1.03.25-.25.47-.47.65-.68s.33-.41.46-.62c.14-.22.25-.46.32-.71.07-.25.11-.52.11-.8,0-.64-.22-1.15-.66-1.52-.44-.37-1.05-.56-1.82-.56-.38,0-.76.05-1.17.15-.4.1-.72.21-.96.32v1.07h.05c.34-.22.69-.39,1.05-.5.36-.11.69-.16,1-.16.46,0,.83.11,1.08.33.26.22.39.53.39.92,0,.43-.12.83-.36,1.2-.24.37-.69.87-1.34,1.5-.31.3-.64.6-1,.91-.36.3-.71.61-1.07.91v1.06h5.12v-.87Z"/>
  <path class="cls-2" d="M77.38,238.46c-.48,0-.79-.12-.94-.35-.48-.76-.03-2.3,11.31-11.01l.46.6c-10.57,8.11-11.18,9.73-11.12,10.03,1.39,1.09,19.42-7.86,33.9-15.05l5.71-2.83.33.67-5.71,2.83c-20.3,10.08-30.8,15.12-33.95,15.12Z"/>
  <polygon class="cls-3" points="110.15 223.5 108.79 227.52 116.87 220.17 106.13 222.14 110.15 223.5"/>
  <path class="cls-2" d="M107.92,228.85l1.72-5.1-5.1-1.73,13.64-2.5-10.25,9.33ZM107.72,222.26l2.94.99-.99,2.94,5.9-5.37-7.85,1.44Z"/>
</svg>