<?xml version="1.0" encoding="UTF-8"?>
<svg id="Layer_1" data-name="Layer 1" xmlns="http://www.w3.org/2000/svg" xmlns:xlink="http://www.w3.org/1999/xlink" viewBox="0 0 338 293">
  <defs>
    <style>
      .cls-1 {
        fill: none;
      }

      .cls-2, .cls-3 {
        fill: #231f20;
      }

      .cls-4 {
        clip-path: url(#clippath-1);
      }

      .cls-5 {
        fill: #fff;
      }

      .cls-3 {
        fill-rule: evenodd;
      }

      .cls-6 {
        clip-path: url(#clippath);
      }
    </style>
    <clipPath id="clippath">
      <rect class="cls-1" width="338" height="293"/>
    </clipPath>
    <clipPath id="clippath-1">
      <rect class="cls-1" width="338" height="293"/>
    </clipPath>
  </defs>
  <path class="cls-2" d="M152.95,175.17c-.95,0-1.91-.08-2.88-.25h-.05c-9.15-1.62-15.31-10.37-13.72-19.53.77-4.44,3.23-8.32,6.92-10.92,3.69-2.6,8.17-3.6,12.61-2.83,9.18,1.59,15.35,10.34,13.76,19.52-1.42,8.21-8.58,14.01-16.64,14.01ZM150.47,172.79c7.99,1.37,15.6-4.02,16.98-12,1.38-8-4-15.63-12-17.02-3.88-.67-7.78.21-10.99,2.47-3.22,2.26-5.36,5.65-6.03,9.52-1.38,8,3.99,15.64,11.99,17.02h.05Z"/>
  <path class="cls-5" d="M150.24,173.85c-8.6-1.49-14.36-9.68-12.87-18.28,1.49-8.6,9.68-14.36,18.27-12.87,8.6,1.49,14.37,9.67,12.88,18.27-1.49,8.6-9.66,14.37-18.27,12.88"/>
  <path class="cls-2" d="M240.76,251.87H73.32c-4.47,0-8.11-3.64-8.11-8.11v-78.45c0-4.47,3.64-8.11,8.11-8.11h167.44c4.47,0,8.11,3.64,8.11,8.11v78.45c0,4.47-3.64,8.11-8.11,8.11ZM73.32,159.36c-3.28,0-5.94,2.67-5.94,5.94v78.45c0,3.28,2.67,5.94,5.94,5.94h167.44c3.28,0,5.94-2.67,5.94-5.94v-78.45c0-3.28-2.67-5.94-5.94-5.94H73.32Z"/>
  <path class="cls-5" d="M73.33,158.28h167.44c3.88,0,7.03,3.15,7.03,7.03v78.45c0,3.88-3.15,7.03-7.03,7.03H73.32c-3.88,0-7.03-3.15-7.03-7.03v-78.45c0-3.88,3.15-7.03,7.03-7.03Z"/>
  <path class="cls-2" d="M101.87,271.26c-.94,0-1.9-.08-2.85-.24h-.09c-9.17-1.61-15.34-10.37-13.75-19.54,1.59-9.17,10.35-15.35,19.53-13.76,9.17,1.59,15.35,10.35,13.76,19.52-.77,4.45-3.22,8.33-6.91,10.93-2.88,2.03-6.24,3.09-9.7,3.09ZM99.24,268.86h.08c3.87.68,7.78-.2,10.99-2.46,3.21-2.27,5.35-5.65,6.02-9.52,1.38-8-4-15.63-12-17.02-8-1.39-15.63,4-17.02,11.99-1.38,7.97,3.96,15.59,11.92,17.01Z"/>
  <path class="cls-5" d="M99.12,269.94c-8.6-1.5-14.36-9.67-12.87-18.28s9.67-14.36,18.27-12.88c8.6,1.49,14.36,9.67,12.88,18.27-1.49,8.6-9.66,14.37-18.26,12.88"/>
  <path class="cls-2" d="M221.8,51.17c-.9,0-1.81-.08-2.73-.23h-.05c-8.79-1.53-14.7-9.93-13.17-18.72,1.52-8.79,9.91-14.7,18.71-13.18,8.79,1.52,14.7,9.91,13.18,18.7-1.36,7.86-8.22,13.42-15.94,13.43ZM219.12,50.19h.05c8.39,1.45,16.38-4.19,17.83-12.57,1.45-8.38-4.19-16.38-12.57-17.84-8.38-1.45-16.39,4.19-17.84,12.57-1.45,8.37,4.17,16.37,12.53,17.84Z"/>
  <path class="cls-2" d="M219.08,50.56c-8.6-1.5-14.36-9.68-12.87-18.28,1.49-8.6,9.67-14.36,18.27-12.88,8.6,1.49,14.36,9.67,12.88,18.27-1.49,8.6-9.66,14.37-18.26,12.88"/>
  <path class="cls-2" d="M210.99,271.26c-.93,0-1.87-.08-2.82-.24h-.09c-9.17-1.61-15.34-10.37-13.75-19.54,1.59-9.17,10.34-15.35,19.53-13.76,9.17,1.59,15.35,10.35,13.76,19.52-1.42,8.21-8.57,14.01-16.63,14.02ZM208.39,268.86h.08c3.88.68,7.78-.2,10.99-2.46,3.21-2.27,5.35-5.65,6.02-9.52,1.38-8-4-15.63-12-17.02-7.99-1.38-15.63,4-17.02,11.99-1.38,7.97,3.96,15.59,11.92,17.01Z"/>
  <path class="cls-5" d="M208.27,269.94c-8.6-1.5-14.36-9.67-12.87-18.28,1.49-8.6,9.67-14.36,18.27-12.88,8.6,1.49,14.36,9.67,12.88,18.27-1.49,8.6-9.66,14.37-18.27,12.88"/>
  <g class="cls-6">
    <path class="cls-2" d="M152.98,155.27c-.18,0-.36-.04-.52-.14-.5-.29-.67-.93-.38-1.43l66.78-115.67c.29-.5.93-.68,1.43-.38.5.29.67.93.38,1.43l-66.78,115.67c-.19.34-.55.52-.91.52Z"/>
    <path class="cls-2" d="M153.35,270.32h-.75v-6h.75v6ZM153.35,258.32h-.75v-6h.75v6ZM153.35,246.32h-.75v-6h.75v6ZM153.35,234.32h-.75v-6h.75v6ZM153.35,222.32h-.75v-6h.75v6ZM153.35,210.32h-.75v-6h.75v6ZM153.35,198.32h-.75v-6h.75v6ZM153.35,186.32h-.75v-6h.75v6ZM153.35,174.32h-.75v-6h.75v6ZM153.35,162.32h-.75v-6h.75v6ZM153.35,150.32h-.75v-6h.75v6ZM153.35,138.32h-.75v-6h.75v6ZM153.35,126.32h-.75v-6h.75v6ZM153.35,114.32h-.75v-6h.75v6ZM153.35,102.32h-.75v-6h.75v6ZM153.35,90.32h-.75v-6h.75v6ZM153.35,78.32h-.75v-6h.75v6ZM153.35,66.32h-.75v-6h.75v6ZM153.35,54.32h-.75v-6h.75v6ZM153.35,42.32h-.75v-6h.75v6ZM153.35,30.32h-.75v-6h.75v6ZM153.35,18.32h-.75v-6h.75v6ZM153.35,6.32h-.75V.32h.75v6Z"/>
  </g>
  <rect class="cls-2" x="10.39" y="270.34" width="325.22" height=".75"/>
  <polygon class="cls-3" points="328.11 270.71 325.11 273.71 335.61 270.71 325.11 267.71 328.11 270.71"/>
  <path class="cls-2" d="M323.74,274.52l3.81-3.81-3.81-3.81,13.33,3.81-13.33,3.81ZM326.48,268.52l2.19,2.19-2.19,2.19,7.67-2.19-7.67-2.19Z"/>
  <path class="cls-2" d="M161.32,280.38h-1.38l-.09.38c-.38-.2-.74-.36-1.11-.46-.36-.1-.78-.16-1.25-.16-.52,0-1.01.1-1.47.31-.46.21-.87.5-1.21.88-.35.39-.64.87-.86,1.45-.22.58-.32,1.24-.32,1.99,0,1.41.31,2.51.93,3.31.62.8,1.44,1.2,2.48,1.2.52,0,1.01-.1,1.45-.29.45-.19.9-.48,1.35-.87v4.2h1.47v-11.95ZM158.65,287.6c-.43.18-.85.28-1.28.28-.77,0-1.33-.27-1.68-.82-.36-.55-.54-1.33-.54-2.36s.22-1.8.66-2.38c.44-.58,1.09-.86,1.94-.86.36,0,.7.04,1.02.11.31.07.67.2,1.08.38v4.94c-.37.29-.77.53-1.2.71Z"/>
  <path class="cls-2" d="M168.27,291.54h-1.54v-6.81h-.79c-.01.22-.07.4-.15.53-.09.13-.21.24-.37.32-.13.07-.31.12-.55.15-.24.04-.47.05-.69.05v.69h1.57v5.07h-1.57v.77h4.09v-.77Z"/>
  <path class="cls-2" d="M182.08,104.03c-8.04-5.85-16.88-11.45-28.61-10.19l-.08-.75c11.99-1.29,20.96,4.4,29.13,10.33l-.44.61Z"/>
  <polygon class="cls-3" points="176.23 99.31 172.04 99.98 182.3 103.72 175.57 95.12 176.23 99.31"/>
  <path class="cls-2" d="M183.48,104.58l-13.02-4.76,5.32-.84-.84-5.32,8.54,10.92ZM173.63,100.13l7.49,2.74-4.92-6.28.48,3.06-3.06.48Z"/>
  <path class="cls-2" d="M170.94,61.64h-1.38l-.09.38c-.38-.2-.74-.36-1.11-.46-.36-.1-.78-.16-1.25-.16-.52,0-1.01.1-1.47.31-.46.21-.87.5-1.21.88-.35.39-.64.87-.86,1.45-.22.58-.32,1.24-.32,1.99,0,1.41.31,2.51.93,3.31.62.8,1.44,1.2,2.48,1.2.52,0,1.01-.1,1.45-.29.45-.19.9-.48,1.35-.87v4.2h1.47v-11.95ZM168.27,68.86c-.43.18-.85.28-1.28.28-.77,0-1.33-.27-1.68-.82-.36-.55-.54-1.33-.54-2.36s.22-1.8.66-2.38c.44-.58,1.09-.86,1.94-.86.36,0,.7.04,1.02.11.31.07.67.2,1.08.38v4.94c-.37.29-.77.53-1.2.71Z"/>
  <path class="cls-2" d="M178.32,72.7h-4.07c.34-.28.7-.59,1.08-.93.39-.33.76-.68,1.12-1.03.25-.25.47-.47.65-.68s.33-.41.46-.62c.14-.22.25-.46.32-.71.07-.25.11-.52.11-.8,0-.64-.22-1.15-.66-1.52-.44-.37-1.05-.56-1.82-.56-.38,0-.76.05-1.17.15-.4.1-.72.21-.96.33v1.07h.05c.34-.22.69-.39,1.05-.5.36-.11.69-.16,1-.16.46,0,.83.11,1.08.33.26.22.39.53.39.92,0,.43-.12.83-.36,1.2-.24.37-.69.87-1.34,1.5-.31.3-.64.6-1,.91-.36.3-.71.61-1.07.91v1.06h5.12v-.87Z"/>
  <path class="cls-2" d="M104.75,194.28c0-1.04-.23-1.85-.68-2.43-.46-.58-1.16-.87-2.12-.87-.56,0-1.08.11-1.57.33-.49.22-1.03.58-1.62,1.08-.2-.44-.51-.79-.93-1.04s-.92-.38-1.51-.38c-.52,0-1,.11-1.46.32-.46.21-.91.51-1.37.89v-.97h-1.47v8.73h1.47v-6.52c.4-.31.8-.56,1.21-.76.4-.2.81-.3,1.21-.3.42,0,.74.06.97.17.22.11.4.28.52.5.11.21.18.49.21.83.03.35.05.71.05,1.1v4.97h1.47v-5.59c0-.16,0-.31-.02-.47-.01-.16-.02-.3-.04-.42.41-.32.82-.58,1.23-.79.41-.21.82-.31,1.23-.31s.74.06.97.17c.22.11.4.28.52.51.11.21.18.49.21.84.03.35.05.71.05,1.09v4.97h1.47v-5.66Z"/>
  <path class="cls-2" d="M111.64,202.37h-1.54v-6.81h-.79c-.01.22-.07.4-.15.53-.09.13-.21.24-.37.32-.13.07-.31.12-.55.15-.24.04-.47.05-.69.05v.69h1.57v5.07h-1.57v.77h4.09v-.77Z"/>
  <path class="cls-2" d="M258.06,7.61c0-1.04-.23-1.85-.68-2.43-.46-.58-1.16-.87-2.12-.87-.56,0-1.08.11-1.57.33-.49.22-1.03.58-1.62,1.08-.2-.44-.51-.79-.93-1.04s-.92-.38-1.51-.38c-.52,0-1,.11-1.46.32-.46.21-.91.51-1.37.89v-.97h-1.47v8.73h1.47v-6.52c.4-.31.8-.56,1.21-.76.4-.2.81-.3,1.21-.3.42,0,.74.06.97.17.22.11.4.28.52.5.11.21.18.49.21.83.03.35.05.71.05,1.1v4.97h1.47v-5.59c0-.16,0-.31-.02-.47-.01-.16-.02-.3-.04-.42.41-.32.82-.58,1.23-.79.41-.21.82-.31,1.23-.31s.74.06.97.17c.22.11.4.28.52.51.11.21.18.49.21.84.03.35.05.71.05,1.09v4.97h1.47v-5.66Z"/>
  <path class="cls-2" d="M265.38,15.61h-4.07c.34-.28.7-.59,1.08-.93.39-.33.76-.68,1.12-1.03.25-.25.47-.47.65-.68s.33-.41.46-.62c.14-.22.25-.46.32-.71.07-.25.11-.52.11-.8,0-.64-.22-1.15-.66-1.52-.44-.37-1.05-.56-1.82-.56-.38,0-.76.05-1.17.15-.4.1-.72.21-.96.33v1.07h.05c.34-.22.69-.39,1.05-.5.36-.11.69-.16,1-.16.46,0,.83.11,1.08.33.26.22.39.53.39.92,0,.43-.12.83-.36,1.2-.24.37-.69.87-1.34,1.5-.31.3-.64.6-1,.91-.36.3-.71.61-1.07.91v1.06h5.12v-.87Z"/>
  <g class="cls-4">
    <path class="cls-2" d="M1.48,233.25h-.75v-67.52h.75v26.52c1.28-.15,4.99-.2,15.98.03l5.52-13.4,5.06,22.76,4.8-21.59h.73l4.8,21.59,5.06-22.76,5.53,13.41h15.98v.75h-16.6v-.29l-4.69-11.38-4.91,22.08h-.73l-4.8-21.59-4.8,21.59h-.73l-4.91-22.08-4.69,11.4v.28c-12.66-.27-15.81-.15-16.59-.07v23.67h21.75v-8.85h9.97v.75h-9.22v8.1h41.68v.75H23.98v8.11h9.22v.75h-9.97v-8.86H1.48v15.86Z"/>
  </g>
  <polygon class="cls-2" points="41.17 165.47 45.22 161.44 43.37 161.44 39.13 165.8 39.13 158.01 37.66 158.01 37.66 170.16 39.13 170.16 39.13 167.25 40.08 166.34 43.58 170.16 45.52 170.16 41.17 165.47"/>
  <path class="cls-2" d="M39.51,231.42h-1.47v3.78c-.39-.2-.76-.35-1.12-.45-.35-.1-.76-.14-1.22-.14-.51,0-.99.1-1.46.31-.47.21-.88.51-1.24.91-.36.41-.64.9-.86,1.48s-.32,1.24-.32,1.98c0,1.42.31,2.53.92,3.34.61.8,1.44,1.2,2.48,1.2.54,0,1.03-.1,1.49-.3.46-.2.9-.49,1.32-.85v.91h1.47v-12.16ZM36.84,242.15c-.43.18-.85.28-1.27.28-.78,0-1.35-.27-1.7-.81-.35-.54-.53-1.33-.53-2.36s.23-1.86.69-2.44c.46-.57,1.1-.86,1.92-.86.37,0,.71.03,1.02.1.31.07.67.19,1.06.37v5.01c-.37.29-.77.53-1.2.71Z"/>
</svg>