<?xml version="1.0" encoding="UTF-8"?>
<svg id="Layer_1" data-name="Layer 1" xmlns="http://www.w3.org/2000/svg" xmlns:xlink="http://www.w3.org/1999/xlink" viewBox="0 0 464 334">
  <defs>
    <style>
      .cls-1 {
        fill: none;
      }

      .cls-2, .cls-3 {
        fill: #231f20;
      }

      .cls-4 {
        clip-path: url(#clippath-1);
      }

      .cls-3 {
        fill-rule: evenodd;
      }

      .cls-5 {
        clip-path: url(#clippath);
      }
    </style>
    <clipPath id="clippath">
      <rect class="cls-1" width="464" height="334"/>
    </clipPath>
    <clipPath id="clippath-1">
      <rect class="cls-1" width="464" height="334"/>
    </clipPath>
  </defs>
  <path class="cls-2" d="M446.5,323.52l-68.4-42.37.99-1.6,68.4,42.37-.99,1.6ZM128.74,125.07l-28.94-17.85.99-1.6,28.94,17.85-.99,1.6Z"/>
  <polygon class="cls-3" points="430.98 312.79 420.59 315.23 447 322.71 428.54 302.41 430.98 312.79"/>
  <path class="cls-2" d="M450.11,324.64l-33.53-9.51,13.18-3.09-3.1-13.18,23.44,25.78ZM424.6,315.32l19.29,5.47-13.49-14.83,1.78,7.58-7.58,1.78Z"/>
  <path class="cls-2" d="M382.58,305.27c-5.1,0-9.62-2.43-15.17-5.42-1.22-.65-2.49-1.34-3.82-2.03-12.73-6.56-25.83-11.89-38.5-17.03-20.25-8.23-41.2-16.74-60.62-30.42h0s-.07-.05-.07-.05l-.04-.03h0c-10.06-7.81-21.36-15.83-32.29-23.58-28.07-19.92-57.1-40.52-69.47-60.47l.51-.32-.47.26c-3.74-6.71-9.88-11.49-16.99-17.03-3.2-2.5-6.52-5.08-10.04-8.13-2.84-2.46-6.05-5.24-6.84-10.17l.31-6.9h.07c-.13-.82-.07-1.6.19-2.33,1.05-2.94,5.23-4.69,11.8-4.97l.03-.22-5.35-2.55,1.79-14.52.36.19-.1-.45,7.69-1.62.36-2.6h.07s-.39-.21-.39-.21l.37-.66.35.2v-.05s10.43-2.28,10.43-2.28l1.54-11.84.74.1-1.5,11.57,17.56-3.84,6.9,4.04,7.65-1.62,7.45,4.05-.3.56,1.21-.25-2.1,10.64-6.61,2.1-2.61,18.62,12.6,6.88-.18.33.14-.03c.84,4.38,4.16,6.9,6.84,8.93l.23.18h0s148.4,87.93,148.4,87.93l22.36,1.51c14.4,9.01,29.08,24.21,23.07,37.39l-.63-.29.29.61-26.38,12.44c6.32,7.71,12.53,16.41,11.45,22.95l-.05.28-.28.03c-.67.08-1.33.12-1.98.12ZM264.84,249.72c19.37,13.65,40.29,22.15,60.53,30.38,12.68,5.15,25.8,10.48,38.56,17.06,1.34.69,2.62,1.38,3.83,2.03,6.05,3.25,10.84,5.83,16.43,5.24.46-3.39-.61-9.07-11.63-22.44l-.31-.37,26.34-12.42c-2.17-.24-4.34-.46-6.52-.69-22.38-2.33-45.52-4.73-68.98-18.52l-21.94,1.05-.1-.07-139.59-93.68h0c-5.34-4.94-6.95-9.99-7.79-14.31l-18.82-11.09.04-.07-.07.08c-2.5-2.16-4.2-4.21-5.07-6.07l-.23,4.98c.73,4.58,3.84,7.27,6.58,9.64,3.5,3.04,6.81,5.61,10.01,8.1,7.17,5.59,13.37,10.41,17.19,17.26l-.06.03c12.29,19.81,41.25,40.37,69.26,60.24,10.94,7.76,22.25,15.79,32.33,23.62ZM323.28,249.23l.1.06c23.35,13.76,46.44,16.16,68.77,18.48,2.34.24,4.69.49,7.03.74l-.05.43.36-.17c5.74-12.7-8.63-27.5-22.73-36.34l-22.35-1.5-148.29-87.87-.02.03-.47-.36c-2.63-2-6.23-4.73-7.12-9.39h0s-11.95-6.53-11.95-6.53l-.64,4.57-28.11,6.51-18.23-11.23.34-.55,1.13-8.69c-6.09.28-10.08,1.89-11,4.47-.87,2.44.92,5.68,5.17,9.38v-.02s19.12,11.27,19.12,11.27l.03.17c.85,4.45,2.37,9.24,7.63,14.08l139.36,93.53,21.92-1.05ZM161.82,110.99l-3.74,26.06,27.18-6.29,3.36-23.94,6.64-2.11,1.8-9.1-46.3,9.39-1.38,8.84,12.44-2.85ZM140.19,126.15l17.18,10.58,3.55-24.76-11.82,2.71-.12.27-.36-.16-.15.03v-.09s-6.75-3.01-6.75-3.01l1.31-8.58-4.79-2.6-1.59,12.9,5.35,2.56-1.33,10.21-.48-.06ZM142.54,111.27l6.05,2.69,1.46-9.42-6.02-3.14-1.5,9.87ZM144.52,100.8l6.31,3.3-.07.13,45.86-9.3-7.09-3.86-7.66,1.63-6.9-4.04-17.53,3.83-.88,6.76-.74-.1.84-6.49-9.41,2.06,6.47,3.61-9.19,2.47ZM138.37,99.76l4.77,2.59.31-2.04,4.04-1.09-1.92-.98-7.21,1.52ZM144.12,100.91l-.06.37.22-.42-.16.04ZM146.29,97.76l2.02,1.04-.12.24,3.54-.95-5.09-2.84-.35,2.52Z"/>
  <path class="cls-2" d="M159.19,81.88c-.23,0-.49-.02-.78-.06-.78-.11-1.26-.32-1.41-.6l-.05-.24.05-.25c.19-.35.8-.45,1.8-.31.79.12,1.26.33,1.41.61.06.13.07.34,0,.47-.13.25-.48.38-1.02.38Z"/>
  <path class="cls-2" d="M246.09,306.34l-1.87-.24,8.64-66.53,1.87.24-8.64,66.53ZM260.31,196.93l-1.87-.24,12.19-93.79,1.87.24-12.19,93.79Z"/>
  <polygon class="cls-3" points="247.58 287.53 241.07 279.08 245.15 306.22 256.03 281.02 247.58 287.53"/>
  <path class="cls-2" d="M244.68,309.85l-5.18-34.46,8.26,10.73,10.73-8.26-13.81,31.99ZM242.64,282.77l2.98,19.83,7.95-18.41-6.17,4.75-4.75-6.17Z"/>
  <path class="cls-2" d="M175.26,244.07l-.75-1.73,62.79-27.38.75,1.73-62.79,27.38ZM292.1,193.12l-.75-1.73,26.09-11.38.75,1.73-26.09,11.38Z"/>
  <polygon class="cls-3" points="192.16 235.67 196.06 225.75 174.89 243.21 202.09 239.57 192.16 235.67"/>
  <path class="cls-2" d="M171.53,244.67l26.88-22.17-4.95,12.6,12.6,4.94-34.54,4.62ZM193.71,228.99l-15.47,12.75,19.87-2.66-7.25-2.84,2.85-7.25Z"/>
  <path class="cls-2" d="M259.48,197.58l-.64-.39.39-.64.64.39-.39.64ZM257.56,196.41l-.64-.39.39-.64.64.39-.39.64ZM255.64,195.23l-.64-.39.39-.64.64.39-.39.64ZM253.73,194.05l-.64-.39.39-.64.64.39-.39.64ZM251.81,192.88l-.64-.39.39-.64.64.39-.39.64ZM249.89,191.7l-.64-.39.39-.64.64.39-.39.64ZM247.97,190.52l-.64-.39.39-.64.64.39-.39.64ZM246.06,189.34l-.64-.39.39-.64.64.39-.39.64ZM244.14,188.17l-.64-.39.39-.64.64.39-.39.64ZM242.22,186.99l-.64-.39.39-.64.64.39-.39.64ZM240.31,185.81l-.64-.39.39-.64.64.39-.39.64ZM238.39,184.63l-.64-.39.39-.64.64.39-.39.64ZM236.47,183.46l-.64-.39.39-.64.64.39-.39.64ZM234.55,182.28l-.64-.39.39-.64.64.39-.39.64ZM232.64,181.1l-.64-.39.39-.64.64.39-.39.64ZM230.72,179.93l-.64-.39.39-.64.64.39-.39.64ZM228.8,178.75l-.64-.39.39-.64.64.39-.39.64ZM226.88,177.57l-.64-.39.39-.64.64.39-.39.64ZM224.97,176.39l-.64-.39.39-.64.64.39-.39.64ZM223.05,175.22l-.64-.39.39-.64.64.39-.39.64ZM221.13,174.04l-.64-.39.39-.64.64.39-.39.64ZM219.21,172.86l-.64-.39.39-.64.64.39-.39.64ZM217.3,171.68l-.64-.39.39-.64.64.39-.39.64ZM215.38,170.51l-.64-.39.39-.64.64.39-.39.64ZM213.46,169.33l-.64-.39.39-.64.64.39-.39.64ZM211.54,168.15l-.64-.39.39-.64.64.39-.39.64ZM209.63,166.98l-.64-.39.39-.64.64.39-.39.64ZM207.71,165.8l-.64-.39.39-.64.64.39-.39.64ZM205.79,164.62l-.64-.39.39-.64.64.39-.39.64ZM203.87,163.44l-.64-.39.39-.64.64.39-.39.64ZM201.96,162.27l-.64-.39.39-.64.64.39-.39.64ZM200.04,161.09l-.64-.39.39-.64.64.39-.39.64ZM198.12,159.91l-.64-.39.39-.64.64.39-.39.64ZM196.21,158.73l-.64-.39.39-.64.64.39-.39.64ZM194.29,157.56l-.64-.39.39-.64.64.39-.39.64ZM192.37,156.38l-.64-.39.39-.64.64.39-.39.64ZM190.45,155.2l-.64-.39.39-.64.64.39-.39.64ZM188.54,154.02l-.64-.39.39-.64.64.39-.39.64ZM186.62,152.85l-.64-.39.39-.64.64.39-.39.64ZM184.7,151.67l-.64-.39.39-.64.64.39-.39.64ZM182.78,150.49l-.64-.39.39-.64.64.39-.39.64ZM180.87,149.32l-.64-.39.39-.64.64.39-.39.64ZM179.16,147.64l-.25-.71.71-.25.25.71-.71.25ZM178.42,145.52l-.25-.71.71-.25.25.71-.71.25ZM177.69,143.39l-.25-.71.71-.25.25.71-.71.25ZM176.95,141.27l-.25-.71.71-.25.25.71-.71.25ZM176.21,139.14l-.25-.71.71-.25.25.71-.71.25ZM175.47,137.02l-.25-.71.71-.25.25.71-.71.25ZM174.73,134.89l-.25-.71.71-.25.25.71-.71.25ZM175.13,133.2l-.75-.09.09-.75.75.09-.09.75ZM175.39,130.97l-.75-.09.09-.75.75.09-.09.75ZM175.65,128.73l-.75-.09.09-.75.75.09-.09.75ZM175.91,126.5l-.75-.09.09-.75.75.09-.09.75ZM176.16,124.26l-.75-.09.09-.75.75.09-.09.75ZM176.42,122.03l-.75-.09.09-.75.75.09-.09.75ZM176.68,119.79l-.75-.09.09-.75.75.09-.09.75ZM176.94,117.56l-.75-.09.09-.75.75.09-.09.75ZM177.2,115.32l-.75-.09.09-.75.75.09-.09.75ZM177.46,113.09l-.75-.09.09-.75.75.09-.09.75ZM177.71,110.85l-.75-.09.09-.75.75.09-.09.75ZM177.97,108.62l-.75-.09.09-.75.75.09-.09.75ZM178.23,106.38l-.75-.09.09-.75.75.09-.09.75ZM178.49,104.15l-.75-.09.09-.75.75.09-.09.75ZM178.75,101.91l-.75-.09.09-.75.75.09-.09.75ZM179.01,99.68l-.75-.09.09-.75.75.09-.09.75ZM177.64,98.36l-.68-.31.31-.68.68.31-.31.68ZM175.59,97.43l-.68-.31.31-.68.68.31-.31.68ZM173.54,96.5l-.68-.31.31-.68.68.31-.31.68ZM171.49,95.58l-.68-.31.31-.68.68.31-.31.68ZM169.44,94.65l-.68-.31.31-.68.68.31-.31.68ZM167.39,93.72l-.68-.31.31-.68.68.31-.31.68ZM165.34,92.79l-.68-.31.31-.68.68.31-.31.68ZM163.29,91.86l-.68-.31.31-.68.68.31-.31.68Z"/>
  <rect class="cls-2" x="158.89" y="79.63" width="15.45" height=".75" transform="translate(-13.01 36.47) rotate(-12.03)"/>
  <polygon class="cls-3" points="162 80.99 163.15 79.21 158.33 81.77 163.77 82.15 162 80.99"/>
  <path class="cls-2" d="M164.53,82.4l-6.91-.47,6.12-3.25-1.46,2.26,2.26,1.46ZM159.04,81.62l3.98.27-1.3-.84.84-1.3-3.52,1.87Z"/>
  <polygon class="cls-3" points="171.23 79.02 170.08 80.8 174.9 78.24 169.45 77.87 171.23 79.02"/>
  <path class="cls-2" d="M169.49,81.34l1.47-2.26-2.26-1.47,6.92.48-6.12,3.25ZM170.21,78.12l1.3.84-.85,1.3,3.52-1.87-3.98-.27Z"/>
  <path class="cls-2" d="M399.24,268.5l-.09-.06.43-.62.09.06-.43.62ZM397.92,267.59l-.62-.42.42-.62.62.42-.42.62ZM396.06,266.32l-.62-.42.42-.62.62.42-.42.62ZM394.2,265.05l-.62-.42.42-.62.62.42-.42.62ZM392.34,263.78l-.62-.42.42-.62.62.42-.42.62ZM390.49,262.51l-.62-.42.42-.62.62.42-.42.62ZM388.63,261.24l-.62-.42.42-.62.62.42-.42.62ZM386.77,259.97l-.62-.42.42-.62.62.42-.42.62ZM384.91,258.7l-.62-.42.42-.62.62.42-.42.62ZM383.06,257.43l-.62-.42.42-.62.62.42-.42.62ZM381.2,256.16l-.62-.42.42-.62.62.42-.42.62ZM379.34,254.89l-.62-.42.42-.62.62.42-.42.62ZM377.48,253.62l-.62-.42.42-.62.62.42-.42.62ZM375.63,252.35l-.62-.42.42-.62.62.42-.42.62ZM373.77,251.08l-.62-.42.42-.62.62.42-.42.62ZM371.91,249.81l-.62-.42.42-.62.62.42-.42.62ZM370.05,248.54l-.62-.42.42-.62.62.42-.42.62ZM368.2,247.27l-.62-.42.42-.62.62.42-.42.62ZM366.34,246l-.62-.42.42-.62.62.42-.42.62ZM364.48,244.73l-.62-.42.42-.62.62.42-.42.62ZM362.62,243.46l-.62-.42.42-.62.62.42-.42.62ZM360.77,242.19l-.62-.42.42-.62.62.42-.42.62ZM358.85,241.64l-.75-.07.07-.75.75.07-.07.75ZM356.61,241.43l-.75-.07.07-.75.75.07-.07.75ZM354.37,241.21l-.75-.07.07-.75.75.07-.07.75ZM352.13,241l-.75-.07.07-.75.75.07-.07.75ZM349.89,240.78l-.75-.07.07-.75.75.07-.07.75ZM347.65,240.57l-.75-.07.07-.75.75.07-.07.75ZM345.41,240.35l-.75-.07.07-.75.75.07-.07.75ZM343.17,240.14l-.75-.07.07-.75.75.07-.07.75ZM340.93,239.92l-.75-.07.07-.75.75.07-.07.75ZM338.69,239.7l-.75-.07.07-.75.75.07-.07.75ZM336.45,239.49l-.75-.07.07-.75.75.07-.07.75ZM334.21,239.27l-.75-.07.07-.75.75.07-.07.75ZM331.97,239.06l-.75-.07.07-.75.75.07-.07.75ZM329.73,238.84l-.75-.07.07-.75.75.07-.07.75ZM327.42,238.32l-.64-.38.38-.64.64.38-.38.64ZM325.49,237.16l-.64-.38.38-.64.64.38-.38.64ZM323.56,236.01l-.64-.38.38-.64.64.38-.38.64ZM321.63,234.85l-.64-.38.38-.64.64.38-.38.64ZM319.7,233.7l-.64-.38.38-.64.64.38-.38.64ZM317.76,232.54l-.64-.38.38-.64.64.38-.38.64ZM315.83,231.39l-.64-.38.38-.64.64.38-.38.64ZM313.9,230.24l-.64-.38.38-.64.64.38-.38.64ZM311.97,229.08l-.64-.38.38-.64.64.38-.38.64ZM310.04,227.93l-.64-.38.38-.64.64.38-.38.64ZM308.11,226.77l-.64-.38.38-.64.64.38-.38.64ZM306.18,225.62l-.64-.38.38-.64.64.38-.38.64ZM304.25,224.46l-.64-.38.38-.64.64.38-.38.64ZM302.31,223.31l-.64-.38.38-.64.64.38-.38.64ZM300.38,222.15l-.64-.38.38-.64.64.38-.38.64ZM298.45,221l-.64-.39.38-.64.64.39-.38.64ZM296.52,219.84l-.64-.38.38-.64.64.38-.38.64ZM294.59,218.69l-.64-.38.38-.64.64.38-.38.64ZM292.66,217.54l-.64-.38.38-.64.64.38-.38.64ZM290.73,216.38l-.64-.38.38-.64.64.38-.38.64ZM288.79,215.23l-.64-.38.38-.64.64.38-.38.64ZM286.86,214.07l-.64-.38.38-.64.64.38-.38.64ZM284.93,212.92l-.64-.38.38-.64.64.38-.38.64ZM283,211.76l-.64-.38.38-.64.64.38-.38.64ZM281.07,210.61l-.64-.38.38-.64.64.38-.38.64ZM279.14,209.46l-.64-.38.38-.64.64.38-.38.64ZM277.21,208.3l-.64-.38.38-.64.64.38-.38.64ZM275.28,207.15l-.64-.38.38-.64.64.38-.38.64ZM273.34,205.99l-.64-.38.38-.64.64.38-.38.64ZM271.41,204.84l-.64-.38.38-.64.64.38-.38.64ZM269.48,203.68l-.64-.38.38-.64.64.38-.38.64ZM267.55,202.53l-.64-.38.38-.64.64.38-.38.64ZM265.62,201.37l-.64-.38.38-.64.64.38-.38.64ZM263.69,200.22l-.64-.38.38-.64.64.38-.38.64ZM261.76,199.06l-.64-.38.38-.64.64.38-.38.64ZM259.83,197.91l-.64-.38.38-.64.64.38-.38.64Z"/>
  <path class="cls-2" d="M168.97,71.56c-.31-.54-.78-.85-1.42-.93-.36-.05-.69-.02-.99.08-.3.1-.6.23-.88.41l.35-2.69-.91-.12-.98,7.53.85.11.09-.24c.21.15.42.28.64.38.22.1.48.17.79.21.33.04.64.02.93-.07.29-.09.57-.25.83-.48.25-.22.46-.5.63-.84.17-.34.29-.74.35-1.2.12-.89.02-1.61-.28-2.15ZM167.68,75.11c-.33.29-.74.41-1.25.34-.24-.03-.44-.08-.62-.15-.18-.07-.39-.18-.63-.33l.4-3.1c.26-.15.53-.27.81-.34.29-.08.56-.1.83-.07.47.06.8.27.97.64.17.36.21.87.13,1.51-.09.71-.3,1.21-.63,1.5Z"/>
  <path class="cls-2" d="M171.67,94.66l-.74-.1.1-.74.74.1-.1.74ZM171.96,92.43l-.74-.1.1-.74.74.1-.1.74ZM172.25,90.19l-.74-.1.1-.74.74.1-.1.74ZM172.54,87.96l-.74-.1.1-.74.74.1-.1.74ZM172.83,85.73l-.74-.1.1-.74.74.1-.1.74ZM173.12,83.5l-.74-.1.1-.74.74.1-.1.74ZM173.41,81.27l-.74-.1.1-.74.74.1-.1.74ZM173.7,79.04l-.74-.1.1-.74.74.1-.1.74ZM173.99,76.81l-.74-.1.1-.74.74.1-.1.74ZM174.28,74.58l-.74-.1.1-.74.74.1-.1.74ZM174.57,72.35l-.74-.1.1-.74.74.1-.1.74Z"/>
  <rect class="cls-2" x="221.44" y="47.96" width=".75" height="104.42" transform="translate(38.07 259.77) rotate(-65.28)"/>
  <polygon class="cls-3" points="177.12 79.59 179.1 78.85 173.71 78.02 177.85 81.58 177.12 79.59"/>
  <path class="cls-2" d="M178.31,82.23l-5.26-4.51,6.85,1.06-2.53.93.93,2.52ZM174.37,78.33l3.03,2.6-.54-1.45,1.45-.54-3.94-.61Z"/>
  <polygon class="cls-3" points="266.52 120.75 264.53 121.48 269.92 122.32 265.78 118.76 266.52 120.75"/>
  <path class="cls-2" d="M270.58,122.62l-6.85-1.06,2.52-.93-.93-2.52,5.26,4.52ZM265.32,121.4l3.94.61-3.02-2.6.54,1.45-1.45.54Z"/>
  <path class="cls-2" d="M224.68,93.17c.05-.35.03-.65-.05-.9-.08-.25-.21-.46-.39-.64-.19-.18-.42-.32-.69-.42-.27-.1-.6-.17-.98-.22-.33-.04-.66-.06-1-.04-.34.01-.61.03-.79.06l-.12.92h.05c.33-.07.64-.12.95-.15.3-.02.57-.02.81,0,.2.03.38.06.56.11.18.05.33.12.45.21.13.1.22.22.27.36.06.15.07.32.04.53l-.02.14c-.53-.04-1.03-.07-1.5-.08-.47,0-.88.04-1.22.14-.34.1-.62.27-.83.5-.21.23-.34.55-.39.96-.07.5.05.93.35,1.3s.69.58,1.18.65c.26.03.5.04.7.01.2-.02.39-.06.55-.12.14-.04.28-.1.43-.18.15-.08.27-.14.36-.19l-.07.58.91.12.48-3.67ZM222.68,95.74c-.28.09-.58.11-.9.07-.38-.05-.66-.17-.83-.35-.17-.18-.23-.43-.19-.74.04-.27.14-.48.33-.61.18-.14.41-.22.68-.26.23-.03.53-.04.91-.02.38.02.71.03.99.05l-.2,1.51c-.25.14-.51.26-.79.35Z"/>
  <rect class="cls-2" x="200.78" y="144.35" width="69.71" height=".75" transform="translate(65.43 362.67) rotate(-83.57)"/>
  <polygon class="cls-3" points="232.1 176.39 230.77 174.73 231.68 180.11 233.76 175.06 232.1 176.39"/>
  <path class="cls-2" d="M231.6,180.84l-1.16-6.83,1.68,2.1,2.11-1.68-2.63,6.41ZM231.1,175.46l.67,3.93,1.52-3.69-1.21.97-.97-1.21Z"/>
  <polygon class="cls-3" points="239.17 113.07 240.5 114.72 239.59 109.34 237.52 114.39 239.17 113.07"/>
  <path class="cls-2" d="M240.82,115.45l-1.68-2.1-2.1,1.68,2.63-6.41,1.15,6.83ZM239.2,112.79l.97,1.21-.66-3.93-1.51,3.69,1.21-.97Z"/>
  <path class="cls-2" d="M242.85,139.51h-.05c-.07.04-.18.09-.3.15-.13.06-.26.12-.4.17-.16.06-.34.1-.54.12s-.39.02-.57,0c-.53-.07-.92-.3-1.16-.69-.25-.39-.33-.91-.24-1.56.09-.67.3-1.16.65-1.47.34-.31.77-.43,1.29-.36.28.04.56.13.84.29s.55.36.79.61h.05s.13-1.01.13-1.01c-.23-.16-.49-.3-.78-.43-.29-.13-.59-.21-.9-.25-.8-.1-1.47.06-2.02.51-.55.44-.88,1.1-1,1.99-.06.47-.05.9.03,1.27.08.37.23.69.43.95.2.26.46.47.77.63.31.16.66.26,1.05.31.31.04.6.04.88,0,.28-.05.59-.12.91-.23l.13-1Z"/>
  <polygon class="cls-2" points="81.59 189.61 6.65 70.94 248.23 34.87 248.51 36.73 9.79 72.38 83.18 188.61 81.59 189.61"/>
  <polygon class="cls-3" points="229.73 38.59 223.38 47.16 248.37 35.8 221.16 32.24 229.73 38.59"/>
  <path class="cls-2" d="M220.27,49.68l8.05-10.88-10.88-8.05,34.55,4.52-31.72,14.42ZM224.87,33.74l6.26,4.63-4.63,6.26,18.25-8.29-19.88-2.6Z"/>
  <polygon class="cls-3" points="72.32 173.17 61.92 170.82 82.39 189.11 74.67 162.77 72.32 173.17"/>
  <path class="cls-2" d="M84.34,192.2l-25.98-23.21,13.2,2.98,2.98-13.21,9.8,33.44ZM65.48,172.66l14.95,13.36-5.64-19.24-1.72,7.6-7.59-1.71Z"/>
  <rect class="cls-2" x="7.42" y="71.66" width="1.6" height="79.57"/>
  <polygon class="cls-3" points="8.22 135.21 1.81 128.81 8.22 151.23 14.62 128.81 8.22 135.21"/>
  <g class="cls-5">
    <path class="cls-2" d="M8.22,154.34L.08,125.87l8.13,8.13,8.13-8.13-8.13,28.46ZM3.54,131.74l4.68,16.38,4.68-16.38-4.68,4.68-4.68-4.68Z"/>
  </g>
  <polygon class="cls-2" points="253.27 45.74 251.82 45.74 251.82 55.24 246.79 45.74 244.39 45.74 244.39 57.37 245.84 57.37 245.84 46.96 251.35 57.37 253.27 57.37 253.27 45.74"/>
  <polygon class="cls-2" points="98.3 195.21 92.19 195.21 92.19 190.89 98.3 190.89 98.3 189.52 92.19 189.52 92.19 186.33 98.3 186.33 98.3 184.95 90.64 184.95 90.64 196.59 98.3 196.59 98.3 195.21"/>
  <path class="cls-2" d="M19.77,154.93c-.44-.82-1.06-1.48-1.85-1.98-.46-.29-1.03-.51-1.7-.68-.67-.16-1.57-.25-2.71-.25h-2.91v11.63h2.94c1.07,0,1.93-.07,2.58-.22.65-.15,1.25-.38,1.78-.71.77-.47,1.38-1.14,1.84-2s.69-1.82.69-2.88c0-1.13-.22-2.11-.66-2.93ZM18.39,160.1c-.29.6-.72,1.09-1.3,1.46-.46.3-.97.5-1.53.61s-1.2.16-1.95.16h-1.45v-8.98h1.45c.72,0,1.34.05,1.85.15s1,.28,1.46.54c.63.36,1.1.85,1.42,1.48.32.62.48,1.39.48,2.3s-.14,1.66-.43,2.27Z"/>
  <path class="cls-2" d="M159.32,72.53h-2.91v.85h1.95v1.78c-.23.1-.51.18-.82.24-.31.06-.62.09-.94.09-.85,0-1.53-.26-2.02-.78-.49-.52-.74-1.25-.74-2.19,0-.89.24-1.6.71-2.12s1.12-.78,1.93-.78c.36,0,.68.03.97.1.28.07.54.15.76.25.19.08.37.19.57.32.19.13.34.23.44.31h.09v-1.15c-.5-.24-.96-.41-1.39-.51-.43-.1-.85-.15-1.27-.15-1.18,0-2.12.34-2.8,1.01-.68.67-1.02,1.59-1.02,2.75,0,.63.09,1.19.27,1.66.18.47.44.87.78,1.18.33.31.73.55,1.21.7.47.16.99.23,1.56.23.44,0,.89-.07,1.36-.2.47-.14.9-.29,1.3-.48v-3.12Z"/>
  <g class="cls-4">
    <path class="cls-2" d="M48.5,134.18h-.75v-.75h.75v.75ZM48.5,131.18h-.75v-.75h.75v.75ZM48.5,128.18h-.75v-.75h.75v.75ZM48.5,125.18h-.75v-.75h.75v.75ZM48.5,122.18h-.75v-.75h.75v.75ZM48.5,119.18h-.75v-.75h.75v.75ZM48.5,116.18h-.75v-.75h.75v.75ZM48.5,113.18h-.75v-.75h.75v.75ZM48.5,110.18h-.75v-.75h.75v.75ZM48.5,107.18h-.75v-.75h.75v.75ZM48.5,104.18h-.75v-.75h.75v.75ZM48.5,101.18h-.75v-.75h.75v.75ZM48.5,98.18h-.75v-.75h.75v.75ZM48.5,95.18h-.75v-.75h.75v.75ZM48.5,92.18h-.75v-.75h.75v.75ZM48.16,89.3v-.12h-.41v-.6l.84-.07.06.75-.49.04ZM50.9,89.06l-.06-.75.75-.06.06.75-.75.06ZM53.88,88.81l-.06-.75.75-.06.06.75-.75.06ZM56.87,88.56l-.06-.75.75-.06.06.75-.75.06ZM59.86,88.31l-.06-.75.75-.06.06.75-.75.06ZM62.85,88.05l-.06-.75.75-.06.06.75-.75.06ZM65.84,87.8l-.06-.75.75-.06.06.75-.75.06ZM68.83,87.55l-.06-.75.75-.06.06.75-.75.06ZM71.82,87.3l-.06-.75.75-.06.06.75-.75.06ZM74.81,87.04l-.06-.75.75-.06.06.75-.75.06ZM77.8,86.79l-.06-.75.75-.06.06.75-.75.06ZM80.79,86.54l-.06-.75.75-.06.06.75-.75.06ZM83.78,86.29l-.06-.75.75-.06.06.75-.75.06ZM86.77,86.03l-.06-.75.75-.06.06.75-.75.06ZM89.76,85.78l-.06-.75.75-.06.06.75-.75.06ZM92.75,85.53l-.06-.75.75-.06.06.75-.75.06ZM95.73,85.27l-.06-.75.75-.06.06.75-.75.06ZM98.72,85.02l-.06-.75.75-.06.06.75-.75.06ZM101.71,84.77l-.06-.75.75-.06.06.75-.75.06ZM104.7,84.52l-.06-.75.75-.06.06.75-.75.06ZM107.69,84.26l-.06-.75.75-.06.06.75-.75.06ZM110.68,84.01l-.06-.75.75-.06.06.75-.75.06ZM113.67,83.76l-.06-.75.75-.06.06.75-.75.06ZM116.66,83.51l-.06-.75.75-.06.06.75-.75.06ZM119.65,83.25l-.06-.75.75-.06.06.75-.75.06ZM122.64,83l-.06-.75.75-.06.06.75-.75.06ZM125.63,82.75l-.06-.75.75-.06.06.75-.75.06ZM128.62,82.5l-.06-.75.75-.06.06.75-.75.06ZM131.61,82.24l-.06-.75.75-.06.06.75-.75.06ZM134.6,81.99l-.06-.75.75-.06.06.75-.75.06ZM137.59,81.74l-.06-.75.75-.06.06.75-.75.06ZM140.58,81.48l-.06-.75.75-.06.06.75-.75.06ZM143.56,81.23l-.06-.75.75-.06.06.75-.75.06ZM146.55,80.98l-.06-.75.75-.06.06.75-.75.06ZM149.54,80.73l-.06-.75.75-.06.06.75-.75.06ZM152.53,80.47l-.06-.75.75-.06.06.75-.75.06ZM155.52,80.22l-.06-.75.69-.06.03.34.27-.23.42.58-1.35.11ZM154.53,78.13l-.44-.61.61-.44.44.61-.61.44ZM152.78,75.7l-.44-.61.61-.44.44.61-.61.44ZM151.03,73.26l-.44-.61.61-.44.44.61-.61.44ZM149.28,70.82l-.44-.61.61-.44.44.61-.61.44ZM147.53,68.39l-.44-.61.61-.44.44.61-.61.44ZM145.78,65.95l-.44-.61.61-.44.44.61-.61.44ZM144.03,63.51l-.44-.61.61-.44.44.61-.61.44ZM142.28,61.07l-.44-.61.61-.44.44.61-.61.44ZM140.53,58.64l-.44-.61.61-.44.44.61-.61.44ZM138.78,56.2l-.44-.61.61-.44.44.61-.61.44ZM137.03,53.76l-.44-.61.61-.44.44.61-.61.44ZM135.28,51.33l-.44-.61.61-.44.44.61-.61.44ZM133.53,48.89l-.44-.61.61-.44.44.61-.61.44ZM131.78,46.45l-.44-.61.61-.44.44.61-.61.44ZM130.03,44.02l-.44-.61.61-.44.44.61-.61.44ZM128.29,41.58l-.44-.61.61-.44.44.61-.61.44ZM126.54,39.14l-.44-.61.61-.44.44.61-.61.44ZM124.79,36.71l-.44-.61.61-.44.44.61-.61.44ZM123.04,34.27l-.44-.61.61-.44.44.61-.61.44ZM121.29,31.83l-.44-.61.61-.44.44.61-.61.44ZM119.54,29.39l-.44-.61.61-.44.44.61-.61.44ZM117.79,26.96l-.44-.61.61-.44.44.61-.61.44ZM116.04,24.52l-.44-.61.61-.44.44.61-.61.44ZM114.29,22.08l-.44-.61.61-.44.44.61-.61.44ZM112.54,19.65l-.44-.61.61-.44.44.61-.61.44ZM110.79,17.21l-.44-.61.61-.44.44.61-.61.44ZM109.04,14.77l-.44-.61.61-.44.44.61-.61.44Z"/>
    <rect class="cls-2" x="7.65" y=".44" width="1.6" height="73.44"/>
  </g>
  <path class="cls-2" d="M45.3,17.34c0-.67-.15-1.18-.46-1.53-.31-.35-.76-.53-1.35-.53-.32,0-.64.07-.94.2-.31.13-.6.32-.89.56v-.61h-.92v5.45h.92v-4.07c.25-.19.51-.35.79-.47.27-.12.54-.19.79-.19s.44.03.6.1c.15.07.27.17.35.31.08.12.13.3.16.52s.04.45.04.71v3.11h.92v-3.54Z"/>
  <path class="cls-2" d="M34.84,56.03c0-.79-.2-1.4-.6-1.83s-.97-.64-1.7-.64c-.79,0-1.43.26-1.92.79-.49.52-.73,1.23-.73,2.12s.25,1.6.76,2.09c.51.49,1.21.73,2.12.73.35,0,.69-.04,1.02-.13s.64-.2.95-.33v-1h-.05c-.16.14-.43.29-.8.44-.38.15-.75.22-1.12.22-.28,0-.54-.04-.77-.12s-.43-.2-.6-.35c-.18-.16-.31-.36-.42-.61s-.15-.54-.15-.88h4.02v-.5ZM30.82,55.82c.04-.43.2-.79.5-1.08.29-.29.68-.43,1.17-.43s.85.13,1.09.4.36.64.36,1.12h-3.12Z"/>
  <path class="cls-2" d="M103.77,30.76h-.92v2.36c-.24-.13-.48-.22-.7-.28-.22-.06-.48-.09-.76-.09-.32,0-.62.07-.92.2-.29.13-.55.32-.77.57-.22.25-.4.56-.53.92s-.2.77-.2,1.24c0,.89.19,1.58.57,2.08.38.5.9.75,1.55.75.34,0,.65-.06.93-.19.29-.13.56-.3.83-.53v.57h.92v-7.6ZM102.1,37.46c-.27.12-.53.17-.79.17-.49,0-.84-.17-1.06-.51-.22-.34-.33-.83-.33-1.48s.14-1.17.43-1.52c.29-.36.69-.54,1.2-.54.23,0,.44.02.64.06.2.04.42.12.66.23v3.13c-.23.18-.48.33-.75.45Z"/>
  <path class="cls-2" d="M254.86,206.15l-1.36-.74.36-.66,1.36.74-.36.66ZM250.86,203.97l-2.64-1.43.36-.66,2.64,1.43-.36.66ZM245.59,201.11l-2.64-1.43.36-.66,2.64,1.43-.36.66ZM240.32,198.25l-2.64-1.43.36-.66,2.64,1.43-.36.66ZM235.05,195.38l-2.64-1.43.36-.66,2.64,1.43-.36.66ZM229.78,192.51l-2.64-1.43.36-.66,2.64,1.43-.36.66ZM224.5,189.65l-2.64-1.43.36-.66,2.64,1.43-.36.66ZM219.23,186.78l-2.64-1.43.36-.66,2.64,1.43-.36.66ZM213.96,183.92l-2.64-1.43.36-.66,2.64,1.43-.36.66ZM208.69,181.05l-2.64-1.43.36-.66,2.64,1.43-.36.66ZM203.42,178.19l-2.64-1.43.36-.66,2.64,1.43-.36.66ZM198.15,175.32l-2.64-1.43.36-.66,2.64,1.43-.36.66ZM192.87,172.46l-2.64-1.43.36-.66,2.64,1.43-.36.66ZM187.6,169.59l-2.64-1.43.36-.66,2.64,1.43-.36.66ZM182.33,166.73l-2.64-1.43.36-.66,2.64,1.43-.36.66ZM177.06,163.86l-2.64-1.43.36-.66,2.64,1.43-.36.66ZM171.79,161l-2.64-1.43.36-.66,2.64,1.43-.36.66ZM166.51,158.13l-2.64-1.43.36-.66,2.64,1.43-.36.66ZM161.24,155.27l-2.64-1.43.36-.66,2.64,1.43-.36.66ZM155.97,152.4l-2.64-1.43.36-.66,2.64,1.43-.36.66ZM150.7,149.54l-2.64-1.43.36-.66,2.64,1.43-.36.66ZM145.43,146.67l-2.64-1.43.36-.66,2.64,1.43-.36.66ZM140.16,143.81l-2.64-1.43.36-.66,2.64,1.43-.36.66Z"/>
  <polygon class="cls-3" points="248.45 202.23 244.38 203.44 255.03 205.82 247.24 198.17 248.45 202.23"/>
  <path class="cls-2" d="M256.31,206.51l-13.53-3.02,5.17-1.53-1.53-5.16,9.89,9.71ZM245.97,203.38l7.79,1.74-5.69-5.59.88,2.97-2.97.88Z"/>
  <path class="cls-2" d="M241.11,188.7l-81.63-105.16.59-.46,81.63,105.16-.59.46ZM136.11,141.62L7.25,71.2l.36-.66,128.86,70.42-.36.66Z"/>
  <polygon class="cls-3" points="164.38 89.24 168.59 89.77 159.78 83.32 163.85 93.45 164.38 89.24"/>
  <path class="cls-2" d="M164.05,95.03l-5.17-12.86,11.18,8.19-5.34-.67-.67,5.34ZM160.67,84.47l2.97,7.4.39-3.07,3.07.39-6.44-4.71Z"/>
  <path class="cls-2" d="M255.54,206.66l-1.89-2.33.58-.47,1.89,2.33-.58.47ZM251.77,202l-1.89-2.33.58-.47,1.89,2.33-.58.47ZM247.99,197.33l-1.89-2.33.58-.47,1.89,2.33-.58.47ZM244.22,192.67l-1.89-2.33.58-.47,1.89,2.33-.58.47Z"/>
  <rect class="cls-2" x="82.22" y="2.4" width=".75" height="149.02" transform="translate(.55 154.4) rotate(-86.32)"/>
  <polygon class="cls-3" points="149.47 81.21 146.28 84.01 156.95 81.69 146.67 78.02 149.47 81.21"/>
  <path class="cls-2" d="M144.86,84.73l4.05-3.56-3.55-4.05,13.06,4.66-13.55,2.95ZM147.99,78.91l2.05,2.33-2.33,2.04,7.79-1.69-7.51-2.68Z"/>
  <rect class="cls-2" x="108.65" y="16.05" width=".75" height="40.15"/>
  <polygon class="cls-3" points="109.03 53.2 107.53 51.7 109.03 56.95 110.53 51.7 109.03 53.2"/>
  <path class="cls-2" d="M109.03,57.68l-1.9-6.67,1.9,1.9,1.9-1.9-1.9,6.67ZM107.93,52.39l1.1,3.83,1.1-3.83-1.1,1.1-1.1-1.1Z"/>
  <polygon class="cls-3" points="109.03 19.05 110.53 20.55 109.03 15.3 107.53 20.55 109.03 19.05"/>
  <path class="cls-2" d="M110.93,21.24l-1.9-1.9-1.9,1.9,1.9-6.67,1.9,6.67ZM109.03,18.77l1.1,1.1-1.1-3.83-1.1,3.83,1.1-1.1Z"/>
  <rect class="cls-2" x="9.87" y="21.64" width="99.85" height=".75" transform="translate(-2.38 8.06) rotate(-7.56)"/>
  <polygon class="cls-3" points="13.27 28.19 14.56 26.51 9.55 28.68 14.96 29.48 13.27 28.19"/>
  <path class="cls-2" d="M15.69,29.79l-6.86-1.01,6.36-2.76-1.64,2.14,2.14,1.64ZM10.28,28.59l3.95.58-1.23-.94.94-1.23-3.66,1.59Z"/>
  <polygon class="cls-3" points="106.3 15.83 105.02 17.52 110.02 15.34 104.62 14.54 106.3 15.83"/>
  <path class="cls-2" d="M104.39,18.01l1.64-2.14-2.13-1.64,6.85,1.01-6.36,2.77ZM105.35,14.85l1.23.95-.94,1.23,3.66-1.59-3.95-.58Z"/>
  <rect class="cls-2" x="27.74" y="23.69" width=".75" height="70.52" transform="translate(-27.74 25.1) rotate(-33.29)"/>
  <polygon class="cls-3" points="10.41 31.98 12.49 32.41 8.35 28.85 9.98 34.06 10.41 31.98"/>
  <path class="cls-2" d="M10.02,34.86l-2.07-6.61,5.25,4.52-2.64-.55-.55,2.64ZM8.75,29.46l1.19,3.81.31-1.52,1.52.31-3.02-2.6Z"/>
  <polygon class="cls-3" points="45.82 85.92 43.74 85.49 47.88 89.05 46.25 83.84 45.82 85.92"/>
  <path class="cls-2" d="M48.27,89.66l-5.25-4.53,2.64.55.55-2.64,2.06,6.62ZM44.46,85.84l3.02,2.6-1.19-3.8-.31,1.51-1.52-.31Z"/>
  <polygon class="cls-2" points="460.05 328.93 463.48 324.63 461.76 324.63 459.29 327.93 456.83 324.63 454.98 324.63 458.35 329 454.95 333.36 456.66 333.36 459.15 330 461.63 333.36 463.48 333.36 460.05 328.93"/>
  <polygon class="cls-2" points="258.22 322.72 252.98 322.72 258.09 316.29 258.09 315.24 251.28 315.24 251.28 316.46 256.26 316.46 251.17 322.88 251.17 323.96 258.22 323.96 258.22 322.72"/>
  <polygon class="cls-2" points="185.34 252.07 182.64 258.53 179.96 252.07 178.36 252.07 181.84 260.37 180.21 264.01 181.78 264.01 186.88 252.07 185.34 252.07"/>
  <path class="cls-2" d="M376.77,279.94l-2.54-1.59.4-.63,2.54,1.59-.4.63ZM371.69,276.75l-2.54-1.59.4-.63,2.54,1.59-.4.63ZM366.61,273.56l-2.54-1.59.4-.63,2.54,1.59-.4.63ZM361.53,270.37l-2.54-1.6.4-.63,2.54,1.6-.4.63ZM356.44,267.18l-2.54-1.6.4-.63,2.54,1.6-.4.63ZM351.36,263.99l-2.54-1.6.4-.63,2.54,1.6-.4.63ZM346.28,260.8l-2.54-1.6.4-.63,2.54,1.6-.4.63ZM341.2,257.61l-2.54-1.6.4-.63,2.54,1.6-.4.63ZM336.12,254.42l-2.54-1.6.4-.63,2.54,1.6-.4.63ZM331.04,251.23l-2.54-1.59.4-.63,2.54,1.59-.4.63ZM325.96,248.04l-2.54-1.59.4-.63,2.54,1.59-.4.63ZM320.88,244.84l-2.54-1.59.4-.63,2.54,1.59-.4.63ZM315.79,241.65l-2.54-1.59.4-.63,2.54,1.59-.4.63ZM254.24,240.35l-.74-.09.23-1.88.74.09-.23,1.88ZM310.71,238.46l-2.54-1.6.4-.63,2.54,1.6-.4.63ZM254.84,235.49l-.74-.09.37-2.98.74.09-.37,2.98ZM305.63,235.27l-2.54-1.6.4-.63,2.54,1.6-.4.63ZM300.55,232.08l-2.54-1.6.4-.63,2.54,1.6-.4.63ZM255.58,229.54l-.74-.09.37-2.98.74.09-.37,2.98ZM295.47,228.89l-2.54-1.6.4-.63,2.54,1.6-.4.63ZM290.39,225.7l-2.54-1.6.4-.63,2.54,1.6-.4.63ZM256.32,223.59l-.74-.09.37-2.98.74.09-.37,2.98ZM285.31,222.51l-2.54-1.6.4-.63,2.54,1.6-.4.63ZM280.22,219.32l-2.54-1.59.4-.63,2.54,1.59-.4.63ZM257.06,217.63l-.74-.09.37-2.98.74.09-.37,2.98ZM275.14,216.13l-2.54-1.59.4-.63,2.54,1.59-.4.63ZM238.65,215.87l-.3-.69,2.75-1.2.3.69-2.75,1.2ZM244.15,213.48l-.3-.69,2.75-1.2.3.69-2.75,1.2ZM270.06,212.94l-2.54-1.59.4-.63,2.54,1.59-.4.63ZM257.8,211.68l-.74-.09.37-2.98.74.09-.37,2.98ZM249.65,211.08l-.3-.69,2.75-1.2.3.69-2.75,1.2ZM264.98,209.75l-2.54-1.59.4-.63,2.54,1.59-.4.63ZM255.15,208.69l-.3-.69,2.75-1.2.3.69-2.75,1.2ZM259.9,206.56l-1.36-.85v.02s-.75-.09-.75-.09l.04-.37-.48-.3.4-.63.19.12.22-1.79.74.09-.27,2.14,1.65,1.04-.4.63ZM260.65,206.29l-.3-.69,2.75-1.2.3.69-2.75,1.2ZM266.15,203.9l-.3-.69,2.75-1.2.3.69-2.75,1.2ZM254.82,203.37l-2.54-1.6.4-.63,2.54,1.6-.4.63ZM271.66,201.51l-.3-.69,2.75-1.2.3.69-2.75,1.2ZM249.74,200.18l-2.54-1.6.4-.63,2.54,1.6-.4.63ZM259.28,199.77l-.74-.09.37-2.98.74.09-.37,2.98ZM277.16,199.11l-.3-.69,2.75-1.2.3.69-2.75,1.2ZM244.65,196.99l-2.54-1.6.4-.63,2.54,1.6-.4.63ZM282.66,196.72l-.3-.69,2.75-1.2.3.69-2.75,1.2ZM288.16,194.33l-.3-.69,2.75-1.2.3.69-2.75,1.2ZM239.57,193.8l-2.54-1.6.4-.63,2.54,1.6-.4.63ZM234.49,190.61l-2.54-1.6.4-.63,2.54,1.6-.4.63ZM229.41,187.42l-2.54-1.59.4-.63,2.54,1.59-.4.63ZM224.33,184.22l-2.54-1.59.4-.63,2.54,1.59-.4.63ZM219.25,181.03l-2.54-1.59.4-.63,2.54,1.59-.4.63ZM214.17,177.84l-2.54-1.59.4-.63,2.54,1.59-.4.63ZM209.08,174.65l-2.54-1.59.4-.63,2.54,1.59-.4.63ZM204,171.46l-2.54-1.6.4-.63,2.54,1.6-.4.63ZM198.92,168.27l-2.54-1.6.4-.63,2.54,1.6-.4.63ZM193.84,165.08l-2.54-1.6.4-.63,2.54,1.6-.4.63ZM188.76,161.89l-2.54-1.6.4-.63,2.54,1.6-.4.63ZM183.68,158.7l-2.54-1.6.4-.63,2.54,1.6-.4.63ZM178.6,155.51l-2.54-1.6.4-.63,2.54,1.6-.4.63ZM173.52,152.32l-2.54-1.6.4-.63,2.54,1.6-.4.63ZM168.43,149.13l-2.54-1.6.4-.63,2.54,1.6-.4.63ZM163.35,145.94l-2.54-1.6.4-.63,2.54,1.6-.4.63ZM158.27,142.75l-2.54-1.6.4-.63,2.54,1.6-.4.63ZM153.19,139.56l-2.54-1.6.4-.63,2.54,1.6-.4.63ZM148.11,136.37l-2.54-1.6.4-.63,2.54,1.6-.4.63ZM143.03,133.18l-2.54-1.6.4-.63,2.54,1.6-.4.63ZM137.95,129.99l-2.54-1.6.4-.63,2.54,1.6-.4.63ZM132.86,126.8l-2.54-1.6.4-.63,2.54,1.6-.4.63Z"/>
</svg>