<?xml version="1.0" encoding="UTF-8"?>
<svg id="Layer_1" data-name="Layer 1" xmlns="http://www.w3.org/2000/svg" viewBox="0 0 148.59 227.7">
  <defs>
    <style>
      .cls-1 {
        fill: #231f20;
      }
    </style>
  </defs>
  <polygon class="cls-1" points="117.62 195.72 101.53 177.91 101.97 177.51 101.42 177.29 107.49 161.74 74.17 171 74.01 170.42 73.45 170.21 86.04 138 52.72 147.26 52.56 146.68 52 146.46 64.58 114.25 31.27 123.51 31.11 122.93 30.55 122.72 43.13 90.51 27.05 94.98 27.04 94.94 26.21 95.69 10.12 77.88 11.01 77.08 27 94.78 26.73 93.82 43.97 89.03 44.13 89.61 44.69 89.83 32.1 122.03 65.42 112.78 65.58 113.35 66.14 113.57 53.56 145.78 86.87 136.52 87.03 137.1 87.59 137.32 75.01 169.52 108.32 160.27 108.48 160.85 109.04 161.06 102.67 177.38 118.51 194.91 117.62 195.72"/>
  <path class="cls-1" d="M129.39,227.7c-10.59,0-19.2-8.61-19.2-19.2s8.61-19.2,19.2-19.2,19.2,8.61,19.2,19.2-8.61,19.2-19.2,19.2ZM129.39,191.3c-9.48,0-17.2,7.72-17.2,17.2s7.72,17.2,17.2,17.2,17.2-7.72,17.2-17.2-7.72-17.2-17.2-17.2ZM57.34,84.89l-.89-1.79,12.21-6.11H8.89v-1h-1V16.23L1.79,28.44l-1.79-.89L8,11.55l.89.45.89-.45,8,16-1.79.89-6.11-12.21v58.76h58.76l-12.21-6.11.89-1.79,16,8-.45.89.45.89-16,8Z"/>
  <path class="cls-1" d="M75.72,64.01l1.71,2.58c.45.67.82,1.29,1.21,1.96h.07c.4-.72.79-1.34,1.19-1.98l1.69-2.55h2.35l-4.09,5.8,4.21,6.2h-2.48l-1.76-2.7c-.47-.69-.87-1.36-1.29-2.08h-.05c-.4.72-.82,1.36-1.26,2.08l-1.74,2.7h-2.4l4.26-6.12-4.06-5.87h2.43Z"/>
  <path class="cls-1" d="M11.5,0l2.63,7.09c.27.79.57,1.73.77,2.45h.05c.22-.72.47-1.64.77-2.5l2.38-7.04h2.3l-3.27,8.55c-1.56,4.11-2.63,6.22-4.11,7.51-1.07.94-2.13,1.31-2.68,1.41l-.55-1.83c.55-.17,1.26-.52,1.91-1.07.59-.47,1.34-1.31,1.83-2.43.1-.22.17-.4.17-.52s-.05-.3-.15-.57L9.12,0h2.38Z"/>
</svg>