<svg version="1.1" xmlns="http://www.w3.org/2000/svg" viewBox="0 0 1286.8668948464815 233.26653757465897" width="1286.8668948464815" height="233.26653757465897" class="excalidraw-svg">
  <!-- svg-source:excalidraw -->
  
  <defs>
    <style class="style-fonts">
      @font-face {
        font-family: "Virgil";
        src: url("https://excalidraw.com/Virgil.woff2");
      }
      @font-face {
        font-family: "Cascadia";
        src: url("https://excalidraw.com/Cascadia.woff2");
      }
      @font-face {
        font-family: "Assistant";
        src: url("https://excalidraw.com/Assistant-Regular.woff2");
      }
    </style>
    
  </defs>
  <rect x="0" y="0" width="1286.8668948464815" height="233.26653757465897" fill="#ffffff"/><g transform="translate(45.013909154048406 115.04172746214545) rotate(0 44.56315710515264 39.78853312960064)" stroke="none"><path fill="#1e1e1e" d="M -2.88,1.44 Q -2.88,1.44 -3.97,-0.29 -5.07,-2.04 -5.21,-2.45 -5.36,-2.86 -5.40,-3.29 -5.45,-3.73 -5.39,-4.16 -5.32,-4.59 -5.16,-5.00 -5.00,-5.40 -4.74,-5.76 -4.49,-6.11 -4.16,-6.39 -3.82,-6.68 -3.43,-6.87 -3.04,-7.07 -2.62,-7.16 -2.19,-7.26 -1.75,-7.25 -1.32,-7.24 -0.90,-7.13 -0.47,-7.02 -0.09,-6.81 0.28,-6.60 0.60,-6.30 0.92,-6.00 1.16,-5.64 1.41,-5.28 4.20,0.85 7.00,6.99 9.80,15.66 12.59,24.34 17.37,35.07 22.15,45.80 26.92,55.89 31.70,65.98 34.65,72.08 37.61,78.18 40.38,81.23 43.15,84.29 45.38,85.80 47.61,87.32 47.90,87.74 48.18,88.16 48.36,88.63 48.54,89.11 48.59,89.61 48.65,90.12 48.59,90.62 48.52,91.12 48.34,91.59 48.16,92.07 47.87,92.48 47.58,92.90 47.20,93.23 46.82,93.56 46.37,93.80 45.92,94.03 45.42,94.15 44.93,94.26 44.42,94.26 43.92,94.26 43.43,94.13 42.94,94.01 42.49,93.77 42.04,93.53 41.66,93.19 41.29,92.86 41.80,88.47 42.32,84.08 43.52,78.99 44.72,73.90 46.21,67.06 47.70,60.22 50.26,52.51 52.82,44.79 56.70,35.93 60.57,27.06 65.01,18.67 69.44,10.27 72.25,4.94 75.06,-0.38 78.43,-3.99 81.79,-7.60 84.50,-8.93 87.20,-10.26 88.35,-11.72 89.49,-13.18 89.77,-13.50 90.05,-13.82 90.42,-14.03 90.79,-14.25 91.21,-14.33 91.62,-14.42 92.04,-14.36 92.46,-14.31 92.85,-14.12 93.23,-13.94 93.53,-13.64 93.84,-13.34 94.03,-12.97 94.22,-12.59 94.28,-12.17 94.35,-11.75 94.27,-11.33 94.19,-10.91 93.99,-10.54 93.78,-10.17 93.47,-9.88 93.16,-9.59 92.77,-9.42 92.38,-9.25 91.95,-9.21 91.53,-9.17 91.12,-9.27 90.70,-9.37 90.34,-9.59 89.98,-9.82 89.71,-10.15 89.45,-10.48 89.29,-10.87 89.14,-11.27 89.13,-11.70 89.11,-12.12 89.23,-12.53 89.35,-12.93 89.60,-13.28 89.84,-13.63 90.19,-13.88 90.53,-14.13 90.93,-14.26 91.34,-14.39 91.76,-14.38 92.19,-14.38 92.59,-14.23 92.99,-14.09 93.32,-13.83 93.66,-13.56 93.89,-13.21 94.12,-12.85 94.23,-12.44 94.33,-12.03 94.30,-11.61 94.27,-11.18 94.11,-10.79 93.95,-10.40 93.95,-10.40 93.95,-10.40 92.43,-7.61 90.92,-4.82 89.24,-3.44 87.56,-2.07 84.92,0.68 82.27,3.44 79.55,8.80 76.83,14.16 72.55,22.29 68.27,30.42 64.57,38.93 60.86,47.43 58.51,54.73 56.15,62.03 54.69,68.99 53.23,75.95 50.42,81.64 47.61,87.32 47.90,87.74 48.18,88.16 48.36,88.63 48.54,89.11 48.59,89.61 48.65,90.12 48.59,90.62 48.52,91.12 48.34,91.59 48.16,92.07 47.87,92.48 47.58,92.90 47.20,93.23 46.82,93.56 46.37,93.79 45.92,94.03 45.42,94.15 44.93,94.26 44.42,94.26 43.92,94.26 43.43,94.13 42.94,94.01 42.49,93.77 42.04,93.53 41.67,93.19 41.29,92.86 39.07,91.38 36.85,89.90 33.45,85.90 30.06,81.90 27.11,75.72 24.16,69.54 19.36,59.34 14.56,49.14 9.71,37.96 4.87,26.79 2.26,18.39 -0.34,9.99 -2.70,3.97 -5.07,-2.04 -5.21,-2.45 -5.36,-2.86 -5.40,-3.29 -5.45,-3.73 -5.39,-4.16 -5.32,-4.59 -5.16,-5.00 -5.00,-5.40 -4.74,-5.76 -4.49,-6.11 -4.16,-6.39 -3.82,-6.68 -3.43,-6.87 -3.04,-7.07 -2.62,-7.16 -2.19,-7.26 -1.75,-7.25 -1.32,-7.24 -0.90,-7.13 -0.47,-7.02 -0.09,-6.81 0.28,-6.60 0.60,-6.30 0.92,-6.00 1.16,-5.64 1.40,-5.28 2.14,-3.36 2.88,-1.44 3.01,-1.07 3.14,-0.71 3.18,-0.32 3.22,0.06 3.17,0.44 3.11,0.83 2.97,1.19 2.82,1.55 2.60,1.87 2.37,2.18 2.07,2.44 1.78,2.69 1.43,2.86 1.08,3.04 0.70,3.12 0.32,3.21 -0.06,3.20 -0.45,3.19 -0.82,3.09 -1.20,2.99 -1.54,2.80 -1.88,2.61 -2.17,2.35 -2.45,2.09 -2.67,1.76 -2.88,1.44 -2.88,1.44 L -2.88,1.44 Z"/></g><g transform="translate(19.549247951104007 67.29548770662484) rotate(0 62.07011168217696 -23.873119877760303)" stroke="none"><path fill="#1e1e1e" d="M 1.02,3.06 Q 1.02,3.06 -1.77,3.83 -4.56,4.61 -4.90,4.68 -5.25,4.75 -5.60,4.74 -5.96,4.72 -6.30,4.62 -6.64,4.53 -6.94,4.35 -7.25,4.17 -7.51,3.93 -7.76,3.68 -7.95,3.38 -8.14,3.08 -8.25,2.75 -8.36,2.41 -8.39,2.06 -8.42,1.71 -8.36,1.36 -8.30,1.01 -8.17,0.68 -8.03,0.36 -7.81,0.07 -7.60,-0.20 -7.33,-0.42 -7.05,-0.65 -6.73,-0.80 -6.41,-0.95 -3.02,-0.98 0.36,-1.00 2.99,-1.03 5.62,-1.06 11.31,-1.11 17.00,-1.17 24.92,-1.21 32.85,-1.24 41.70,-1.23 50.56,-1.23 59.60,-2.14 68.64,-3.06 77.02,-4.40 85.40,-5.74 91.59,-7.22 97.78,-8.69 103.47,-9.42 109.16,-10.14 112.93,-11.26 116.71,-12.38 119.60,-12.92 122.49,-13.46 124.73,-13.72 126.97,-13.98 128.76,-14.07 130.55,-14.16 131.12,-14.15 131.70,-14.14 132.26,-13.99 132.81,-13.84 133.32,-13.57 133.82,-13.29 134.24,-12.90 134.67,-12.51 134.99,-12.03 135.30,-11.55 135.50,-11.01 135.69,-10.47 135.75,-9.90 135.81,-9.33 135.73,-8.76 135.65,-8.19 135.44,-7.65 135.23,-7.12 134.89,-6.65 134.56,-6.18 134.12,-5.81 133.68,-5.44 133.17,-5.18 132.66,-4.92 132.10,-4.79 131.53,-4.66 129.33,-6.25 127.12,-7.84 124.01,-11.73 120.90,-15.62 117.25,-19.34 113.60,-23.07 110.08,-27.63 106.55,-32.19 102.66,-35.58 98.76,-38.97 96.12,-41.56 93.48,-44.14 91.57,-47.51 89.66,-50.87 89.77,-51.28 89.87,-51.70 90.10,-52.05 90.34,-52.41 90.67,-52.67 91.00,-52.94 91.40,-53.08 91.80,-53.23 92.23,-53.23 92.65,-53.24 93.06,-53.12 93.46,-52.99 93.81,-52.74 94.15,-52.49 94.39,-52.14 94.64,-51.80 94.76,-51.39 94.88,-50.98 94.87,-50.56 94.86,-50.13 94.71,-49.73 94.56,-49.34 94.29,-49.01 94.02,-48.68 93.66,-48.45 93.30,-48.22 92.89,-48.12 92.48,-48.02 92.05,-48.06 91.63,-48.10 91.24,-48.27 90.85,-48.44 90.54,-48.72 90.22,-49.01 90.02,-49.38 89.81,-49.75 89.73,-50.17 89.65,-50.59 89.71,-51.01 89.77,-51.43 89.97,-51.81 90.16,-52.19 90.46,-52.49 90.76,-52.79 91.14,-52.97 91.52,-53.16 91.95,-53.21 92.37,-53.27 92.78,-53.19 93.20,-53.10 93.57,-52.89 93.94,-52.68 94.22,-52.36 94.50,-52.04 94.67,-51.65 94.83,-51.26 94.86,-50.84 94.90,-50.41 94.90,-50.41 94.90,-50.41 97.00,-50.40 99.10,-50.38 101.85,-48.01 104.61,-45.64 109.09,-41.68 113.57,-37.72 116.85,-33.59 120.13,-29.47 123.86,-25.67 127.60,-21.88 130.04,-19.28 132.47,-16.68 133.41,-13.91 134.34,-11.13 132.44,-12.64 130.55,-14.16 131.12,-14.15 131.70,-14.14 132.25,-13.99 132.81,-13.84 133.32,-13.57 133.82,-13.29 134.24,-12.90 134.67,-12.51 134.99,-12.03 135.30,-11.55 135.50,-11.01 135.69,-10.47 135.75,-9.90 135.81,-9.33 135.73,-8.76 135.65,-8.19 135.44,-7.65 135.23,-7.12 134.89,-6.65 134.56,-6.18 134.12,-5.81 133.68,-5.44 133.17,-5.18 132.66,-4.92 132.10,-4.79 131.53,-4.66 127.88,-4.40 124.23,-4.14 121.77,-3.68 119.31,-3.22 114.78,-1.98 110.26,-0.74 105.06,-0.21 99.85,0.30 93.32,1.76 86.78,3.22 78.14,4.49 69.51,5.76 60.03,6.67 50.56,7.58 41.69,7.57 32.83,7.57 24.90,7.51 16.96,7.45 11.18,7.33 5.41,7.21 2.58,7.05 -0.24,6.88 -2.40,5.74 -4.56,4.61 -4.90,4.68 -5.25,4.75 -5.60,4.74 -5.96,4.72 -6.30,4.62 -6.64,4.53 -6.94,4.35 -7.25,4.17 -7.51,3.93 -7.76,3.68 -7.95,3.38 -8.14,3.08 -8.25,2.75 -8.36,2.41 -8.39,2.06 -8.42,1.71 -8.36,1.36 -8.30,1.01 -8.17,0.68 -8.03,0.36 -7.81,0.07 -7.60,-0.20 -7.33,-0.42 -7.05,-0.65 -6.73,-0.80 -6.41,-0.95 -3.71,-2.00 -1.02,-3.06 -0.63,-3.14 -0.25,-3.21 0.13,-3.20 0.51,-3.18 0.89,-3.07 1.26,-2.96 1.60,-2.77 1.94,-2.57 2.22,-2.31 2.50,-2.04 2.70,-1.71 2.91,-1.38 3.04,-1.01 3.16,-0.64 3.19,-0.25 3.22,0.13 3.16,0.51 3.10,0.89 2.94,1.25 2.79,1.61 2.56,1.92 2.32,2.23 2.02,2.48 1.72,2.72 1.37,2.89 1.02,3.06 1.02,3.06 L 1.02,3.06 Z"/></g><g transform="translate(207.35112432281858 156.42180191693) rotate(0 4.774623975552004 -3.1830826503679646)" stroke="none"><path fill="#1e1e1e" d="M 1.44,2.88 Q 1.44,2.88 0.35,2.05 -0.73,1.23 1.95,1.92 4.63,2.62 6.92,2.67 9.21,2.71 10.72,-0.34 12.23,-3.41 10.81,-5.13 9.38,-6.86 7.00,-7.04 4.62,-7.21 1.81,-3.34 -1.00,0.52 1.76,1.53 4.52,2.53 6.69,2.26 8.87,1.99 9.13,-1.13 9.39,-4.27 9.73,-5.57 10.08,-6.87 10.14,-7.18 10.19,-7.50 10.32,-7.79 10.45,-8.07 10.64,-8.33 10.84,-8.58 11.08,-8.77 11.33,-8.97 11.62,-9.10 11.91,-9.23 12.22,-9.29 12.53,-9.35 12.85,-9.33 13.16,-9.32 13.47,-9.22 13.77,-9.13 14.04,-8.97 14.31,-8.81 14.54,-8.58 14.76,-8.36 14.93,-8.09 15.09,-7.82 15.19,-7.52 15.29,-7.22 15.31,-6.90 15.33,-6.59 15.28,-6.31 15.24,-6.04 15.06,-5.66 14.89,-5.27 14.60,-4.96 14.31,-4.65 13.93,-4.45 13.56,-4.25 13.14,-4.17 12.72,-4.10 12.30,-4.17 11.88,-4.23 11.51,-4.43 11.13,-4.63 10.83,-4.93 10.54,-5.24 10.36,-5.63 10.18,-6.01 10.13,-6.43 10.08,-6.86 10.17,-7.27 10.26,-7.69 10.48,-8.05 10.69,-8.42 11.01,-8.69 11.34,-8.97 11.73,-9.13 12.12,-9.29 12.55,-9.32 12.97,-9.34 13.38,-9.23 13.79,-9.12 14.15,-8.88 14.50,-8.65 14.76,-8.31 15.02,-7.97 15.16,-7.57 15.29,-7.17 15.30,-6.75 15.30,-6.32 15.17,-5.92 15.03,-5.51 14.78,-5.17 14.52,-4.83 14.17,-4.59 13.82,-4.35 13.41,-4.24 13.01,-4.12 12.58,-4.14 12.16,-4.16 11.76,-4.32 11.36,-4.47 11.04,-4.74 10.71,-5.02 10.49,-5.38 10.27,-5.74 10.18,-6.16 10.08,-6.57 10.08,-6.72 10.08,-6.87 10.14,-7.18 10.19,-7.50 10.32,-7.79 10.45,-8.07 10.64,-8.32 10.84,-8.58 11.08,-8.77 11.33,-8.97 11.62,-9.10 11.91,-9.23 12.22,-9.29 12.53,-9.35 12.85,-9.33 13.16,-9.32 13.47,-9.22 13.77,-9.13 14.04,-8.97 14.31,-8.81 14.54,-8.58 14.76,-8.36 14.93,-8.09 15.09,-7.82 15.19,-7.52 15.29,-7.22 15.31,-6.90 15.33,-6.59 15.57,-5.25 15.82,-3.92 15.52,-0.45 15.22,3.02 14.30,4.94 13.37,6.87 11.34,8.11 9.30,9.34 4.15,8.71 -0.99,8.09 -3.30,6.49 -5.62,4.89 -6.07,1.39 -6.52,-2.10 -4.50,-5.24 -2.48,-8.37 0.19,-10.78 2.88,-13.18 6.43,-13.57 9.99,-13.96 12.46,-12.40 14.93,-10.85 17.04,-7.34 19.14,-3.83 19.08,-1.58 19.01,0.66 18.27,3.68 17.54,6.69 15.70,8.12 13.86,9.56 11.42,9.66 8.97,9.76 4.54,9.35 0.10,8.94 -1.83,8.04 -3.77,7.15 -5.18,4.79 -6.58,2.43 -4.01,-0.22 -1.44,-2.88 -1.07,-3.01 -0.71,-3.14 -0.32,-3.18 0.06,-3.22 0.44,-3.17 0.83,-3.11 1.19,-2.97 1.55,-2.82 1.87,-2.60 2.18,-2.37 2.44,-2.07 2.69,-1.78 2.86,-1.43 3.04,-1.08 3.12,-0.70 3.21,-0.32 3.20,0.06 3.19,0.45 3.09,0.82 2.99,1.20 2.80,1.54 2.61,1.88 2.35,2.17 2.09,2.45 1.76,2.67 1.44,2.88 1.44,2.88 L 1.44,2.88 Z"/></g><g transform="translate(299.66052118349194 102.30939686067336) rotate(0 54.11240505625665 41.38007445478456)" stroke="none"><path fill="#1e1e1e" d="M 0,3.22 Q 0,3.22 -2.53,3.15 -5.06,3.07 -5.51,6.26 -5.95,9.45 -5.17,12.73 -4.40,16.02 -3.16,22.22 -1.92,28.42 0.39,35.44 2.71,42.47 5.52,50.04 8.34,57.61 12.12,63.28 15.91,68.94 19.17,72.14 22.44,75.34 25.31,76.52 28.19,77.69 32.30,77.58 36.41,77.46 38.88,75.55 41.35,73.63 43.18,71.19 45.02,68.75 46.67,65.18 48.32,61.61 50.98,57.06 53.64,52.50 55.58,48.08 57.51,43.66 58.26,39.32 59.01,34.98 60.33,30.10 61.64,25.22 62.17,21.70 62.70,18.19 61.82,15.72 60.94,13.24 60.83,12.84 60.71,12.45 60.70,12.04 60.69,11.63 60.77,11.22 60.86,10.82 61.04,10.45 61.21,10.08 61.48,9.76 61.74,9.45 62.07,9.20 62.40,8.96 62.78,8.80 63.16,8.64 63.57,8.58 63.97,8.51 64.38,8.55 64.79,8.59 65.18,8.72 65.57,8.85 65.92,9.07 66.26,9.30 66.55,9.59 66.83,9.89 67.03,10.25 67.23,10.61 67.10,14.79 66.96,18.97 66.96,23.57 66.97,28.18 67.90,33.52 68.83,38.86 71.87,45.34 74.92,51.83 79.55,56.01 84.19,60.20 89.26,61.75 94.34,63.31 98.60,62.45 102.87,61.59 106.33,58.92 109.79,56.25 111.46,54.46 113.14,52.67 113.45,52.38 113.76,52.08 114.14,51.91 114.53,51.73 114.95,51.68 115.37,51.64 115.79,51.73 116.20,51.82 116.57,52.04 116.93,52.26 117.21,52.58 117.48,52.91 117.64,53.30 117.80,53.70 117.82,54.12 117.84,54.55 117.73,54.96 117.61,55.36 117.37,55.72 117.14,56.07 116.80,56.32 116.46,56.58 116.06,56.72 115.65,56.85 115.23,56.85 114.80,56.85 114.40,56.72 114.00,56.58 113.66,56.32 113.32,56.06 113.08,55.71 112.85,55.36 112.73,54.95 112.62,54.54 112.64,54.12 112.67,53.69 112.82,53.30 112.98,52.90 113.26,52.58 113.53,52.26 113.90,52.04 114.26,51.82 114.68,51.73 115.09,51.64 115.51,51.68 115.94,51.73 116.32,51.91 116.71,52.09 117.01,52.38 117.32,52.67 117.52,53.05 117.72,53.42 117.79,53.84 117.86,54.26 117.79,54.68 117.72,55.10 117.52,55.48 117.32,55.85 117.32,55.85 117.32,55.85 115.56,58.57 113.80,61.30 109.18,64.94 104.55,68.57 98.41,69.65 92.28,70.72 85.79,68.20 79.30,65.69 73.95,60.29 68.59,54.89 65.38,47.44 62.16,40.00 61.27,34.09 60.37,28.18 60.40,23.54 60.42,18.90 60.68,16.07 60.94,13.24 60.83,12.85 60.71,12.45 60.70,12.04 60.69,11.63 60.77,11.22 60.86,10.82 61.04,10.45 61.21,10.08 61.48,9.76 61.74,9.45 62.07,9.20 62.40,8.96 62.78,8.80 63.16,8.64 63.57,8.58 63.97,8.51 64.38,8.55 64.79,8.59 65.18,8.72 65.57,8.85 65.92,9.07 66.26,9.30 66.55,9.59 66.83,9.89 67.03,10.25 67.23,10.61 67.51,12.23 67.79,13.86 68.58,16.25 69.37,18.64 68.81,22.82 68.25,27.00 67.00,31.61 65.75,36.22 64.78,41.30 63.81,46.38 61.69,51.19 59.57,56.01 56.99,60.26 54.42,64.51 52.37,68.75 50.32,72.98 47.75,75.99 45.18,79.01 41.59,81.30 38.00,83.60 34.47,84.23 30.93,84.87 28.29,84.17 25.64,83.47 21.88,81.70 18.11,79.94 14.35,76.21 10.59,72.49 6.48,66.18 2.37,59.86 -0.49,52.16 -3.35,44.46 -5.76,37.09 -8.18,29.71 -9.47,23.56 -10.77,17.42 -11.64,13.19 -12.51,8.96 -12.21,6.13 -11.90,3.30 -10.91,1.41 -9.93,-0.47 -7.92,-1.77 -5.91,-3.07 -2.95,-3.15 0,-3.22 0.38,-3.18 0.77,-3.13 1.13,-2.99 1.50,-2.85 1.82,-2.63 2.14,-2.41 2.39,-2.12 2.65,-1.83 2.83,-1.48 3.01,-1.14 3.11,-0.76 3.20,-0.38 3.20,0.00 3.20,0.38 3.11,0.76 3.01,1.14 2.83,1.48 2.65,1.83 2.39,2.12 2.14,2.41 1.82,2.63 1.49,2.85 1.13,2.99 0.77,3.13 0.38,3.18 -0.00,3.22 -0.00,3.22 L 0,3.22 Z"/></g><g transform="translate(280.5620252812837 57.74623975552072) rotate(0 58.887029031808765 -23.87311987776036)" stroke="none"><path fill="#1e1e1e" d="M 0,-3.22 Q 0,-3.22 8.23,-3.36 16.47,-3.49 26.37,-3.58 36.28,-3.67 47.66,-4.62 59.05,-5.56 69.52,-5.95 79.99,-6.34 87.17,-6.53 94.36,-6.71 99.27,-6.83 104.17,-6.94 108.54,-6.11 112.90,-5.29 114.19,-1.88 115.48,1.52 111.70,0.13 107.91,-1.25 106.16,-2.74 104.42,-4.23 102.25,-5.49 100.08,-6.74 96.22,-9.26 92.36,-11.77 87.01,-15.65 81.67,-19.53 75.78,-23.96 69.90,-28.38 65.72,-31.17 61.54,-33.97 59.40,-36.54 57.26,-39.11 57.39,-43.65 57.52,-48.20 57.83,-48.49 58.14,-48.78 58.52,-48.96 58.91,-49.14 59.33,-49.18 59.75,-49.23 60.17,-49.14 60.58,-49.05 60.95,-48.83 61.31,-48.61 61.59,-48.29 61.86,-47.96 62.02,-47.57 62.18,-47.17 62.20,-46.75 62.22,-46.33 62.11,-45.92 62.00,-45.51 61.76,-45.15 61.52,-44.80 61.18,-44.55 60.84,-44.29 60.44,-44.15 60.04,-44.02 59.61,-44.02 59.19,-44.02 58.79,-44.15 58.38,-44.29 58.05,-44.54 57.71,-44.80 57.47,-45.15 57.23,-45.50 57.12,-45.91 57.00,-46.32 57.02,-46.75 57.05,-47.17 57.20,-47.57 57.36,-47.96 57.64,-48.29 57.91,-48.61 58.28,-48.83 58.64,-49.05 59.06,-49.14 59.47,-49.23 59.89,-49.18 60.31,-49.14 60.70,-48.96 61.09,-48.78 61.40,-48.49 61.70,-48.20 61.90,-47.82 62.10,-47.45 62.17,-47.03 62.24,-46.61 62.17,-46.19 62.10,-45.77 61.90,-45.39 61.70,-45.02 61.70,-45.02 61.71,-45.02 62.24,-44.42 62.77,-43.83 64.32,-42.22 65.87,-40.60 70.37,-37.86 74.87,-35.12 80.79,-30.83 86.71,-26.55 91.91,-22.84 97.12,-19.14 100.86,-16.74 104.60,-14.34 107.40,-12.63 110.19,-10.93 112.09,-9.14 113.99,-7.34 116.76,-6.50 119.53,-5.65 120.17,-2.49 120.80,0.67 115.95,1.67 111.10,2.67 107.66,1.73 104.23,0.78 99.38,0.81 94.54,0.83 87.40,0.98 80.27,1.13 69.95,1.51 59.64,1.90 47.96,2.79 36.28,3.67 26.37,3.58 16.47,3.49 8.23,3.36 0,3.22 -0.38,3.18 -0.77,3.13 -1.13,2.99 -1.50,2.85 -1.82,2.63 -2.14,2.41 -2.39,2.12 -2.65,1.83 -2.83,1.48 -3.01,1.14 -3.11,0.76 -3.20,0.38 -3.20,-0.00 -3.20,-0.38 -3.11,-0.76 -3.01,-1.14 -2.83,-1.48 -2.65,-1.83 -2.39,-2.12 -2.14,-2.41 -1.82,-2.63 -1.49,-2.85 -1.13,-2.99 -0.77,-3.13 -0.38,-3.18 0.00,-3.22 0.00,-3.22 L 0,-3.22 Z"/></g><g transform="translate(477.9131496041023 175.52029781913836) rotate(0 30.239285178496516 -4.7746239755520605)" stroke="none"><path fill="#1e1e1e" d="M -2.28,-2.28 Q -2.28,-2.28 -1.66,-3.57 -1.04,-4.87 2.70,-6.69 6.44,-8.51 11.05,-9.23 15.65,-9.94 20.32,-10.01 24.99,-10.08 30.63,-10.01 36.27,-9.94 41.40,-9.83 46.52,-9.72 51.43,-9.48 56.34,-9.23 58.98,-9.96 61.63,-10.69 62.05,-10.75 62.47,-10.81 62.89,-10.73 63.30,-10.65 63.67,-10.44 64.04,-10.23 64.33,-9.91 64.61,-9.59 64.78,-9.20 64.95,-8.81 64.98,-8.39 65.02,-7.97 64.91,-7.55 64.81,-7.14 64.58,-6.78 64.35,-6.43 64.02,-6.16 63.69,-5.89 63.29,-5.75 62.89,-5.60 62.47,-5.59 62.04,-5.58 61.64,-5.70 61.23,-5.83 60.89,-6.07 60.54,-6.32 60.29,-6.67 60.04,-7.01 59.92,-7.42 59.80,-7.83 59.81,-8.25 59.82,-8.68 59.96,-9.07 60.11,-9.47 60.38,-9.80 60.64,-10.14 61.00,-10.36 61.36,-10.59 61.77,-10.70 62.18,-10.80 62.61,-10.76 63.03,-10.73 63.42,-10.56 63.81,-10.39 64.13,-10.11 64.45,-9.83 64.65,-9.46 64.86,-9.09 64.94,-8.67 65.02,-8.25 64.97,-7.83 64.91,-7.41 64.72,-7.03 64.53,-6.65 64.23,-6.35 63.93,-6.05 63.55,-5.86 63.17,-5.67 63.17,-5.67 63.17,-5.67 59.80,-4.55 56.43,-3.44 51.51,-3.15 46.58,-2.87 41.49,-2.68 36.40,-2.49 30.91,-2.22 25.42,-1.95 21.13,-1.54 16.85,-1.14 13.30,-0.75 9.75,-0.36 7.22,0.42 4.70,1.21 3.49,1.74 2.28,2.28 1.97,2.52 1.67,2.76 1.31,2.92 0.96,3.08 0.57,3.15 0.19,3.22 -0.19,3.19 -0.58,3.17 -0.95,3.05 -1.32,2.94 -1.65,2.74 -1.99,2.54 -2.26,2.26 -2.54,1.99 -2.74,1.65 -2.94,1.32 -3.05,0.95 -3.17,0.58 -3.19,0.19 -3.22,-0.19 -3.15,-0.57 -3.08,-0.96 -2.92,-1.31 -2.76,-1.67 -2.52,-1.97 -2.28,-2.28 -2.28,-2.28 L -2.28,-2.28 Z"/></g><g transform="translate(487.4623975552065 143.68947131545792) rotate(0 28.647743853312363 3.1830826503680214)" stroke="none"><path fill="#1e1e1e" d="M 1.79,-2.68 Q 1.79,-2.68 4.61,-1.10 7.44,0.47 11.60,0.88 15.77,1.29 22.17,1.80 28.57,2.31 36.66,1.88 44.74,1.46 49.23,1.25 53.71,1.05 54.13,1.08 54.55,1.12 54.94,1.29 55.33,1.46 55.65,1.75 55.96,2.03 56.17,2.41 56.37,2.78 56.45,3.20 56.53,3.61 56.47,4.03 56.41,4.45 56.22,4.83 56.02,5.21 55.72,5.51 55.42,5.81 55.04,6.00 54.65,6.18 54.23,6.24 53.81,6.29 53.39,6.21 52.98,6.12 52.61,5.91 52.24,5.70 51.96,5.38 51.68,5.06 51.51,4.67 51.35,4.28 51.32,3.86 51.29,3.43 51.39,3.02 51.50,2.61 51.73,2.25 51.96,1.90 52.29,1.63 52.63,1.37 53.03,1.23 53.43,1.08 53.85,1.07 54.28,1.06 54.68,1.19 55.09,1.32 55.43,1.57 55.77,1.82 56.02,2.17 56.26,2.52 56.39,2.92 56.51,3.33 56.49,3.75 56.48,4.18 56.33,4.58 56.18,4.97 55.91,5.30 55.64,5.63 55.28,5.86 54.92,6.09 54.51,6.18 54.09,6.28 54.10,6.28 54.10,6.28 49.69,6.74 45.28,7.19 36.75,8.31 28.22,9.44 21.37,9.29 14.51,9.13 9.02,7.99 3.53,6.84 0.87,4.76 -1.79,2.68 -2.08,2.43 -2.38,2.17 -2.60,1.86 -2.83,1.54 -2.97,1.18 -3.12,0.82 -3.17,0.43 -3.22,0.05 -3.18,-0.33 -3.14,-0.72 -3.01,-1.08 -2.88,-1.45 -2.66,-1.77 -2.45,-2.10 -2.16,-2.36 -1.87,-2.62 -1.53,-2.81 -1.19,-2.99 -0.81,-3.09 -0.44,-3.19 -0.05,-3.20 0.33,-3.21 0.71,-3.12 1.09,-3.03 1.44,-2.86 1.79,-2.68 1.79,-2.68 L 1.79,-2.68 Z"/></g><g transform="translate(630.7011168217684 92.76014890956924) rotate(0 -6.366165300736043 65.25319433254487)" stroke="none"><path fill="#1e1e1e" d="M 2.99,1.19 Q 2.99,1.19 1.14,5.76 -0.70,10.32 -1.40,13.82 -2.11,17.33 -2.36,24.18 -2.60,31.04 -1.75,41.17 -0.90,51.31 -1.43,63.24 -1.96,75.17 -3.12,85.74 -4.29,96.32 -5.82,105.40 -7.36,114.49 -8.07,119.11 -8.78,123.74 -8.07,125.73 -7.35,127.73 -7.43,128.04 -7.51,128.35 -7.66,128.63 -7.80,128.90 -8.02,129.14 -8.23,129.38 -8.49,129.56 -8.75,129.73 -9.05,129.84 -9.34,129.96 -9.66,129.99 -9.97,130.03 -10.29,129.99 -10.60,129.95 -10.90,129.84 -11.19,129.72 -11.45,129.54 -11.71,129.36 -11.92,129.12 -12.13,128.88 -12.27,128.60 -12.42,128.32 -12.49,128.01 -12.57,127.71 -12.57,127.39 -12.57,127.07 -11.10,125.93 -9.63,124.80 -9.23,124.92 -8.82,125.04 -8.47,125.28 -8.12,125.53 -7.87,125.87 -7.62,126.21 -7.49,126.62 -7.36,127.02 -7.37,127.44 -7.37,127.87 -7.52,128.27 -7.66,128.67 -7.92,129.00 -8.18,129.34 -8.54,129.57 -8.90,129.80 -9.31,129.91 -9.72,130.02 -10.14,129.99 -10.57,129.96 -10.96,129.79 -11.35,129.63 -11.67,129.35 -11.99,129.07 -12.20,128.70 -12.41,128.33 -12.50,127.92 -12.58,127.50 -12.53,127.08 -12.48,126.66 -12.29,126.28 -12.11,125.89 -11.81,125.59 -11.51,125.29 -11.14,125.09 -10.76,124.90 -10.34,124.84 -9.92,124.78 -9.50,124.85 -9.08,124.93 -8.71,125.13 -8.34,125.34 -8.05,125.65 -7.76,125.96 -7.59,126.35 -7.42,126.74 -7.38,127.16 -7.34,127.59 -7.44,128.00 -7.54,128.42 -7.76,128.78 -7.99,129.14 -8.31,129.41 -8.64,129.68 -9.04,129.83 -9.44,129.98 -8.40,128.85 -7.35,127.73 -7.43,128.04 -7.51,128.35 -7.66,128.62 -7.80,128.90 -8.02,129.14 -8.23,129.38 -8.49,129.56 -8.75,129.73 -9.05,129.84 -9.34,129.96 -9.66,129.99 -9.97,130.03 -10.29,129.99 -10.60,129.95 -10.90,129.84 -11.19,129.72 -11.45,129.54 -11.71,129.36 -11.92,129.12 -12.13,128.88 -12.27,128.60 -12.42,128.32 -12.49,128.01 -12.57,127.71 -12.57,127.39 -12.57,127.07 -13.73,125.15 -14.90,123.22 -14.41,118.34 -13.93,113.46 -12.64,104.50 -11.36,95.53 -10.20,85.17 -9.03,74.81 -8.39,63.31 -7.74,51.81 -8.44,41.27 -9.14,30.74 -8.73,23.40 -8.31,16.06 -7.46,12.02 -6.62,7.97 -4.80,3.38 -2.99,-1.19 -2.81,-1.54 -2.62,-1.88 -2.35,-2.16 -2.09,-2.45 -1.77,-2.66 -1.44,-2.88 -1.08,-3.01 -0.71,-3.14 -0.32,-3.18 0.05,-3.22 0.44,-3.17 0.82,-3.11 1.19,-2.97 1.55,-2.83 1.86,-2.60 2.18,-2.37 2.43,-2.08 2.68,-1.78 2.86,-1.43 3.03,-1.08 3.12,-0.71 3.21,-0.33 3.20,0.05 3.19,0.44 3.09,0.82 2.99,1.19 2.99,1.19 L 2.99,1.19 Z"/></g><g transform="translate(678.4473565772892 108.6755621614094) rotate(0 38.19699180441637 46.15469843033662)" stroke="none"><path fill="#1e1e1e" d="M 3.19,0.45 Q 3.19,0.45 2.29,6.86 1.38,13.26 0.99,22.23 0.61,31.20 0.40,40.52 0.20,49.84 1.87,57.10 3.53,64.36 5.83,67.98 8.12,71.61 11.20,72.86 14.27,74.10 17.82,72.92 21.38,71.73 26.48,68.68 31.58,65.63 36.36,60.85 41.14,56.07 44.95,50.53 48.75,44.99 50.25,40.17 51.75,35.36 52.46,32.57 53.18,29.79 52.33,33.30 51.48,36.82 51.20,40.85 50.92,44.89 51.03,51.17 51.15,57.45 53.03,63.32 54.91,69.19 57.38,74.34 59.85,79.50 62.22,82.23 64.60,84.97 69.16,83.90 73.72,82.84 74.12,82.71 74.53,82.58 74.95,82.58 75.38,82.58 75.78,82.72 76.18,82.86 76.52,83.12 76.85,83.38 77.09,83.73 77.33,84.09 77.44,84.50 77.55,84.91 77.52,85.33 77.50,85.76 77.34,86.15 77.18,86.54 76.90,86.86 76.62,87.19 76.25,87.40 75.89,87.62 75.47,87.71 75.06,87.80 74.64,87.75 74.21,87.70 73.83,87.52 73.44,87.34 73.14,87.04 72.83,86.75 72.64,86.37 72.44,85.99 72.37,85.57 72.31,85.15 72.38,84.74 72.45,84.32 72.65,83.94 72.85,83.57 73.17,83.28 73.48,82.99 73.86,82.81 74.25,82.64 74.67,82.59 75.10,82.55 75.51,82.65 75.92,82.74 76.29,82.96 76.65,83.18 76.92,83.51 77.19,83.83 77.35,84.23 77.50,84.63 77.52,85.05 77.54,85.48 77.43,85.88 77.31,86.29 77.07,86.64 76.83,86.99 76.49,87.25 76.15,87.50 76.15,87.50 76.15,87.50 72.36,89.50 68.56,91.50 64.49,90.79 60.42,90.09 56.93,86.36 53.45,82.63 50.74,76.89 48.03,71.14 46.34,64.28 44.66,57.42 44.99,50.98 45.32,44.55 45.55,40.18 45.78,35.82 46.69,31.80 47.60,27.79 49.51,25.97 51.42,24.16 54.45,24.97 57.49,25.79 58.38,28.08 59.27,30.38 58.54,33.85 57.81,37.33 55.91,42.93 54.02,48.53 49.84,54.58 45.66,60.62 40.25,65.89 34.84,71.15 28.90,74.51 22.96,77.87 17.76,78.84 12.56,79.81 7.95,77.52 3.34,75.23 0.48,70.53 -2.37,65.83 -4.22,57.80 -6.08,49.77 -5.95,40.35 -5.82,30.93 -5.43,21.64 -5.04,12.35 -4.12,5.94 -3.19,-0.45 -3.09,-0.83 -2.99,-1.20 -2.80,-1.54 -2.61,-1.88 -2.35,-2.17 -2.08,-2.46 -1.76,-2.67 -1.43,-2.88 -1.07,-3.01 -0.70,-3.14 -0.31,-3.18 0.06,-3.22 0.45,-3.17 0.83,-3.11 1.19,-2.97 1.56,-2.82 1.87,-2.59 2.19,-2.37 2.44,-2.07 2.69,-1.77 2.86,-1.42 3.04,-1.08 3.12,-0.70 3.21,-0.32 3.20,0.06 3.19,0.45 3.19,0.45 L 3.19,0.45 Z"/></g><g transform="translate(786.6721666898025 124.59097541324957) rotate(0 4.774623975552231 44.5631571051527)" stroke="none"><path fill="#1e1e1e" d="M 3.18,-0.53 Q 3.18,-0.53 4.14,4.95 5.09,10.43 5.52,19.37 5.95,28.31 6.13,39.39 6.32,50.47 7.27,59.59 8.22,68.71 8.50,75.40 8.78,82.10 10.13,84.01 11.48,85.92 11.46,86.23 11.44,86.55 11.35,86.85 11.26,87.15 11.09,87.43 10.93,87.70 10.71,87.92 10.48,88.15 10.21,88.31 9.94,88.47 9.64,88.57 9.34,88.66 9.02,88.68 8.70,88.70 8.39,88.65 8.08,88.59 7.79,88.46 7.50,88.33 7.25,88.14 7.00,87.94 6.81,87.69 6.61,87.44 6.48,87.16 6.35,86.87 6.29,86.56 6.24,86.25 7.70,84.86 9.17,83.47 9.58,83.59 9.99,83.71 10.34,83.95 10.68,84.19 10.94,84.54 11.19,84.88 11.32,85.28 11.45,85.69 11.45,86.11 11.44,86.54 11.30,86.94 11.16,87.34 10.90,87.67 10.64,88.01 10.29,88.24 9.93,88.48 9.52,88.59 9.11,88.70 8.69,88.67 8.26,88.64 7.87,88.48 7.48,88.32 7.16,88.04 6.84,87.76 6.62,87.39 6.41,87.03 6.32,86.61 6.23,86.19 6.28,85.77 6.33,85.35 6.52,84.97 6.70,84.58 7.00,84.28 7.29,83.97 7.67,83.78 8.05,83.58 8.47,83.52 8.89,83.45 9.31,83.53 9.72,83.60 10.10,83.81 10.47,84.01 10.76,84.32 11.05,84.63 11.22,85.02 11.40,85.41 11.44,85.83 11.48,86.25 11.38,86.67 11.29,87.08 11.06,87.44 10.84,87.80 10.51,88.08 10.19,88.35 9.79,88.50 9.39,88.65 10.44,87.28 11.48,85.92 11.46,86.23 11.44,86.55 11.35,86.85 11.26,87.15 11.09,87.43 10.93,87.70 10.71,87.92 10.48,88.15 10.21,88.31 9.94,88.47 9.64,88.57 9.34,88.66 9.02,88.68 8.70,88.70 8.39,88.65 8.08,88.59 7.79,88.46 7.50,88.33 7.25,88.14 7.00,87.94 6.81,87.69 6.61,87.45 6.48,87.16 6.35,86.87 6.29,86.56 6.24,86.25 4.47,84.50 2.71,82.75 2.15,76.08 1.59,69.41 0.57,59.99 -0.44,50.58 -0.59,39.59 -0.73,28.60 -1.08,20.06 -1.43,11.52 -2.31,6.02 -3.18,0.53 -3.20,0.14 -3.21,-0.24 -3.14,-0.62 -3.06,-1.00 -2.90,-1.36 -2.73,-1.71 -2.49,-2.01 -2.24,-2.31 -1.93,-2.55 -1.62,-2.78 -1.26,-2.94 -0.91,-3.09 -0.52,-3.16 -0.14,-3.22 0.24,-3.19 0.63,-3.16 1.00,-3.04 1.37,-2.92 1.70,-2.71 2.03,-2.50 2.30,-2.22 2.57,-1.94 2.76,-1.61 2.96,-1.27 3.07,-0.90 3.18,-0.53 3.18,-0.53 L 3.18,-0.53 Z"/></g><g transform="translate(828.0522411445872 124.59097541324957) rotate(0 4.774623975551776 44.5631571051527)" stroke="none"><path fill="#1e1e1e" d="M 3.22,0 Q 3.22,0 3.06,5.49 2.91,10.98 2.88,21.55 2.86,32.12 2.86,44.84 2.85,57.56 4.61,67.30 6.37,77.03 7.96,81.00 9.56,84.96 10.91,86.42 12.26,87.87 12.49,88.23 12.72,88.59 12.82,89.00 12.93,89.41 12.90,89.84 12.86,90.26 12.70,90.65 12.53,91.04 12.25,91.36 11.97,91.68 11.60,91.89 11.23,92.10 10.81,92.18 10.40,92.26 9.97,92.21 9.55,92.15 9.17,91.97 8.79,91.78 8.49,91.48 8.19,91.18 7.99,90.80 7.80,90.42 7.74,90.00 7.68,89.58 7.76,89.16 7.84,88.74 8.05,88.37 8.26,88.00 8.57,87.72 8.89,87.43 9.27,87.26 9.66,87.09 10.09,87.06 10.51,87.02 10.92,87.12 11.34,87.22 11.70,87.45 12.06,87.67 12.32,88.00 12.59,88.33 12.74,88.73 12.89,89.13 12.90,89.56 12.92,89.98 12.79,90.39 12.67,90.79 12.42,91.14 12.18,91.49 11.83,91.74 11.49,91.99 11.08,92.11 10.68,92.24 10.25,92.23 9.83,92.22 9.43,92.08 9.03,91.93 8.70,91.67 8.36,91.40 8.36,91.40 8.36,91.40 6.45,89.25 4.53,87.10 2.73,82.58 0.94,78.05 -0.95,67.82 -2.85,57.58 -2.86,44.85 -2.86,32.12 -2.88,21.55 -2.91,10.98 -3.06,5.49 -3.22,0 -3.18,-0.38 -3.13,-0.77 -2.99,-1.13 -2.85,-1.50 -2.63,-1.82 -2.41,-2.14 -2.12,-2.39 -1.83,-2.65 -1.48,-2.83 -1.14,-3.01 -0.76,-3.11 -0.38,-3.20 0.00,-3.20 0.38,-3.20 0.76,-3.11 1.14,-3.01 1.48,-2.83 1.83,-2.65 2.12,-2.39 2.41,-2.14 2.63,-1.82 2.85,-1.49 2.99,-1.13 3.13,-0.77 3.18,-0.38 3.22,0.00 3.22,0.00 L 3.22,0 Z"/></g><g transform="translate(863.0661502986354 127.77405806361764) rotate(0 28.647743853312477 20.69003722739228)" stroke="none"><path fill="#1e1e1e" d="M 3.16,-0.63 Q 3.16,-0.63 3.95,3.96 4.73,8.56 6.06,15.08 7.38,21.60 8.87,27.98 10.36,34.37 11.85,38.75 13.34,43.13 14.57,45.17 15.80,47.21 19.12,43.32 22.44,39.43 24.05,35.24 25.66,31.05 28.40,26.12 31.15,21.18 34.21,16.38 37.27,11.59 40.54,7.62 43.82,3.66 46.09,0.39 48.37,-2.87 50.60,-4.53 52.83,-6.19 53.30,-7.33 53.78,-8.47 54.04,-8.81 54.29,-9.15 54.64,-9.39 54.99,-9.63 55.39,-9.75 55.80,-9.87 56.23,-9.86 56.65,-9.84 57.05,-9.69 57.45,-9.53 57.77,-9.26 58.10,-8.99 58.32,-8.63 58.55,-8.27 58.64,-7.86 58.74,-7.44 58.70,-7.02 58.66,-6.60 58.49,-6.21 58.31,-5.82 58.03,-5.51 57.74,-5.20 57.36,-4.99 56.99,-4.79 56.57,-4.71 56.15,-4.64 55.73,-4.70 55.31,-4.77 54.94,-4.96 54.56,-5.15 54.26,-5.46 53.97,-5.76 53.78,-6.15 53.60,-6.53 53.55,-6.95 53.50,-7.37 53.58,-7.79 53.67,-8.21 53.88,-8.57 54.10,-8.94 54.42,-9.22 54.74,-9.50 55.13,-9.66 55.52,-9.82 55.95,-9.85 56.37,-9.88 56.78,-9.77 57.19,-9.66 57.55,-9.43 57.90,-9.20 58.16,-8.86 58.43,-8.53 58.57,-8.12 58.71,-7.72 58.71,-7.30 58.72,-6.87 58.59,-6.47 58.46,-6.06 58.46,-6.07 58.46,-6.07 55.86,-2.83 53.26,0.39 51.07,4.06 48.89,7.72 45.99,11.47 43.08,15.22 40.21,19.94 37.34,24.67 34.74,29.22 32.14,33.78 29.79,39.00 27.44,44.22 24.82,46.71 22.21,49.19 19.96,50.70 17.71,52.20 14.47,51.16 11.22,50.11 9.39,47.67 7.56,45.22 5.97,40.48 4.38,35.74 2.93,29.26 1.48,22.78 0.20,16.25 -1.07,9.73 -2.12,5.18 -3.16,0.63 -3.19,0.24 -3.22,-0.14 -3.16,-0.52 -3.09,-0.91 -2.94,-1.26 -2.78,-1.62 -2.55,-1.93 -2.31,-2.24 -2.01,-2.49 -1.71,-2.73 -1.36,-2.90 -1.00,-3.06 -0.62,-3.14 -0.24,-3.21 0.14,-3.20 0.53,-3.18 0.90,-3.07 1.27,-2.96 1.61,-2.76 1.94,-2.57 2.22,-2.30 2.50,-2.03 2.71,-1.70 2.92,-1.37 3.04,-1.00 3.16,-0.63 3.16,-0.63 L 3.16,-0.63 Z"/></g><g transform="translate(949.0093818585729 121.4078927628816) rotate(0 6.3661653007361565 39.78853312960052)" stroke="none"><path fill="#1e1e1e" d="M 3.18,-0.53 Q 3.18,-0.53 4.22,4.94 5.26,10.41 5.70,19.35 6.13,28.30 6.26,38.47 6.38,48.64 6.41,56.62 6.45,64.60 5.42,69.95 4.39,75.31 4.82,76.72 5.26,78.14 5.16,78.47 5.06,78.81 4.88,79.11 4.70,79.42 4.46,79.67 4.21,79.92 3.91,80.11 3.61,80.29 3.28,80.40 2.94,80.51 2.59,80.54 2.24,80.56 1.90,80.50 1.55,80.44 1.23,80.30 0.91,80.16 0.63,79.95 0.35,79.74 0.13,79.46 -0.08,79.19 -0.23,78.87 -0.38,78.55 -0.45,78.21 -0.52,77.86 -0.50,77.51 -0.48,77.16 2.26,74.99 5.02,72.83 6.50,70.80 7.98,68.77 8.29,68.47 8.60,68.18 8.98,68.00 9.37,67.82 9.79,67.77 10.21,67.72 10.63,67.81 11.04,67.90 11.41,68.12 11.77,68.34 12.05,68.66 12.33,68.99 12.49,69.38 12.64,69.77 12.67,70.20 12.69,70.62 12.58,71.03 12.47,71.44 12.23,71.79 11.99,72.15 11.66,72.41 11.32,72.66 10.92,72.80 10.51,72.94 10.09,72.94 9.66,72.94 9.26,72.81 8.86,72.67 8.52,72.42 8.18,72.16 7.94,71.81 7.70,71.46 7.59,71.05 7.47,70.64 7.49,70.22 7.51,69.79 7.67,69.40 7.83,69.00 8.10,68.68 8.37,68.35 8.74,68.13 9.10,67.91 9.51,67.82 9.93,67.73 10.35,67.77 10.77,67.81 11.16,67.99 11.55,68.17 11.86,68.46 12.17,68.75 12.37,69.13 12.57,69.50 12.64,69.92 12.71,70.34 12.64,70.76 12.57,71.18 12.37,71.55 12.18,71.93 12.18,71.93 12.18,71.93 8.72,75.03 5.26,78.14 5.16,78.47 5.06,78.81 4.88,79.11 4.70,79.42 4.46,79.67 4.21,79.92 3.91,80.11 3.61,80.29 3.28,80.40 2.94,80.51 2.59,80.54 2.24,80.56 1.90,80.50 1.55,80.44 1.23,80.30 0.91,80.16 0.63,79.95 0.35,79.74 0.13,79.46 -0.08,79.19 -0.23,78.87 -0.38,78.55 -0.45,78.21 -0.52,77.86 -0.50,77.51 -0.48,77.16 -1.13,75.97 -1.77,74.78 -1.03,69.71 -0.29,64.64 -0.39,56.70 -0.50,48.75 -0.71,38.68 -0.92,28.61 -1.26,20.08 -1.60,11.55 -2.39,6.04 -3.18,0.53 -3.20,0.14 -3.21,-0.24 -3.14,-0.62 -3.06,-1.00 -2.90,-1.36 -2.73,-1.71 -2.49,-2.01 -2.24,-2.31 -1.93,-2.55 -1.62,-2.78 -1.26,-2.94 -0.91,-3.09 -0.52,-3.16 -0.14,-3.22 0.24,-3.19 0.63,-3.16 1.00,-3.04 1.37,-2.92 1.70,-2.71 2.03,-2.50 2.30,-2.22 2.57,-1.94 2.76,-1.61 2.96,-1.27 3.07,-0.90 3.18,-0.53 3.18,-0.53 L 3.18,-0.53 Z"/></g><g transform="translate(1025.4033654674058 118.22481011251352) rotate(0 0 31.83082650368044)" stroke="none"><path fill="#1e1e1e" d="M 0,3.22 Q 0,3.22 -3.56,3.17 -7.13,3.12 -9.83,4.78 -12.53,6.43 -15.42,9.64 -18.31,12.84 -22.32,18.71 -26.32,24.58 -28.84,31.38 -31.36,38.18 -31.64,44.09 -31.92,50.01 -27.75,53.77 -23.58,57.53 -16.87,59.12 -10.16,60.72 -2.10,59.81 5.95,58.90 12.92,56.02 19.89,53.14 24.55,49.27 29.21,45.40 29.57,45.18 29.94,44.97 30.36,44.88 30.77,44.80 31.20,44.85 31.62,44.90 32.00,45.08 32.38,45.27 32.69,45.56 32.99,45.86 33.19,46.24 33.38,46.62 33.44,47.04 33.51,47.46 33.43,47.87 33.36,48.29 33.16,48.67 32.95,49.04 32.64,49.33 32.33,49.61 31.94,49.79 31.55,49.96 31.13,50.00 30.70,50.04 30.29,49.95 29.88,49.85 29.52,49.62 29.15,49.40 28.88,49.07 28.61,48.75 28.46,48.35 28.31,47.95 28.29,47.53 28.27,47.10 28.39,46.69 28.51,46.29 28.76,45.94 29.00,45.59 29.34,45.34 29.68,45.08 30.09,44.95 30.49,44.82 30.92,44.83 31.34,44.84 31.74,44.98 32.14,45.12 32.48,45.38 32.81,45.64 33.05,46.00 33.28,46.35 33.39,46.76 33.50,47.17 33.47,47.60 33.44,48.02 33.28,48.41 33.11,48.81 32.83,49.13 32.55,49.45 32.55,49.45 32.56,49.45 27.32,53.76 22.09,58.07 14.40,61.51 6.71,64.96 -2.49,66.02 -11.70,67.08 -19.78,64.70 -27.86,62.32 -32.66,56.72 -37.45,51.13 -37.28,43.63 -37.12,36.14 -34.30,28.63 -31.47,21.12 -27.21,14.84 -22.94,8.56 -19.29,4.72 -15.65,0.88 -11.57,-1.12 -7.50,-3.12 -3.75,-3.17 0,-3.22 0.38,-3.18 0.77,-3.13 1.13,-2.99 1.50,-2.85 1.82,-2.63 2.14,-2.41 2.39,-2.12 2.65,-1.83 2.83,-1.48 3.01,-1.14 3.11,-0.76 3.20,-0.38 3.20,0.00 3.20,0.38 3.11,0.76 3.01,1.14 2.83,1.48 2.65,1.83 2.39,2.12 2.14,2.41 1.82,2.63 1.49,2.85 1.13,2.99 0.77,3.13 0.38,3.18 -0.00,3.22 -0.00,3.22 L 0,3.22 Z"/></g><g transform="translate(1073.1496052229263 137.32330601472177) rotate(0 1.5915413251841528 15.915413251840278)" stroke="none"><path fill="#1e1e1e" d="M 0,3.22 Q 0,3.22 -3.48,3.05 -6.97,2.87 -8.67,4.38 -10.37,5.88 -11.94,9.79 -13.50,13.70 -14.19,17.96 -14.88,22.21 -13.49,27.15 -12.10,32.09 -9.08,34.79 -6.07,37.49 -2.27,39.53 1.51,41.57 5.20,41.45 8.89,41.32 11.76,38.78 14.64,36.24 17.66,31.84 20.69,27.44 21.88,22.27 23.07,17.11 23.72,12.33 24.38,7.55 22.18,3.41 19.99,-0.73 15.76,-4.23 11.52,-7.73 5.65,-9.24 -0.22,-10.75 -5.08,-8.84 -9.94,-6.93 -13.71,-3.60 -17.48,-0.26 -18.94,3.57 -20.40,7.41 -20.63,7.77 -20.85,8.13 -21.18,8.40 -21.51,8.67 -21.91,8.82 -22.30,8.97 -22.73,8.99 -23.15,9.01 -23.56,8.89 -23.97,8.77 -24.32,8.52 -24.66,8.28 -24.92,7.94 -25.17,7.60 -25.30,7.19 -25.43,6.79 -25.42,6.36 -25.42,5.94 -25.27,5.54 -25.13,5.14 -24.87,4.80 -24.61,4.47 -24.25,4.23 -23.90,4.00 -23.49,3.89 -23.08,3.79 -22.65,3.81 -22.23,3.84 -21.83,4.01 -21.44,4.17 -21.12,4.45 -20.80,4.73 -20.59,5.10 -20.38,5.46 -20.29,5.88 -20.21,6.30 -20.26,6.72 -20.31,7.14 -20.49,7.52 -20.68,7.91 -20.98,8.21 -21.27,8.52 -21.65,8.71 -22.03,8.90 -22.45,8.96 -22.87,9.03 -23.29,8.95 -23.71,8.88 -24.08,8.67 -24.45,8.47 -24.74,8.15 -25.03,7.84 -25.20,7.45 -25.37,7.07 -25.41,6.64 -25.45,6.22 -25.35,5.81 -25.26,5.39 -25.26,5.39 -25.26,5.39 -23.16,0.67 -21.06,-4.03 -16.46,-7.92 -11.86,-11.81 -5.64,-13.97 0.57,-16.13 7.86,-14.30 15.14,-12.47 20.34,-8.11 25.54,-3.75 28.31,1.98 31.08,7.72 30.50,13.29 29.92,18.85 28.19,25.10 26.47,31.35 22.65,36.58 18.82,41.81 14.19,44.70 9.57,47.58 4.21,47.32 -1.13,47.05 -5.70,44.45 -10.26,41.85 -13.99,37.93 -17.71,34.02 -19.27,27.70 -20.84,21.38 -19.85,16.37 -18.87,11.37 -16.51,6.40 -14.14,1.43 -10.90,-0.72 -7.67,-2.87 -3.83,-3.05 0,-3.22 0.38,-3.18 0.77,-3.13 1.13,-2.99 1.50,-2.85 1.82,-2.63 2.14,-2.41 2.39,-2.12 2.65,-1.83 2.83,-1.48 3.01,-1.14 3.11,-0.76 3.20,-0.38 3.20,0.00 3.20,0.38 3.11,0.76 3.01,1.14 2.83,1.48 2.65,1.83 2.39,2.12 2.14,2.41 1.82,2.63 1.49,2.85 1.13,2.99 0.77,3.13 0.38,3.18 -0.00,3.22 -0.00,3.22 L 0,3.22 Z"/></g><g transform="translate(1139.9943408806553 127.77405806361764) rotate(0 0 31.83082650368044)" stroke="none"><path fill="#1e1e1e" d="M 0,3.22 Q 0,3.22 -3.64,3.05 -7.29,2.88 -10.27,3.63 -13.26,4.38 -15.51,7.52 -17.76,10.65 -19.27,13.40 -20.78,16.15 -21.52,18.19 -22.25,20.23 -20.06,21.69 -17.87,23.15 -12.85,23.77 -7.83,24.40 -1.92,24.75 3.98,25.10 10.42,26.19 16.85,27.28 21.14,30.04 25.43,32.79 26.39,36.81 27.35,40.83 23.77,45.63 20.19,50.42 14.83,54.28 9.47,58.13 3.28,60.68 -2.91,63.23 -8.97,63.15 -15.04,63.08 -19.76,59.05 -24.48,55.03 -26.48,51.19 -28.48,47.34 -28.41,44.40 -28.35,41.46 -28.25,41.04 -28.15,40.63 -27.92,40.27 -27.69,39.91 -27.36,39.64 -27.03,39.38 -26.63,39.23 -26.23,39.08 -25.81,39.07 -25.38,39.06 -24.98,39.18 -24.57,39.30 -24.23,39.55 -23.88,39.80 -23.63,40.14 -23.38,40.49 -23.26,40.89 -23.13,41.30 -23.14,41.72 -23.15,42.15 -23.30,42.55 -23.44,42.95 -23.71,43.28 -23.97,43.61 -24.33,43.84 -24.69,44.07 -25.10,44.17 -25.51,44.28 -25.93,44.24 -26.36,44.21 -26.75,44.04 -27.14,43.88 -27.46,43.59 -27.77,43.31 -27.98,42.94 -28.19,42.57 -28.28,42.16 -28.36,41.74 -28.30,41.32 -28.24,40.90 -28.06,40.52 -27.87,40.13 -27.57,39.83 -27.27,39.53 -26.89,39.34 -26.51,39.15 -26.09,39.09 -25.67,39.03 -25.25,39.11 -24.83,39.19 -24.46,39.40 -24.09,39.61 -23.81,39.92 -23.52,40.24 -23.35,40.63 -23.18,41.02 -23.15,41.44 -23.11,41.87 -23.11,41.87 -23.11,41.86 -23.42,43.61 -23.72,45.36 -22.28,48.25 -20.83,51.14 -17.45,54.35 -14.07,57.55 -9.69,57.26 -5.31,56.98 0.15,54.72 5.62,52.46 10.48,49.30 15.34,46.15 18.33,41.49 21.32,36.82 18.48,34.99 15.64,33.17 9.61,32.09 3.59,31.00 -2.59,30.56 -8.78,30.12 -15.01,28.87 -21.23,27.62 -23.97,24.66 -26.70,21.71 -26.11,17.67 -25.51,13.63 -23.90,10.69 -22.28,7.75 -20.54,5.11 -18.79,2.46 -16.85,0.86 -14.92,-0.72 -11.13,-1.80 -7.34,-2.88 -3.67,-3.05 0,-3.22 0.38,-3.18 0.77,-3.13 1.13,-2.99 1.50,-2.85 1.82,-2.63 2.14,-2.41 2.39,-2.12 2.65,-1.83 2.83,-1.48 3.01,-1.14 3.11,-0.76 3.20,-0.38 3.20,0.00 3.20,0.38 3.11,0.76 3.01,1.14 2.83,1.48 2.65,1.83 2.39,2.12 2.14,2.41 1.82,2.63 1.49,2.85 1.13,2.99 0.77,3.13 0.38,3.18 -0.00,3.22 -0.00,3.22 L 0,3.22 Z"/></g><g transform="translate(1206.8390765383842 89.57706625920116) rotate(0 19.09849590220847 44.563157105152584)" stroke="none"><path fill="#1e1e1e" d="M 2.68,1.79 Q 2.68,1.79 0.67,4.35 -1.33,6.91 -1.88,11.25 -2.43,15.59 -2.70,22.06 -2.97,28.54 -2.17,36.64 -1.38,44.74 -0.11,53.68 1.15,62.63 3.50,69.85 5.85,77.08 9.47,82.59 13.09,88.11 17.10,91.11 21.10,94.11 24.30,95.29 27.50,96.47 30.08,96.05 32.65,95.64 35.97,93.08 39.29,90.53 41.39,85.35 43.50,80.18 45.49,74.25 47.48,68.32 49.29,62.18 51.11,56.04 50.92,49.35 50.73,42.67 48.07,35.55 45.42,28.44 41.60,20.77 37.78,13.11 33.55,6.27 29.32,-0.55 25.39,-3.04 21.45,-5.52 16.70,-4.88 11.94,-4.24 6.49,-0.66 1.03,2.91 -3.06,9.59 -7.17,16.27 -9.93,21.10 -12.70,25.93 -12.96,26.26 -13.23,26.59 -13.59,26.82 -13.95,27.05 -14.36,27.15 -14.78,27.25 -15.20,27.21 -15.62,27.17 -16.01,27.00 -16.40,26.83 -16.72,26.55 -17.03,26.26 -17.24,25.89 -17.45,25.52 -17.52,25.10 -17.60,24.69 -17.54,24.27 -17.48,23.84 -17.29,23.46 -17.10,23.09 -16.80,22.79 -16.50,22.49 -16.11,22.30 -15.73,22.11 -15.31,22.06 -14.89,22.00 -14.47,22.09 -14.06,22.17 -13.69,22.38 -13.32,22.59 -13.04,22.91 -12.75,23.23 -12.59,23.62 -12.42,24.01 -12.39,24.43 -12.36,24.86 -12.46,25.27 -12.57,25.68 -12.80,26.04 -13.03,26.39 -13.36,26.66 -13.69,26.92 -14.09,27.07 -14.49,27.21 -14.92,27.22 -15.34,27.23 -15.75,27.10 -16.15,26.98 -16.50,26.73 -16.84,26.48 -17.09,26.13 -17.33,25.78 -17.46,25.38 -17.58,24.97 -17.57,24.54 -17.55,24.12 -17.40,23.72 -17.25,23.32 -17.25,23.32 -17.25,23.32 -14.45,18.42 -11.64,13.51 -6.94,5.90 -2.23,-1.71 4.40,-5.94 11.04,-10.16 17.54,-10.66 24.04,-11.16 29.35,-7.70 34.67,-4.24 39.28,2.89 43.89,10.03 47.95,18.02 52.01,26.01 54.97,34.20 57.94,42.38 58.06,50.17 58.18,57.96 56.41,64.35 54.65,70.73 52.51,77.05 50.38,83.37 47.10,89.79 43.81,96.20 38.76,99.39 33.71,102.58 29.50,102.75 25.29,102.92 21.14,101.18 16.99,99.44 12.32,95.57 7.65,91.70 3.77,85.35 -0.10,79.01 -2.46,71.24 -4.83,63.47 -6.05,54.38 -7.27,45.28 -8.02,36.77 -8.78,28.25 -8.38,21.47 -7.99,14.69 -6.99,9.38 -5.99,4.06 -4.33,1.13 -2.68,-1.79 -2.43,-2.08 -2.17,-2.38 -1.86,-2.60 -1.54,-2.83 -1.18,-2.97 -0.82,-3.12 -0.43,-3.17 -0.05,-3.22 0.33,-3.18 0.72,-3.14 1.08,-3.01 1.45,-2.88 1.77,-2.66 2.10,-2.45 2.36,-2.16 2.62,-1.87 2.81,-1.53 2.99,-1.19 3.09,-0.81 3.19,-0.44 3.20,-0.05 3.21,0.33 3.12,0.71 3.03,1.09 2.86,1.44 2.68,1.79 2.68,1.79 L 2.68,1.79 Z"/></g><g transform="translate(1200.472911237648 146.8725539658259) rotate(0 36.605450479232786 -11.14078927628816)" stroke="none"><path fill="#1e1e1e" d="M -0.63,-3.16 Q -0.63,-3.16 3.92,-4.17 8.47,-5.19 16.87,-6.62 25.28,-8.05 35.00,-11.11 44.72,-14.17 53.59,-17.07 62.47,-19.96 62.88,-20.04 63.30,-20.12 63.72,-20.07 64.14,-20.01 64.52,-19.82 64.90,-19.63 65.20,-19.33 65.50,-19.03 65.69,-18.65 65.88,-18.27 65.94,-17.85 66.00,-17.43 65.92,-17.01 65.84,-16.59 65.63,-16.22 65.42,-15.85 65.10,-15.57 64.78,-15.28 64.39,-15.12 64.00,-14.95 63.58,-14.91 63.16,-14.88 62.74,-14.98 62.33,-15.09 61.97,-15.31 61.62,-15.54 61.35,-15.87 61.08,-16.21 60.94,-16.61 60.79,-17.00 60.78,-17.43 60.77,-17.85 60.89,-18.26 61.02,-18.67 61.27,-19.01 61.51,-19.36 61.86,-19.60 62.20,-19.85 62.61,-19.98 63.02,-20.10 63.44,-20.09 63.87,-20.08 64.27,-19.93 64.66,-19.78 65.00,-19.52 65.33,-19.25 65.56,-18.89 65.78,-18.53 65.89,-18.12 65.99,-17.71 65.95,-17.29 65.92,-16.86 65.75,-16.47 65.58,-16.08 65.30,-15.77 65.02,-15.45 64.65,-15.24 64.27,-15.03 64.28,-15.03 64.28,-15.03 55.54,-11.46 46.80,-7.89 36.61,-4.36 26.42,-0.82 18.12,0.35 9.82,1.53 5.22,2.34 0.63,3.16 0.24,3.19 -0.14,3.22 -0.52,3.16 -0.91,3.09 -1.26,2.94 -1.62,2.78 -1.93,2.55 -2.24,2.31 -2.49,2.01 -2.73,1.71 -2.90,1.36 -3.06,1.00 -3.14,0.62 -3.21,0.24 -3.20,-0.14 -3.18,-0.53 -3.07,-0.90 -2.96,-1.27 -2.76,-1.61 -2.57,-1.94 -2.30,-2.22 -2.03,-2.50 -1.70,-2.71 -1.37,-2.92 -1.00,-3.04 -0.63,-3.16 -0.63,-3.16 L -0.63,-3.16 Z"/></g></svg>